NidahasFMAbhaya-Bold.sfdir
StartChar: exclaim
Encoding: 33 33 253
Width: 228
GlyphClass: 2
Flags: W
HStem: -7 128<59.3497 154.65>
VStem: 42 130<9.55289 104.102> 50 109<368.976 670.707>
LayerCount: 2
Back
Fore
SplineSet
50 624 m 0xa0
 50 657.352428803 72.6189959028 682 107 682 c 0
 143 682 160.333333333 662.333333333 159 623 c 0
 156.533907096 556.415491583 133.750896467 328.238504867 120 185 c 1
 90 185 l 1
 80.0838343846 276.724531942 74.2379794599 346.362993077 58 499 c 0
 52.6666666667 553.666666667 50 595.333333333 50 624 c 0xa0
42 57 m 0xc0
 42 91.5706612976 71.5005653076 121 107 121 c 0
 141.57383203 121 172 92.5551165996 172 57 c 0
 172 21.1243030376 141.243413193 -7 107 -7 c 0
 72.42616797 -7 42 21.4448834004 42 57 c 0xc0
EndSplineSet
EndChar
StartChar: percentage
Encoding: 37 37 230
Width: 554
GlyphClass: 2
Flags: HW
HStem: 0 51<262.186 342.934> 147 51<261.208 341.57> 475 53<185.403 265.723> 624 49<184.416 265.814>
VStem: 125 51<537.306 614.953> 200 53<60.4756 137.605> 274 54<536.283 615.304> 351 52<60.201 137.715>
LayerCount: 2
Back
Fore
SplineSet
41 -1 m 1
 441 677 l 1
 492 677 l 1
 94 -1 l 1
 41 -1 l 1
125 575 m 0
 125 633 174 673 228 673 c 0
 286 673 328 629 328 574 c 0
 328 516 282 475 227 475 c 0
 168 475 125 519 125 575 c 0
200 100 m 0
 200 157 246 198 300 198 c 0
 358 198 403 153 403 98 c 0
 403 40 357 0 301 0 c 0
 242 0 200 46 200 100 c 0
226 624 m 256
 200 624 176 603 176 577 c 0
 176 551 199 528 225 528 c 256
 251 528 274 550 274 576 c 256
 274 602 252 624 226 624 c 256
302 147 m 256
 276 147 253 126 253 100 c 0
 253 74 276 51 302 51 c 256
 328 51 351 72 351 98 c 0
 351 124 328 147 302 147 c 256
EndSplineSet
EndChar
StartChar: bracket2
Encoding: 40 40 231
Width: 261
GlyphClass: 2
Flags: W
VStem: 31 92<110.031 397.519>
LayerCount: 2
Back
Fore
SplineSet
231 627 m 1
 231 610 l 1
 157.666666667 520.666666667 121.666666667 403 123 257 c 0
 123.666666667 181.666666667 129 122 139 78 c 0
 155 11.3333333333 185 -48.3333333333 229 -101 c 1
 229 -122 l 1
 100.333333333 -33.3333333333 34.3333333333 90 31 248 c 0
 27.6666666667 407.333333333 94.3333333333 533.666666667 231 627 c 1
EndSplineSet
EndChar
StartChar: bracket1
Encoding: 41 41 212
Width: 261
GlyphClass: 2
Flags: W
VStem: 143 93<111.16 397.519>
LayerCount: 2
Back
Fore
SplineSet
236 248 m 0
 232.666666667 90.6666666667 166.333333333 -32.6666666667 37 -122 c 1
 37 -101 l 1
 81.6666666667 -48.3333333333 111.666666667 11.3333333333 127 78 c 0
 137 121.333333333 142.333333333 181 143 257 c 0
 144.333333333 403 108.666666667 520.666666667 36 610 c 1
 36 627 l 1
 172.666666667 533 239.333333333 406.666666667 236 248 c 0
EndSplineSet
EndChar
StartChar: asterisk
Encoding: 42 42 215
Width: 383
GlyphClass: 2
Flags: W
HStem: 383 73<51.5449 98.687 267.751 332.29> 505 71<50.4765 115.335 265.308 333.466>
VStem: 158 65<321.974 426.805 546.603 638.858> 186 11<489 531.06>
LayerCount: 2
Back
Fore
SplineSet
193 641 m 0xd0
 214.333333333 641 224.666666667 627.666666667 224 601 c 0
 222.844181058 582.506896935 207.966834059 554.867336234 205 543 c 0
 200.333333333 523 197.666666667 505 197 489 c 1xd0
 205 493.666666667 218 504 236 520 c 1
 242 529.333333333 255 544.333333333 275 565 c 0
 283 571.666666667 293 575 305 575 c 0
 327.666666667 575 339 565.333333333 339 546 c 0
 339 505.696628612 290.117837115 506.019639519 254 500 c 0
 238.666666667 496.666666667 221.666666667 490.333333333 203 481 c 1
 224.532666859 467.400420931 261.664840398 462.46703192 294 456 c 0
 316.317729396 451.536454121 338 439.546569715 338 415 c 0
 338 393.666666667 327.666666667 383 307 383 c 0
 271.98674782 383 257.731781218 423.460638917 238 441 c 0
 228.666666667 449.666666667 215.333333333 459.333333333 198 470 c 1
 196.584692203 438.863228474 201.699335638 415.831395161 214 390 c 0
 220 378.666666667 223 368.666666667 223 360 c 0
 223 334 213 320.666666667 193 320 c 0
 172.333333333 319.333333333 160.666666667 332 158 358 c 0xe0
 156.666666667 368.666666667 158.666666667 379.666666667 164 391 c 0
 179.59377985 429.27564145 178.667801478 425.006808869 186 469 c 1
 170.666666667 463.666666667 157.333333333 454 146 440 c 0
 137.333333333 428.666666667 121.666666667 412.333333333 99 391 c 0
 92.3333333333 387 85 385 77 385 c 0
 56.3333333333 385 46 394.666666667 46 414 c 0
 46 441.492342659 68.9296511622 452.932900137 95 456 c 0
 112 458 112 458 129 460 c 0
 138.333333333 461.333333333 156 468 182 480 c 1
 164.004949544 491.073877204 134.964336231 501.146678261 99 505 c 0
 70.0647363254 507.516109885 45 518.65161859 45 546 c 0
 45 566 55.6666666667 576 77 576 c 0
 90.3333333333 576 100.666666667 572 108 564 c 0
 117.333333333 552.666666667 131 537 149 517 c 0
 154.333333333 511.666666667 166.666666667 502.333333333 186 489 c 1
 188.47055213 524.823005879 182.956171146 545.166613475 168 571 c 0
 162.666666667 581 160 591.333333333 160 602 c 0
 160 628 171 641 193 641 c 0xd0
EndSplineSet
EndChar
StartChar: plus
Encoding: 43 43 240
Width: 436
GlyphClass: 2
Flags: W
HStem: 183 47<46 182 236 373>
VStem: 182 54<60 183 230 354>
LayerCount: 2
Back
Fore
SplineSet
46 230 m 1
 182 230 l 1
 182 354 l 1
 236 354 l 1
 236 230 l 1
 373 230 l 1
 373 183 l 1
 236 183 l 1
 236 60 l 1
 182 60 l 1
 182 183 l 1
 46 183 l 1
 46 230 l 1
EndSplineSet
EndChar
StartChar: comma
Encoding: 44 44 210
Width: 202
GlyphClass: 2
Flags: HW
HStem: 16 94<48.4328 98.8545>
VStem: 101 62<-49.7658 47>
LayerCount: 2
Back
Fore
SplineSet
98 111 m 0
 143 111 163 76 163 20 c 0
 163 -18 155 -31 132 -63 c 0
 119 -81 106 -95 95 -105 c 1
 57 -99 l 1
 86 -70 101 -44 101 -21 c 0
 101 1 91 9 70 16 c 0
 52 22 38 37 38 60 c 0
 38 90 67 111 98 111 c 0
EndSplineSet
EndChar
StartChar: short_dash1
Encoding: 45 45 216
Width: 297
GlyphClass: 2
Flags: HW
HStem: 187 39<43 245>
VStem: 43 202<187 226>
LayerCount: 2
Back
Fore
SplineSet
43 226 m 1
 245 226 l 1
 245 187 l 1
 43 187 l 1
 43 226 l 1
EndSplineSet
EndChar
StartChar: dot
Encoding: 46 46 213
Width: 208
GlyphClass: 2
Flags: HW
HStem: -8 116<50.6633 145.337>
VStem: 39 118<4.22381 95.7762>
LayerCount: 2
Back
Fore
SplineSet
39 50 m 0
 39 85 65 108 98 108 c 0
 134 108 157 83 157 50 c 0
 157 15 131 -8 98 -8 c 0
 62 -8 39 17 39 50 c 0
EndSplineSet
EndChar
StartChar: slash
Encoding: 47 47 211
Width: 407
GlyphClass: 2
Flags: W
VStem: 49 307
LayerCount: 2
Back
Fore
SplineSet
315 607 m 1
 356 607 l 1
 89 -32 l 1
 49 -32 l 1
 315 607 l 1
EndSplineSet
EndChar
StartChar: 0
Encoding: 48 48 218
Width: 454
GlyphClass: 2
Flags: HW
HStem: -4 29<178.755 262.798> 540 25<186.873 253.73>
VStem: 27 99<133.226 425.067> 308 104<140.375 420.394>
LayerCount: 2
Back
Fore
SplineSet
221 25 m 0
 265 25 272 47 286 86 c 0
 300 126 308 201 308 289 c 0
 308 349 304 397 296 434 c 0
 287 473 277 500 266 516 c 0
 255 532 240 540 220 540 c 0
 199 540 183 531 171 512 c 0
 160 496 150 468 141 427 c 0
 131 384 126 331 126 268 c 0
 126 209 131 159 141 120 c 0
 150 85 161 60 172 46 c 0
 183 32 199 25 221 25 c 0
371 466 m 0
 398 415 412 354 412 283 c 0
 412 226 404 175 387 130 c 0
 354 41 297 -4 217 -4 c 0
 162 -4 117 20 83 67 c 0
 46 118 27 190 27 281 c 0
 27 352 39 412 64 462 c 0
 98 530 151 565 224 565 c 0
 287 565 336 532 371 466 c 0
EndSplineSet
EndChar
StartChar: 1
Encoding: 49 49 219
Width: 358
GlyphClass: 2
Flags: W
HStem: 1 19<73 116.091 256.421 293>
VStem: 140 83<37.4717 464.808>
LayerCount: 2
Back
Fore
SplineSet
121 478 m 256
 103.571426639 478 88.3388907724 468.779630257 68 462 c 1
 68 481 l 1
 206 557 l 1
 223 557 l 1
 223 71 l 2
 223 55.6666666667 230 44.6666666667 244 38 c 0
 250 34 255.666666667 30 261 26 c 0
 269 22 279.666666667 19.6666666667 293 19 c 1
 293 1 l 1
 73 1 l 1
 73 20 l 1
 96.3333333333 21.3333333333 113.333333333 26 124 34 c 0
 134.666666667 40 140 55 140 79 c 2
 140 433 l 2
 140 450.333333333 139 461 137 465 c 0
 131 473.666666667 125.666666667 478 121 478 c 256
EndSplineSet
EndChar
StartChar: 2
Encoding: 50 50 220
Width: 447
GlyphClass: 2
Flags: W
HStem: -1 78<125 360> 481 82<117.193 214.575>
VStem: 29 22<394.727 421.074> 264 98<325.214 430.366>
LayerCount: 2
Back
Fore
SplineSet
300 77 m 2
 347.408583764 77 369.146266107 89.7193991608 388 118 c 1
 407 113 l 1
 360 -1 l 1
 28 -1 l 1
 28 9 l 1
 132 115 198.333333333 192 227 240 c 0
 251.666666667 280.666666667 264 319.666666667 264 357 c 0
 264 423.646005192 215.030226485 481 151 481 c 0
 94.1128544469 481 61.1423368732 441.584758047 51 392 c 1
 29 396 l 1
 51.6666666667 507.333333333 110.666666667 563 206 563 c 0
 294.760182017 563 362 502.941173007 362 414 c 256
 362 369.333333333 346.333333333 325.666666667 315 283 c 0
 283.666666667 240.333333333 220.333333333 171.666666667 125 77 c 1
 300 77 l 2
EndSplineSet
EndChar
StartChar: 3
Encoding: 51 51 221
Width: 401
GlyphClass: 2
Flags: HW
HStem: -9 39<103.256 230.131> 497 66<115.828 216.984>
VStem: 29 18<423.889 433.979>
LayerCount: 2
Back
Fore
SplineSet
29 427 m 1
 49 503 108 563 200 563 c 0
 271 563 329 520 329 449 c 0
 329 391 286 358 244 327 c 1
 277 319 300 308 314 295 c 0
 344 266 360 230 360 184 c 0
 360 123 335 75 284 39 c 0
 239 7 185 -9 120 -9 c 0
 87 -9 64 -4 50 5 c 0
 36 14 28 25 28 38 c 0
 28 44 30 50 34 57 c 0
 43 66 53 71 63 71 c 0
 76 71 94 64 117 50 c 0
 140 36 160 30 177 30 c 0
 221 30 251 41 266 62 c 0
 281 82 287 108 287 134 c 0
 287 171 274 209 252 231 c 0
 227 257 197 272 164 276 c 1
 164 276 164 276 133 276 c 0
 132 276 128 275 120 273 c 1
 119 295 l 1
 170 313 190 316 220 342 c 0
 237 357 249 381 249 411 c 0
 249 432 241 452 224 471 c 0
 209 488 186 497 157 497 c 0
 98 497 68 467 47 419 c 1
 29 427 l 1
EndSplineSet
EndChar
StartChar: 4
Encoding: 52 52 222
Width: 461
GlyphClass: 2
Flags: W
HStem: -1 21G<240 333> 139 51<63 240 333 419>
VStem: 240 93<-1 139 190 428>
LayerCount: 2
Back
Fore
SplineSet
240 428 m 1
 63 190 l 1
 240 190 l 1
 240 428 l 1
293 561 m 1
 333 561 l 1
 333 190 l 1
 419 190 l 1
 419 139 l 1
 333 139 l 1
 333 -1 l 1
 240 -1 l 1
 240 139 l 1
 25 139 l 1
 25 192 l 1
 293 561 l 1
EndSplineSet
EndChar
StartChar: 5
Encoding: 53 53 223
Width: 407
GlyphClass: 2
Flags: HW
HStem: -8 42<123.443 235.294> 475 80<148 329.895> 484 71<148.562 346.028>
VStem: 281 85<110.665 231.048>
LayerCount: 2
Back
Fore
SplineSet
184 34 m 0
 252 34 281 80 281 143 c 0
 281 203 247 266 211 293 c 0
 181 315 148 328 113 332 c 0
 112 332 112 332 111 332 c 0
 102 332 86 329 63 323 c 1
 53 330 49 336 50 339 c 2
 148 555 l 1
 327 555 l 2xd0
 341 555 354 562 366 576 c 1
 373 570 l 1
 344 500 l 2
 340 490 335 485 330 484 c 0xb0
 328 484 312 475 310 475 c 2
 146 475 l 1
 112 405 l 1
 118 405 125 405 131 405 c 0
 241 405 320 356 352 280 c 0
 362 257 366 232 366 203 c 0
 366 77 263 -7 135 -8 c 0xd0
 87 -8 28 2 28 44 c 0
 28 56 33 64 42 68 c 0
 55 74 65 77 72 77 c 0
 74 77 76 77 78 76 c 0
 83 74 98 67 122 55 c 0
 146 41 167 34 184 34 c 0
EndSplineSet
EndChar
StartChar: 6
Encoding: 54 54 224
Width: 431
GlyphClass: 2
Flags: W
HStem: -8 26<193.397 258.019> 313 39<171.915 255.651> 540 21<329.258 373>
VStem: 31 362<159.333 279.658>
LayerCount: 2
Back
Fore
SplineSet
241 352 m 0
 336.158120779 352 393 279.65795153 393 182 c 0
 393 132 376.666666667 88.3333333333 344 51 c 0
 310.666666667 11.6666666667 269.333333333 -8 220 -8 c 0
 172.666666667 -8 129.333333333 13.6666666667 90 57 c 0
 50.6666666667 100.333333333 31 159.333333333 31 234 c 0
 31 330.666666667 69 411.333333333 145 476 c 0
 210.333333333 531.333333333 286.333333333 559.666666667 373 561 c 1
 378 540 l 1
 356.666666667 536.666666667 326.666666667 530 288 520 c 1
 264.666666667 510.666666667 242.333333333 496.666666667 221 478 c 0
 207.825629421 466.375555372 162.81997693 408.95389157 154 367.5 c 0
 150.666666667 351.833333333 147.666666667 337 145 323 c 1
 173 342.333333333 205 352 241 352 c 0
285 250 m 0
 269.666666667 292 243 313 205 313 c 0
 185 313 167.666666667 295.666666667 153 261 c 0
 135.451226128 220.052860966 140.455305047 136.690997991 156 92 c 0
 174 42.6666666667 196.666666667 18 224 18 c 0
 257.84743918 18 265.585125847 37.9344393361 279 67 c 0
 298.494669697 109.888273334 303.992779348 199.352588405 285 250 c 0
EndSplineSet
EndChar
StartChar: 7
Encoding: 55 55 225
Width: 422
GlyphClass: 2
Flags: W
HStem: -1 21G<154 211.567> 451 98<84.8688 301>
VStem: 154 51<-1 20.3182>
LayerCount: 2
Back
Fore
SplineSet
381 549 m 1
 381 535 l 1
 205 -1 l 1
 154 -1 l 1
 301 451 l 1
 146 451 l 2
 112.666666667 451 92.1666666667 448.5 84.5 443.5 c 0
 76.8333333333 438.5 64 425.666666667 46 405 c 1
 22 418 l 1
 36 453 36 453 54 498 c 0
 61.3333333333 520 67.3333333333 537 72 549 c 1
 381 549 l 1
EndSplineSet
EndChar
StartChar: 8
Encoding: 56 56 226
Width: 399
GlyphClass: 2
Flags: W
HStem: -11 24<152.637 251.689> 535 27<135.628 249.176>
VStem: 28 58<65.9219 197.408> 33 63<418.04 498.443> 293 66<57.2273 149.728>
LayerCount: 2
Back
Fore
SplineSet
86 132 m 0xe8
 86 71.0927871828 136.513342749 13 197 13 c 0
 229 13 254 21.3333333333 272 38 c 0
 290.545184345 55.22052832 291.533053804 59.2602375007 293 93 c 0
 293.666666667 115.666666667 282.333333333 139.666666667 259 165 c 0
 229.666666667 197 194.666666667 226.666666667 154 254 c 1
 115.98271727 222.894950494 86 194.314034599 86 132 c 0xe8
184 535 m 0
 146.518491535 535 96 506.910690273 96 470 c 0xd8
 96 424.321031149 168.564121271 357.580029446 208 332 c 1
 220.666666667 340 237 352 257 368 c 1
 288.65447552 408.176834314 296.593509226 476.406490774 259 514 c 0
 245.666666667 528 220.666666667 535 184 535 c 0
359 128 m 0
 359 41.0385370591 284.056224373 -11 194 -11 c 0
 105.327073236 -11 29.3817184296 37.3334573632 28 123 c 0xe8
 26.5716227576 195.847239363 82.9504720108 243.409609681 133 276 c 1
 109.666666667 294 86.3333333333 316 63 342 c 0
 43 364 33 394 33 432 c 0
 33 513.497422532 111.08511871 562 197 562 c 0
 273.720530144 562 343 516.216922 343 443 c 0
 343 375.282861556 284.656996361 338.161411066 231 309 c 1
 270.333333333 280.333333333 302.666666667 250 328 218 c 0
 348.666666667 192 359 162 359 128 c 0
EndSplineSet
EndChar
StartChar: 9
Encoding: 57 57 227
Width: 431
GlyphClass: 2
Flags: W
HStem: -7 21<47 90.7422> 202 39<165.115 248.349> 536 26<161.91 226.704>
VStem: 28 362<272.295 380.667>
LayerCount: 2
Back
Fore
SplineSet
180 202 m 0
 82.7916796202 202 28 272.294977874 28 372 c 256
 28 422 44.3333333333 466.166666667 77 504.5 c 0
 109.666666667 542.833333333 150.666666667 562 200 562 c 0
 258 562 305.333333333 535.333333333 342 482 c 0
 374 434.666666667 390 380.666666667 390 320 c 0
 390 224 351.666666667 143.333333333 275 78 c 0
 209.666666667 22.6666666667 133.666666667 -5.66666666667 47 -7 c 1
 42 14 l 1
 64 17.3333333333 94.3333333333 24 133 34 c 1
 155 42.6666666667 177 56.6666666667 199 76 c 0
 215.44602613 90.7148654843 256.755124121 145.31301717 267 188 c 0
 269.666666667 202.666666667 272.333333333 217 275 231 c 1
 247.666666667 211.666666667 216 202 180 202 c 0
136 304 m 0
 151.333333333 262 177.666666667 241 215 241 c 0
 235 241 252.333333333 258.333333333 267 293 c 0
 284.548773872 333.947139034 279.544694953 417.309002009 264 462 c 0
 246 511.333333333 223.333333333 536 196 536 c 0
 162.672633272 536 153.279718129 516.024788304 141 487 c 0
 120.818088589 441.254334135 116.006736005 357.731896987 136 304 c 0
EndSplineSet
EndChar
StartChar: colon
Encoding: 58 58 214
Width: 202
GlyphClass: 2
Flags: W
HStem: 80 96<52.4088 134.375> 246 97<52.0178 133.837>
VStem: 44 99<88.2488 166.976 254.353 334.051>
LayerCount: 2
Back
Fore
SplineSet
44 129 m 0
 44 157.450056708 66.0913349297 176 93 176 c 0
 122.763384379 176 143 151.774417242 143 126 c 0
 143 99.4896473287 120.431370471 80 94 80 c 0
 65.3247030424 80 44 101.484266799 44 129 c 0
44 294 m 0
 44 323.735015838 66.9526450165 343 94 343 c 0
 123.006634405 343 143 318.156982295 143 293 c 0
 143 263.694631761 117.807655812 246 92 246 c 0
 63.7056431292 246 44 267.329882813 44 294 c 0
EndSplineSet
EndChar
StartChar: semicolon
Encoding: 59 59 238
Width: 202
GlyphClass: 2
Flags: W
HStem: 15.5 94.5<48.4328 98.8545> 172 118<57.9392 148.167>
VStem: 38 125<20.2105 93.125 191.676 270.882> 101 62<-49.7658 47>
LayerCount: 2
Back
Fore
SplineSet
70 15.5 m 0xd0
 52.1981968276 21.285586031 38 36.7777907843 38 60 c 0xe0
 38 92.6413402068 73.3622332667 115.131520998 108 110 c 0
 144.666666667 104 163 74 163 20 c 0
 163 -18.225704477 155.232602247 -31.0551719105 132 -63 c 0
 118.666666667 -81 106.333333333 -95 95 -105 c 1
 57 -99 l 1
 86.3333333333 -69.6666666667 101 -43.6666666667 101 -21 c 0
 101 1.30669707256 90.9352654106 8.69603874156 70 15.5 c 0xd0
43 232 m 0
 43 263.739476674 71.3137282607 290 103 290 c 0
 135.537992287 290 163 263.244065375 163 231 c 256
 163 199.286575658 134.686271739 172 103 172 c 256
 70.7774357926 172 43 199.461055742 43 232 c 0
EndSplineSet
EndChar
StartChar: equals
Encoding: 61 61 233
Width: 374
GlyphClass: 2
Flags: W
HStem: 139 45<42 315> 242 43<42 315>
VStem: 42 273<139 184 242 285>
LayerCount: 2
Back
Fore
SplineSet
42 184 m 1
 315 184 l 1
 315 139 l 1
 42 139 l 1
 42 184 l 1
42 285 m 1
 315 285 l 1
 315 242 l 1
 42 242 l 1
 42 285 l 1
EndSplineSet
EndChar
StartChar: question
Encoding: 63 63 228
Width: 385
GlyphClass: 2
Flags: HW
HStem: -6 100<137.285 219.715> 566 29<116.375 200.826>
VStem: 30 34<421.629 517.676> 128 101<3.76755 84.2324> 166 22<134 167.469>
LayerCount: 2
Back
Fore
SplineSet
238 455 m 0
 238 510 216 566 161 566 c 0
 124 566 89 537 76 510 c 0
 68 493 64 477 64 462 c 0
 64 439 72 424 89 417 c 0
 117 406 131 393 131 378 c 0
 131 359 117 345 96 345 c 0
 72 345 52 368 44 385 c 0
 34 404 30 428 30 458 c 0
 30 491 43 521 68 550 c 0
 94 580 133 595 186 595 c 0xe8
 275 595 343 541 343 455 c 0
 343 391 301 332 261 304 c 0
 210 269 185 224 185 168 c 0
 185 157 186 145 188 134 c 1
 166 134 l 1
 159 151 156 171 156 192 c 0
 156 204 157 216 159 229 c 0
 164 263 182 305 213 356 c 0
 229 382 238 419 238 455 c 0
128 45 m 0xf0
 128 72 153 94 180 94 c 0
 207 94 229 70 229 43 c 0
 229 16 204 -6 177 -6 c 0
 150 -6 128 18 128 45 c 0xf0
EndSplineSet
EndChar
StartChar: roman_I
Encoding: 73 73 246
Width: 301
GlyphClass: 2
Flags: W
HStem: -1 26<37 90.2618 211.166 261> 582 30<37 97.1845 199.384 261>
VStem: 102 93<31.8117 579.437>
LayerCount: 2
Back
Fore
SplineSet
233 582 m 2
 204.026285435 582 195 572.902704227 195 540 c 2
 195 67 l 2
 195 46.3333333333 200.333333333 34.3333333333 211 31 c 0
 214.333333333 29.6666666667 231 27.6666666667 261 25 c 1
 261 -1 l 1
 37 -1 l 1
 37 25 l 1
 73.8089060996 25 102 31.5104288617 102 69 c 2
 102 540 l 2
 102 577.026532049 87.7868808911 582 53 582 c 2
 37 582 l 1
 37 612 l 1
 261 612 l 1
 261 582 l 1
 233 582 l 2
EndSplineSet
EndChar
StartChar: roman_V
Encoding: 86 86 247
Width: 654
GlyphClass: 2
Flags: HW
HStem: 581 30<31 87.8746 221.537 280 417 474.458 564.202 616>
LayerCount: 2
Back
Fore
SplineSet
526 500 m 2
 329 -13 l 1
 302 -13 l 1
 106 533 l 2
 91 573 80 580 31 581 c 1
 31 611 l 1
 280 611 l 1
 280 581 l 1
 252 581 232 578 221 572 c 0
 211 569 206 558 206 540 c 0
 206 533 207 525 210 518 c 2
 345 133 l 1
 479 474 l 2
 486 492 490 509 490 528 c 0
 490 564 466 582 417 583 c 1
 417 611 l 1
 616 611 l 1
 616 583 l 1
 593 583 576 577 563 565 c 0
 550 553 538 531 526 500 c 2
EndSplineSet
EndChar
StartChar: roman_X
Encoding: 88 88 248
Width: 654
GlyphClass: 2
Flags: HW
HStem: -1 28<31 80.5938 185.389 244 353 401.104 549.728 614> 583 30<36 84.8635 231.255 266 366 421.942 529.868 576>
LayerCount: 2
Back
Fore
SplineSet
175 71 m 0
 175 32 201 28 244 27 c 1
 244 -1 l 1
 31 -1 l 1
 31 27 l 1
 56 27 76 36 94 52 c 0
 112 68 134 96 161 135 c 2
 269 294 l 1
 119 536 l 2
 111 549 84 572 67 578 c 0
 60 581 50 582 36 583 c 1
 36 613 l 1
 266 613 l 1
 266 581 l 1
 248 581 236 578 231 571 c 0
 224 562 220 556 220 554 c 0
 220 549 223 542 229 532 c 2
 327 371 l 1
 417 502 l 2
 426 515 432 530 433 545 c 0
 433 569 411 582 366 583 c 1
 366 613 l 1
 576 613 l 1
 576 585 l 1
 566 584 544 576 511 559 c 0
 496 553 477 534 455 502 c 2
 347 343 l 1
 514 84 l 2
 521 73 531 60 546 43 c 1
 561 33 584 28 614 27 c 1
 614 -1 l 1
 353 -1 l 1
 353 27 l 1
 377 27 394 30 402 36 c 0
 410 42 414 48 414 55 c 0
 414 62 410 72 403 84 c 2
 289 267 l 1
 200 132 l 2
 183 107 175 86 175 71 c 0
EndSplineSet
EndChar
StartChar: roman_i
Encoding: 105 105 243
Width: 301
GlyphClass: 2
Flags: HW
HStem: 0 22<50 92.4777 202.288 247> 380 26<48 98.0774> 466 116<99.0959 189.41>
VStem: 85 118<480.187 568.019> 103 90<33.1921 377.641>
LayerCount: 2
Back
Fore
SplineSet
103 344 m 2xe8
 103 379 87 379 48 380 c 1
 48 406 l 1
 193 416 l 1
 193 64 l 2
 193 47 196 37 202 33 c 0
 208 26 223 22 247 21 c 1
 247 0 l 1
 50 0 l 1
 50 22 l 1
 84 22 103 30 103 64 c 2
 103 344 l 2xe8
85 524 m 0xf0
 85 555 112 582 144 582 c 0
 175 582 203 557 203 524 c 0
 203 493 176 466 144 466 c 0
 113 466 85 492 85 524 c 0xf0
EndSplineSet
EndChar
StartChar: roman_v
Encoding: 118 118 244
Width: 470
GlyphClass: 2
Flags: W
HStem: 389 22<33 64.6904 174.129 207 290 332.281 403.594 435>
LayerCount: 2
Back
Fore
SplineSet
341 348 m 0
 341 384.677795821 322.973491793 388.731788777 290 390 c 1
 290 411 l 1
 435 411 l 1
 435 388 l 1
 404.333333333 388 381 366 365 322 c 2
 245 -5 l 1
 220 -5 l 1
 85 345 l 2
 79 361 72.6666666667 371.666666667 66 377 c 0
 62 381 51 385 33 389 c 1
 33 411 l 1
 207 411 l 1
 207 389 l 1
 179.438359123 389 175.97353492 386.41398849 170 367 c 0
 168 359.666666667 170.333333333 346.666666667 177 328 c 2
 257 114 l 1
 335 319 l 2
 339 329.666666667 341 339.333333333 341 348 c 0
EndSplineSet
EndChar
StartChar: roman_x
Encoding: 120 120 245
Width: 462
GlyphClass: 2
Flags: HW
HStem: 0 22<25 62.4063 134.179 186 234 263.322 381.898 411> 388 24<30 59.6016 169.273 207 252 299.268 368.538 403>
LayerCount: 2
Back
Fore
SplineSet
124 50 m 0
 124 26 165 22 186 22 c 1
 186 0 l 1
 25 0 l 1
 25 22 l 1
 27 22 29 22 31 22 c 0
 58 22 79 45 95 67 c 2
 183 190 l 1
 80 352 l 2
 65 375 49 387 30 388 c 1
 30 412 l 1
 207 412 l 1
 207 389 l 1
 180 389 165 380 165 364 c 0
 165 357 168 349 174 340 c 2
 231 252 l 1
 287 331 l 2
 296 345 301 358 301 370 c 0
 301 382 286 386 252 387 c 1
 252 412 l 1
 403 412 l 1
 403 388 l 1
 390 387 376 381 362 372 c 0
 353 369 344 360 334 347 c 2
 246 232 l 1
 343 74 l 2
 356 53 368 39 385 31 c 0
 394 26 402 24 411 23 c 1
 411 0 l 1
 234 0 l 1
 234 26 l 1
 235 26 237 26 238 26 c 0
 258 26 269 32 269 45 c 0
 269 51 266 59 260 68 c 2
 197 166 l 1
 138 82 l 2
 129 69 124 59 124 50 c 0
EndSplineSet
EndChar
StartChar: brace_open
Encoding: 123 123 261
Width: 416
GlyphClass: 2
Flags: W
HStem: -36 23<292.282 315> 650 20<285.769 315>
VStem: 159 86<28.3333 239.455 376.59 603.178>
LayerCount: 2
Back
Fore
SplineSet
245 105 m 2
 245 38.0998875542 266.289050312 6.78882331058 315 -13 c 1
 315 -36 l 1
 295 -36 l 2
 265.666666667 -36 235.333333333 -24.6666666667 204 -2 c 0
 176.48861807 17.8693313936 159 74.6128299128 159 123 c 2
 159 184 l 2
 159 222 152 249.333333333 138 266 c 0
 121.333333333 285.333333333 89 298 41 304 c 1
 41 328 l 1
 87.6666666667 336 119.666666667 348.333333333 137 365 c 0
 151.666666667 379 159 407 159 449 c 2
 159 510 l 2
 159 564.666666667 173 603.666666667 201 627 c 0
 234.333333333 655 272.333333333 669.333333333 315 670 c 1
 315 650 l 1
 301 649.333333333 289.666666667 644.666666667 281 636 c 0
 278.333333333 634 271.333333333 626.166666667 260 612.5 c 0
 248.666666667 598.833333333 243 569.666666667 243 525 c 2
 243 466 l 2
 243 408.000917889 238.998614258 393.02280171 211.5 361.5 c 0
 197.833333333 345.833333333 180.333333333 335 159 329 c 0
 155 327.666666667 132.666666667 323.333333333 92 316 c 1
 150.666666667 304 186 290.666666667 198 276 c 0
 229.333333333 238 245 202.666666667 245 170 c 2
 245 105 l 2
EndSplineSet
EndChar
StartChar: brace_close
Encoding: 125 125 255
Width: 416
GlyphClass: 2
Flags: W
HStem: -36 23<97 119.692> 304 24<321.922 371> 650 20<97 126.231>
VStem: 167 86<27.1951 239.896 377.005 603.595>
LayerCount: 2
Back
Fore
SplineSet
97 -13 m 1
 145.743261728 6.80195007708 167 38.0682398228 167 105 c 2
 167 170 l 2
 167 203.333333333 182.666666667 238.666666667 214 276 c 0
 226.666666667 290.666666667 262 304 320 316 c 1
 279.333333333 323.333333333 257 327.333333333 253 328 c 0
 216.385918944 339.44190033 183.518911698 372.097323773 174 407 c 0
 170.666666667 419 169 438.666666667 169 466 c 2
 169 525 l 2
 169 569.666666667 163 598.333333333 151 611 c 0
 139.666666667 626.333333333 133.333333333 634.666666667 132 636 c 0
 122.666666667 644.666666667 111 649.333333333 97 650 c 1
 97 670 l 1
 139.666666667 669.333333333 177.666666667 655 211 627 c 0
 239 603.666666667 253 564.666666667 253 510 c 2
 253 449 l 2
 253 407 260.333333333 379 275 365 c 0
 292.333333333 348.333333333 324.333333333 336 371 328 c 1
 371 304 l 1
 323 298 290.666666667 285.333333333 274 266 c 0
 260 249.333333333 253 222 253 184 c 2
 253 123 l 2
 253 72.4864089078 236.33375333 17.3862522783 208 -2 c 0
 176 -24.6666666667 145.666666667 -36 117 -36 c 2
 97 -36 l 1
 97 -13 l 1
EndSplineSet
EndChar
StartChar: not_used_da_yansa
Encoding: 181 181 249
Width: 924
GlyphClass: 2
Flags: W
HStem: -234 30<372.259 409> 0 18<414.389 420.432> 294 23<221.422 343> 383 50<217.091 310.338> 405 26<427.812 520.163 697.364 793.308>
VStem: 249 70<-158.672 -66.9604> 641 31<318.076 384.083> 822 31<320 380.589>
LayerCount: 2
Back
Fore
SplineSet
286 294 m 2xf7
 250 294 216.666666667 285 186 267 c 0
 155.333333333 249 140 213.333333333 140 160 c 0
 140 84.2044028257 184.820735958 30.7596034308 255 27 c 0
 301 24.3333333333 344 46 384 92 c 1
 407 75 l 1
 388.333333333 56.3333333333 375.333333333 42 368 32 c 0
 350.666666667 0.666666666667 339 -23 333 -39 c 0
 323.666666667 -57.6666666667 319 -76.3333333333 319 -95 c 0
 319 -134.240073904 345.674352505 -176.337176253 375 -191 c 0
 381 -194.333333333 392.333333333 -198.666666667 409 -204 c 1
 409 -238 l 1
 395 -240.666666667 377 -242 355 -242 c 0
 331 -241.333333333 314.666666667 -238.666666667 306 -234 c 0
 268 -214 249 -183.333333333 249 -142 c 0
 249 -103.333333333 272.333333333 -52.6666666667 319 10 c 1
 283 2.66666666667 251.333333333 -1 224 -1 c 0
 202 -1 182.333333333 1.33333333333 165 6 c 0
 80.3333333333 29.3333333333 35.6666666667 80 31 158 c 0
 27.6666666667 220.666666667 51 266.666666667 101 296 c 0
 125 310 174 317 248 317 c 2
 343 317 l 1
 338.333333333 337.666666667 327.666666667 355.666666667 311 371 c 0
 297 383.666666667 275.666666667 387.666666667 247 383 c 0
 235.666666667 381 224.833333333 373.333333333 214.5 360 c 0
 204.166666667 346.666666667 191.666666667 339 177 337 c 0
 152.333333333 333 140 343.333333333 140 368 c 0
 140 372.666666667 140.666666667 377.333333333 142 382 c 0
 154.666666667 416 184.666666667 433 232 433 c 0
 317.739153659 433 360.904173939 389.003086822 379 294 c 1
 286 294 l 2xf7
578 267 m 0
 578 337.165658038 541.042225734 405 476 405 c 0
 460.666666667 405 444.333333333 401.333333333 427 394 c 1
 427 421 l 1
 444.333333333 427.666666667 461.333333333 431 478 431 c 0
 554.26461908 431 603.177408602 359.750166668 608 285 c 0
 612 231 602 179.666666667 578 131 c 1
 624 117.666666667 663.666666667 111 697 111 c 0
 715.666666667 111 732.666666667 113 748 117 c 0
 809.333333333 133.666666667 837.333333333 165.333333333 832 212 c 0
 828 247.333333333 802 268.666666667 754 276 c 0
 698.885437755 282.359372567 641 287.457569529 641 347 c 0
 641 403.17820252 685.211681378 428.93937903 746 431 c 0xef
 804.525547023 433.544589001 853 396.540407025 853 340 c 0
 853 333.333333333 852.333333333 326.666666667 851 320 c 1
 820 320 l 1
 821.333333333 326 822 332 822 338 c 0
 822 377.094239241 790.296984728 406 750 406 c 0
 713.638497608 406 672 387.373619304 672 352 c 0
 672 316.295937187 692.147409097 308.714032828 741 306 c 0
 783.666666667 302.666666667 814.333333333 294.333333333 833 281 c 0
 874.333333333 251 892.666666667 206 888 146 c 0
 881.149940072 62.429268883 807.15427392 6.65038853815 723 -1 c 0
 645.666666667 -7.66666666667 584.333333333 20 539 82 c 1
 507.985348228 46.9399588663 463.929238811 13.8888713799 421 0 c 1
 404 18 l 1
 491.851208762 51.9691340548 578 143.767875935 578 267 c 0
EndSplineSet
EndChar
StartChar: unknown_al
Encoding: 182 182 250
Width: 249
GlyphClass: 2
Flags: W
HStem: 0 21G<33 60> 242 105<99 161.637> 247 22<94 130.406>
VStem: 33 27<0 322>
LayerCount: 2
Back
Fore
SplineSet
221 325 m 0xb0
 221 267.568842592 190.273561451 242 131 242 c 0xd0
 118.333333333 242 106 243.666666667 94 247 c 1
 94 269 l 1xb0
 138.296943795 265.592542785 170.769211012 290.589779812 149 330.5 c 0
 143 341.5 133 347 119 347 c 0xd0
 79.6666666667 347 60 320.666666667 60 268 c 2
 60 0 l 1
 33 0 l 1
 33 269 l 2
 33 366.333333333 71.6666666667 412.666666667 149 408 c 0
 187.018108215 405.573312242 221 375.247652075 221 325 c 0xb0
EndSplineSet
EndChar
StartChar: unknown_8
Encoding: 183 183 251
Width: 255
GlyphClass: 2
Flags: HW
HStem: -3 85<67.4452 165.393> 245 28<98.8893 171.458>
VStem: 34 25<99.0545 123> 35 46<254.214 370.07> 35 34<233.094 269> 170 52<88.0751 158.836> 191 32<290.194 364.631>
LayerCount: 2
Back
Fore
SplineSet
143 408 m 0
 185 408 223 381 223 328 c 0
 223 275 195 245 142 245 c 0xd2
 107 245 101 251 69 269 c 1xca
 68 248 85 227 120 208 c 0
 171 179 198 164 199 163 c 0
 214 149 222 126 222 94 c 0
 222 31 182 -3 128 -3 c 0
 71 -3 30 39 30 96 c 0
 30 105 31 114 34 123 c 1
 59 123 l 1
 60 96 93 82 123 82 c 0
 148 82 170 97 170 122 c 0xe4
 170 143 153 161 118 177 c 0
 63 203 35 239 35 302 c 0
 35 370 76 408 143 408 c 0
136 381 m 0
 106 381 81 359 81 327 c 0xd2
 81 298 103 273 135 273 c 0
 164 273 191 295 191 327 c 0
 191 356 168 381 136 381 c 0
EndSplineSet
EndChar
StartChar: divide
Encoding: 247 247 241
Width: 448
GlyphClass: 2
Flags: W
HStem: 57 76<179.659 249.088> 182 52<50 375> 285 76<179.659 249.088>
VStem: 175 78<61.719 128.452 289.719 356.452>
LayerCount: 2
Back
Fore
SplineSet
50 182 m 1
 50 234 l 1
 375 234 l 1
 375 182 l 1
 50 182 l 1
175 322 m 0
 175 342.619342439 193.693577499 361 214 361 c 0
 235.150967005 361 253 344.176469203 253 323 c 0
 253 302.671736591 235.644825031 285 215 285 c 256
 194.429924277 285 175 301.667210676 175 322 c 0
175 94 m 0
 175 114.619342439 193.693577499 133 214 133 c 0
 235.150967005 133 253 116.176469203 253 95 c 0
 253 74.6717365908 235.644825031 57 215 57 c 256
 194.429924277 57 175 73.6672106756 175 94 c 0
EndSplineSet
EndChar
StartChar: top_white_circle
Encoding: 730 730 256
Width: 248
GlyphClass: 2
Flags: W
HStem: 547 26<80.2456 151.132> 683 28<78.5561 151.469>
VStem: 31 28<593.066 664.018> 172 27<593.07 662.687>
LayerCount: 2
Back
Fore
SplineSet
31 630 m 0
 31 676.198560499 72.08670564 711 117 711 c 0
 163.310265538 711 199 673.03151636 199 629 c 0
 199 583.605825814 159.638944 547 115 547 c 0
 69.1984928312 547 31 586.097108224 31 630 c 0
115 683 m 0
 86.0363495756 683 59 660.567819834 59 629 c 0
 59 599.827735793 82.6070322442 573 115 573 c 0
 144.780094494 573 172 594.991334454 172 627 c 0
 172 656.749106997 147.674254149 683 115 683 c 0
EndSplineSet
EndChar
StartChar: anusa
Encoding: 3458 3458 99
Width: 364
GlyphClass: 2
Flags: W
HStem: 25 79<116.486 229.91> 268 36<122.27 224.394>
VStem: 31 59<130.997 239.687> 257 58<131.393 238.984>
LayerCount: 2
Back
Fore
SplineSet
31 166 m 0
 31 245.662863239 96.9797810131 304 174 304 c 0
 254.258356515 304 315 240.291031798 315 164 c 0
 315 84.4947799155 251.991277569 25 175 25 c 0
 139.666666667 25 108.333333333 36.3333333333 81 59 c 0
 47.6666666667 86.3333333333 31 122 31 166 c 0
173 268 m 0
 128.133818021 268 90 232.816262252 90 186 c 0
 90 141.406765838 125.864562622 104 173 104 c 0
 218.123809462 104 257 137.902479453 257 185 c 0
 257 229.969858064 220.555105202 268 173 268 c 0
EndSplineSet
EndChar
StartChar: visar
Encoding: 3459 3459 100
Width: 248
GlyphClass: 2
Flags: W
HStem: 37 33<79.0473 152.33> 168 33<78.6495 152.155> 224 32<79.2737 151.646> 354 33<78.1561 151.675>
VStem: 32 33<83.7125 154.838 270.093 340.26> 165 34<82.995 155.474 268.717 341.101>
LayerCount: 2
Back
Fore
SplineSet
32 119 m 0
 32 165.203625762 72.1699002321 201 116 201 c 0
 162.0240367 201 199 162.539776076 199 119 c 0
 199 73.605825814 159.638944 37 115 37 c 0
 69.6217496996 37 32 75.4602239242 32 119 c 0
32 306 m 0
 32 351.80065952 70.7179984346 387 115 387 c 0
 160.671562595 387 199 350.040834401 199 306 c 0
 199 261.11403891 159.813624236 224 116 224 c 0
 69.8087330964 224 32 261.910608899 32 306 c 0
115 354 m 0
 88.5938566589 354 65 332.457514493 65 306 c 0
 65 279.02700686 87.2680710585 256 116 256 c 0
 142.835778549 256 165 277.531585669 165 305 c 0
 165 332.395146173 143.284216275 354 115 354 c 0
115 168 m 0
 88.5938566589 168 65 146.457514493 65 120 c 0
 65 93.02700686 87.2680710585 70 116 70 c 0
 142.835778549 70 165 91.5315856689 165 119 c 0
 165 146.395146173 143.284216275 168 115 168 c 0
EndSplineSet
EndChar
StartChar: v_a
Encoding: 3461 3461 101
Width: 573
GlyphClass: 2
Flags: W
HStem: 2 27<260.409 359 388 439.454> 200 29<388 448.022> 287 22<220.757 316> 332.5 100<130.094 191.603>
VStem: 33 119<87.6875 235.381> 316 31<309 360.789> 359 29<-215 0 29 206 229.821 379.442> 422 23<383.268 398>
LayerCount: 2
Back
Fore
SplineSet
268 287 m 2
 198.979294657 287 152 228.732020834 152 160 c 0
 152 88.6666666667 194 44.6666666667 278 28 c 0
 300.666666667 23.3333333333 327.666666667 23.3333333333 359 28 c 1
 359 313 l 2
 359 378.915321361 391.334794457 422.289278522 439 435 c 1
 462 424 l 1
 450.666666667 420 445 413 445 403 c 0
 445 399.666666667 446.166666667 396 448.5 392 c 0
 450.833333333 388 463.5 376 486.5 356 c 0
 525.723282029 321.892798236 546.082553922 266.548734879 501.5 226.5 c 0
 481.833333333 208.833333333 457.333333333 200 428 200 c 0
 414.666666667 200 401.333333333 202 388 206 c 1
 388 29 l 1
 437.254019293 36.9871382637 482.254019293 54.9871382637 523 83 c 1
 523 51 l 1
 487.358974359 29.6153846154 442.358974359 13.2820512821 388 2 c 1
 388 -215 l 1
 359 -215 l 1
 359 0 l 1
 322.333333333 -4 289 -5.33333333333 259 -4 c 0
 112.333333333 4 37 55.6666666667 33 151 c 0
 28.2040375201 251.715212078 97.7847633904 309 206 309 c 2
 316 309 l 1
 314.666666667 348.333333333 298.666666667 374 268 386 c 0
 213.156425293 408.343678584 200.669623869 339.924712888 154 332.5 c 0
 127.563847366 328.294248445 108 345.061142129 108 368.5 c 0
 108 378.833333333 110.333333333 387.666666667 115 395 c 0
 131.666666667 419 162.166666667 431.5 206.5 432.5 c 0
 295.792651671 434.514119963 348.315445714 376.450308519 347 287 c 1
 268 287 l 2
422 398 m 1
 399.333333333 386.666666667 388 359.666666667 388 317 c 2
 388 233 l 1
 396 230.333333333 405.5 229 416.5 229 c 0
 446.124761984 229 461.918088511 254.279858726 463.5 287.5 c 0
 465.426145849 327.949062831 443.072232273 352.083319628 427 374 c 0
 423 381.333333333 421.333333333 389.333333333 422 398 c 1
EndSplineSet
EndChar
StartChar: v_aa
Encoding: 3462 3462 102
Width: 839
GlyphClass: 2
Flags: W
HStem: -1 21G<627.294 704.667> 2 27<260.409 359 388 439.454> 200 29<388 448.022> 287 22<220.757 316> 332.5 100<130.094 191.603> 354 47<602.846 687.454>
VStem: 33 119<87.6875 235.381> 316 31<309 360.789> 359 29<-215 0 29 206 229.821 379.442> 422 23<383.268 398> 550 26<109.344 131 256 315.142> 709 88<77.5273 330.224>
LayerCount: 2
Back
Fore
SplineSet
658 354 m 4xb7f0
 604.000777897 354 572.78081324 312.106257675 578 256 c 5
 550 256 l 5
 544.797746816 335.334361051 594.383148806 399.649699086 670 401 c 4
 767.107036595 402.517297447 799.296113259 306.91732319 797 199 c 0
 793.666666667 65.6666666667 748.333333333 -1 661 -1 c 0
 593.587662575 -1 549 40.8525703542 549 109 c 4
 549 116.333333333 549.333333333 123.666666667 550 131 c 5
 576 131 l 5
 569.160887784 80.3905696006 600.681055598 49.573274689 647 47 c 0
 687 44.3333333333 707.666666667 93.6666666667 709 195 c 4
 710.333333333 301 693.333333333 354 658 354 c 4xb7f0
EndSplineSet
Refer: 101 3461 N 1 0 0 1 0 0 2
EndChar
StartChar: v_ae
Encoding: 3463 3463 103
Width: 875
GlyphClass: 2
Flags: HW
HStem: -136 63<751.147 815.501> 2 27<260.409 359 388 439.454> 200 29<388 448.022> 287 22<220.757 316> 324 26<540 748> 332 100<130.094 191.603>
VStem: 33 119<87.6875 235.381> 316 31<309 360.789> 359 29<-215 0 29 206 229.821 379.442> 422 23<383.268 398> 621 77<-16.1776 142.027>
LayerCount: 2
Back
Fore
SplineSet
748 -136 m 0
 663 -136 621 -68 621 19 c 0
 621 80 636 136 664 194 c 0
 693 253 721 297 748 324 c 1
 540 324 l 1
 540 350 l 1
 786 350 l 1
 785 348 784 343 783 334 c 1
 726 251 698 168 698 84 c 0xfbe0
 698 -17 736 -73 837 -73 c 1
 834 -77 845 -87 842 -90 c 0
 815 -121 784 -136 748 -136 c 0
EndSplineSet
Refer: 101 3461 N 1 0 0 1 0 0 2
EndChar
StartChar: v_aee
Encoding: 3464 3464 104
Width: 879
GlyphClass: 2
Flags: HW
HStem: -135 48<778.062 841> 2 27<260.409 359 388 439.454> 200 29<388 448.022> 209 22<651 772> 287 22<220.757 316> 325 24<544 745> 332 100<130.094 191.603>
VStem: 33 119<87.6875 235.381> 316 31<309 360.789> 359 29<-215 0 29 206 229.821 379.442> 422 23<383.268 398>
LayerCount: 2
Back
Fore
SplineSet
767 -135 m 0xdde0
 678 -135 632 -83 632 2 c 0
 632 10 632 18 633 26 c 0
 637 65 658 105 696 147 c 0
 723 178 749 198 772 209 c 1
 604 209 l 1
 604 228 l 1
 745 325 l 1
 544 325 l 1
 544 349 l 1
 789 349 l 1
 789 327 l 1
 651 231 l 1
 809 231 l 1
 809 211 l 1
 796 204 777 183 754 149 c 0
 735 121 726 87 726 45 c 0
 726 -28 767 -78 841 -87 c 1
 845 -114 l 1
 823 -128 797 -135 767 -135 c 0xdde0
EndSplineSet
Refer: 101 3461 S 1 0 0 1 0 0 2
EndChar
StartChar: v_i
Encoding: 3465 3465 105
Width: 593
GlyphClass: 2
Flags: W
HStem: -13 23<238 309.596> 52 29<156.013 265> 313 119<167.555 394.42>
VStem: 33 60<137.17 249.762> 173 67<-126.256 -41.75> 202 38<120.022 196.124> 339 38<120.161 196.139> 355 84<-121.465 -37.8076> 486 58<100.512 233.002>
LayerCount: 2
Back
Fore
SplineSet
240 -66 m 0xf980
 240 -71.0578463618 234 -85.5561679576 234 -91 c 0
 234 -120.819228841 269.444724829 -136.488065197 302 -133 c 0
 338.666666667 -129 356.333333333 -112 355 -82 c 0xf980
 352.333333333 -36.6666666667 313.333333333 -13.6666666667 238 -13 c 1
 238 15 l 1
 261.333333333 11.6666666667 283.333333333 10 304 10 c 0
 344 10 379.666666667 16.6666666667 411 30 c 0
 459 50.6666666667 484 91 486 151 c 0
 489.198136696 253.340374286 403.933217659 308.568120971 302 313 c 0
 192.666666667 317.666666667 125 287.333333333 99 222 c 0
 95 212.666666667 93 202 93 190 c 0
 93 156.666666667 104 131 126 113 c 0
 153.333333333 90.3333333333 184 79.6666666667 218 81 c 0
 228.666666667 81 244.333333333 82.3333333333 265 85 c 1
 231.846898446 88.1574382432 202 122.679136687 202 158 c 0
 202 210.783226381 246.569058721 245.597689852 301 239 c 0
 345.517829077 233.912248105 377 200.455007061 377 152 c 0xf680
 377 103.333333333 342 71.6666666667 272 57 c 0
 256 53.6666666667 239.666666667 52 223 52 c 0
 123.697171574 52 35.8587187138 112.80356373 33 210 c 0
 28.8582136739 357.723712296 144.207231821 438.355073065 298 432 c 0
 452.168394121 425.467440927 544 347.719842219 544 191 c 0
 544 91.1058246162 469.139707644 9.47994684441 384 -6 c 1
 420 -13.3333333333 438.333333333 -35.6666666667 439 -73 c 0
 440.355306688 -129.92288091 371.741087151 -157.469121369 311 -160 c 0
 248.333333333 -162.666666667 205.333333333 -147 182 -113 c 0
 176 -105 173 -95 173 -83 c 0
 173 -53.6666666667 185.666666667 -39 211 -39 c 0
 224.926401662 -39 240 -52.3237781719 240 -66 c 0xf980
289 207 m 0
 261.361274064 207 240 184.67112343 240 158 c 0
 240 129.830502653 262.507179577 109 290 109 c 0
 316.763880196 109 339 131.871631043 339 158 c 0xf680
 339 186.169497347 316.492820423 207 289 207 c 0
EndSplineSet
EndChar
StartChar: v_ii
Encoding: 3466 3466 106
Width: 528
GlyphClass: 2
Flags: HW
HStem: 0 106<152.692 335.478> 403 27<417.865 476.005> 474 27<156.135 213.887> 505 27<417.288 476.521> 576 27<154.831 214.274>
VStem: 31 51<175.379 309.312> 117 28<511.117 566.63> 224 25<511.71 565.061> 381 27<439.853 495.418> 413 69<187.794 320.291> 486 26<440.862 494.988>
LayerCount: 2
Back
Fore
SplineSet
117 540 m 0
 117 573 147 603 181 603 c 256
 217 603 249 574 249 538 c 0
 249 503 219 474 184 474 c 0
 147 474 117 503 117 540 c 0
248 0 m 0
 124 0 31 89 31 213 c 0
 31 267 46 311 75 346 c 0
 104 381 138 407 177 426 c 0
 220 447 265 479 311 520 c 0
 318 527 331 543 349 568 c 0
 367 593 380 610 389 617 c 0
 394 621 400 623 407 623 c 0
 424 623 433 617 433 604 c 0
 433 585 412 558 371 523 c 0
 332 490 291 462 248 437 c 1
 253 438 259 438 265 438 c 0
 274 438 283 437 293 435 c 0
 398 425 482 339 482 225 c 0
 482 155 452 96 393 47 c 0
 355 16 307 0 248 0 c 0
82 254 m 0
 82 159 151 106 245 106 c 0
 296 106 336 121 364 150 c 0
 397 184 413 223 413 268 c 0
 413 305 401 338 378 366 c 0
 352 398 314 414 264 414 c 0
 174 414 82 351 82 254 c 0
381 468 m 0
 381 502 410 532 445 532 c 256
 481 532 512 503 512 467 c 0
 512 432 484 403 448 403 c 0
 412 403 381 432 381 468 c 0
184 576 m 0
 164 576 145 560 145 540 c 0
 145 519 164 501 185 501 c 256
 206 501 224 518 224 539 c 256
 224 560 205 576 184 576 c 0
447 505 m 0
 426 505 408 489 408 468 c 256
 408 447 426 430 447 430 c 256
 468 430 486 448 486 468 c 0
 486 489 467 505 447 505 c 0
EndSplineSet
EndChar
StartChar: v_u
Encoding: 3467 3467 107
Width: 651
GlyphClass: 2
Flags: HW
HStem: 271 25<271.547 507> 384 48<363.031 461.28>
VStem: 32 126<6.21497 184.475> 507 32<296 341.664> 574 29<2.58658 69>
LayerCount: 2
Back
Fore
SplineSet
603 69 m 5
 605 -74 469 -161 320 -161 c 0
 252 -161 190 -139 132 -96 c 4
 67 -47 32 18 32 102 c 0
 32 190 82 249 152 278 c 4
 182 290 212 296 241 296 c 6
 507 296 l 5
 505 347 461 384 413 384 c 4
 384 384 370 371 354 354 c 4
 340 339 325 331 312 331 c 4
 291 331 267 344 267 362 c 4
 267 369 268 374 269 378 c 4
 281 414 316 432 372 432 c 0
 466 432 539 367 539 276 c 0
 539 274 539 273 539 271 c 5
 347 271 l 6
 290 271 243 254 208 220 c 4
 174 188 158 149 158 104 c 0
 158 37 181 -15 224 -50 c 4
 266 -85 322 -105 378 -105 c 0
 427 -105 475 -89 514 -58 c 4
 554 -26 573 16 574 69 c 5
 603 69 l 5
EndSplineSet
EndChar
StartChar: v_uu
Encoding: 3468 3468 108
Width: 966
GlyphClass: 2
Flags: W
HStem: 5 43<708.567 792.415> 219 37<608.545 695.585> 271 25<271.547 507> 384 48<363.031 461.28> 399 40<721.822 799.906>
VStem: 32 126<6.21497 184.475> 507 32<296 341.664> 558 29<283.264 402.725> 574 29<2.58658 69> 659 27<83.1509 164> 708 46<265.307 340.741> 822 96<113.133 352.345>
LayerCount: 2
Back
Fore
SplineSet
754 295 m 0xef70
 754 244.91743758 707.468412881 217.371986681 657 219 c 0
 598.637477405 220.326420968 558 268.449684925 558 328 c 0
 558 376.666666667 570.333333333 412.333333333 595 435 c 1
 630 435 l 1
 601.333333333 417 587 381.666666667 587 329 c 0
 587 286.247665965 614.842515226 256 657 256 c 0
 684.765529007 256 708 278.209152174 708 306 c 0
 708 319.333333333 702.333333333 332 691 344 c 1
 687.666666667 374.666666667 697 400 719 420 c 0
 733 432.666666667 758.333333333 439 795 439 c 0
 880.549605304 439 919.178789029 322.481911373 918 227 c 0
 916.755397526 117.474982298 865.828119251 5 764 5 c 0
 699.191647156 5 659 60.985434109 659 127 c 0
 659 139 660.333333333 151.333333333 663 164 c 1
 689 164 l 1
 687 154.666666667 686 145.666666667 686 137 c 0
 686 91.2066246638 710.862765677 48 754 48 c 0
 786.222495688 48 799.70251783 69.0569058421 811 115 c 0
 819 149.666666667 822.666666667 192.333333333 822 243 c 0
 820 347 804.666666667 399 776 399 c 0
 733.761350131 399 715.609917412 390.63140399 718 350 c 1
 742 337.333333333 754 319 754 295 c 0xef70
EndSplineSet
Refer: 107 3467 N 1 0 0 1 0 0 2
EndChar
StartChar: v_iru
Encoding: 3469 3469 109
Width: 891
GlyphClass: 2
Flags: W
HStem: -1 117<110.362 263.355 363.606 526.885> 14 30<659.541 774> 193 27<691.687 760> 323 109<92.572 154.486> 354 39<669.002 739.692>
VStem: 297 32<145.619 198> 521 38<306.594 375.699> 614 31<56.5942 156.398 242 324.883> 757 88<43.0342 193 220 313.519>
LayerCount: 2
Back
Fore
SplineSet
260 308 m 1xb780
 255.980421639 356.234940327 246.7626779 380.290883186 199 379 c 0
 179 379 165 369.333333333 157 350 c 0
 149 330.666666667 131 321.666666667 103 323 c 0
 81 324.333333333 69.3333333333 336 68 358 c 0
 64.9010541809 410.682078925 123.544428088 437.632899207 181 432 c 0
 257.240431745 424.50094114 296.613237789 366.005185724 291 279 c 1
 239 281.666666667 205 282 189 280 c 0
 132.882301087 274.030032031 78.2105308703 244.894691297 84 187 c 0
 88 139.666666667 126.666666667 116 200 116 c 0
 240.562029851 116 297 134.234522459 297 171 c 2
 297 198 l 1
 329 198 l 1
 329 171 l 2
 329 134.419670975 406.644874983 116 450 116 c 0
 509.367445417 116 559 141.857311595 559 198 c 0
 559 295.83458041 423.34345763 298.253523757 333 279 c 1
 327.303489796 365.871780606 371.359415878 427.00694704 450 432 c 0
 507.333333333 435.333333333 543 413 557 365 c 0
 558.333333333 359.666666667 559 354.333333333 559 349 c 0
 559 327.614684132 545.001845726 301.364139743 529 297 c 1
 575.666666667 274.333333333 601.666666667 234.666666667 607 178 c 0
 611.666666667 130.666666667 598.166666667 89.1666666667 566.5 53.5 c 0
 534.833333333 17.8333333333 494 0 444 0 c 0
 380 0 336 27.3333333333 312 82 c 1
 291.333333333 26.6666666667 246.666666667 -1 178 -1 c 0
 135.333333333 -1 100.166666667 14.3333333333 72.5 45 c 0
 44.8333333333 75.6666666667 31 111.666666667 31 153 c 0
 31 161.666666667 31.6666666667 170.333333333 33 179 c 0
 49.7104742739 278.218441001 130.55548497 320.584883406 260 308 c 1xb780
521 340 m 0
 521 372.625925222 486.280117995 392 451 392 c 0
 397 392 368.333333333 364.666666667 365 310 c 1
 383 314 406.333333333 316 435 316 c 0
 465.666666667 315.333333333 489.333333333 312 506 306 c 1
 516 316.666666667 521 328 521 340 c 0
724 393 m 0x6f80
 810.89642196 393 846.199787127 288.182757305 845 191 c 0
 845 168.333333333 842.166666667 138.166666667 836.5 100.5 c 0
 830.833333333 62.8333333333 828 37 828 23 c 0
 828 15.6666666667 828.333333333 9 829 3 c 1
 788 3 l 1
 782.666666667 10.3333333333 777 14 771 14 c 0
 768.333333333 14 760 11.3333333333 746 6 c 0
 674.702068182 -21.161116883 614 34.3337132009 614 106 c 0
 614 153.333333333 636 186.333333333 680 205 c 0
 703.333333333 215 730.333333333 220 761 220 c 1
 757 270 754.333333333 299 753 307 c 0
 745.666666667 339 732 354.666666667 712 354 c 0
 662.1149926 352.687236647 635.054683137 297.234436083 639 242 c 1
 614 242 l 1
 611.542036097 321.883826858 647.442785342 393 724 393 c 0x6f80
645 106 m 0
 645 54.5757714935 683.915385682 18.7661542727 734.5 39 c 0
 742.833333333 42.3333333333 748.666666667 44 752 44 c 0
 754.666666667 44 758 43.3333333333 762 42 c 1
 758.666666667 64 757 90 757 120 c 0
 757 130.666666667 758 155 760 193 c 1
 750.666666667 193 732.333333333 190.333333333 705 185 c 1
 667.610126543 173.862590885 645 148.963452151 645 106 c 0
EndSplineSet
EndChar
StartChar: v_iruu
Encoding: 3470 3470 110
Width: 1140
GlyphClass: 2
Flags: W
HStem: -1 117<110.362 263.355 363.606 526.885> 14 30<659.541 774 908.997 1021.33> 193 27<691.687 760 933.723 1007> 323 109<92.572 154.486> 354 39<669.002 739.692 914.101 991.284>
VStem: 297 32<145.619 198> 521 38<306.594 375.699> 614 31<56.5942 156.398 242 324.883> 757 88<43.0342 193 220 313.519> 862 31<59.1567 160.104> 862 24<244 310.212> 1004 88<44.9727 195 222 318.914>
LayerCount: 2
Back
Fore
SplineSet
260 308 m 1xb790
 255.980421639 356.234940327 246.7626779 380.290883186 199 379 c 0
 179 379 165 369.333333333 157 350 c 0
 149 330.666666667 131 321.666666667 103 323 c 0
 81 324.333333333 69.3333333333 336 68 358 c 0
 64.9010541809 410.682078925 123.544428088 437.632899207 181 432 c 0
 257.240431745 424.50094114 296.613237789 366.005185724 291 279 c 1
 239 281.666666667 205 282 189 280 c 0
 132.882301087 274.030032031 78.2105308703 244.894691297 84 187 c 0
 88 139.666666667 126.666666667 116 200 116 c 0
 240.562029851 116 297 134.234522459 297 171 c 2
 297 198 l 1
 329 198 l 1
 329 171 l 2
 329 134.419670975 406.644874983 116 450 116 c 0
 509.367445417 116 559 141.857311595 559 198 c 0
 559 295.83458041 423.34345763 298.253523757 333 279 c 1
 327.303489796 365.871780606 371.359415878 427.00694704 450 432 c 0
 507.333333333 435.333333333 543 413 557 365 c 0
 558.333333333 359.666666667 559 354.333333333 559 349 c 0
 559 327.614684132 545.001845726 301.364139743 529 297 c 1
 575.666666667 274.333333333 601.666666667 234.666666667 607 178 c 0
 611.666666667 130.666666667 598.166666667 89.1666666667 566.5 53.5 c 0
 534.833333333 17.8333333333 494 0 444 0 c 0
 380 0 336 27.3333333333 312 82 c 1
 291.333333333 26.6666666667 246.666666667 -1 178 -1 c 0
 135.333333333 -1 100.166666667 14.3333333333 72.5 45 c 0
 44.8333333333 75.6666666667 31 111.666666667 31 153 c 0
 31 161.666666667 31.6666666667 170.333333333 33 179 c 0
 49.7104742739 278.218441001 130.55548497 320.584883406 260 308 c 1xb790
521 340 m 0
 521 372.625925222 486.280117995 392 451 392 c 0
 397 392 368.333333333 364.666666667 365 310 c 1
 383 314 406.333333333 316 435 316 c 0
 465.666666667 315.333333333 489.333333333 312 506 306 c 1
 516 316.666666667 521 328 521 340 c 0
724 393 m 0x6f90
 810.89642196 393 846.199787127 288.182757305 845 191 c 0
 845 168.333333333 842.166666667 138.166666667 836.5 100.5 c 0
 830.833333333 62.8333333333 828 37 828 23 c 0
 828 15.6666666667 828.333333333 9 829 3 c 1
 788 3 l 1
 782.666666667 10.3333333333 777 14 771 14 c 0
 768.333333333 14 760 11.3333333333 746 6 c 0
 674.702068182 -21.161116883 614 34.3337132009 614 106 c 0
 614 153.333333333 636 186.333333333 680 205 c 0
 703.333333333 215 730.333333333 220 761 220 c 1
 757 270 754.333333333 299 753 307 c 0
 745.666666667 339 732 354.666666667 712 354 c 0
 662.1149926 352.687236647 635.054683137 297.234436083 639 242 c 1
 614 242 l 1
 611.542036097 321.883826858 647.442785342 393 724 393 c 0x6f90
645 106 m 0
 645 54.5757714935 683.915385682 18.7661542727 734.5 39 c 0
 742.833333333 42.3333333333 748.666666667 44 752 44 c 0
 754.666666667 44 758 43.3333333333 762 42 c 1
 758.666666667 64 757 90 757 120 c 0
 757 130.666666667 758 155 760 193 c 1
 750.666666667 193 732.333333333 190.333333333 705 185 c 1
 667.610126543 173.862590885 645 148.963452151 645 106 c 0
972 395 m 0
 1058.64085721 395 1093.1857364 290.230384629 1092 193 c 0
 1092 170.333333333 1089.33333333 140.166666667 1084 102.5 c 0
 1078.66666667 64.8333333333 1076 39.3333333333 1076 26 c 0
 1076 18 1076.33333333 11 1077 5 c 1
 1036 5 l 1
 1030.66666667 12.3333333333 1024.66666667 16 1018 16 c 0
 1015.33333333 16 1007 13.3333333333 993 8 c 0
 933.294711693 -14.7448717359 877.837941218 25.9571006696 866 75 c 0
 863.333333333 86.3333333333 862 97.6666666667 862 109 c 0x27d0
 862 155 884 187.666666667 928 207 c 0
 951.333333333 217 978.333333333 222 1009 222 c 1
 1003.66666667 275.333333333 1000.66666667 304.333333333 1000 309 c 0
 993.333333333 341 980 356.666666667 960 356 c 0
 909.954672828 354.683017706 882.008741127 299.87762422 886 244 c 1
 862 244 l 1x27b0
 859.523612065 324.482607901 894.530682559 395 972 395 c 0
893 109 m 0
 893 70.1203413691 916.471009513 32.1460007047 955 35 c 0
 964.333333333 35.6666666667 973.166666667 37.6666666667 981.5 41 c 0
 989.833333333 44.3333333333 996 46 1000 46 c 0
 1002.66666667 46 1006 45.3333333333 1010 44 c 1x67d0
 1006 64.6666666667 1004 90.6666666667 1004 122 c 0
 1004 132.666666667 1005 157 1007 195 c 1
 997.666666667 195 979.333333333 192.333333333 952 187 c 0
 913.405976985 175.743409954 893 152.545240315 893 109 c 0
EndSplineSet
EndChar
StartChar: v_ilu
Encoding: 3471 3471 111
Width: 805
GlyphClass: 2
Flags: HW
HStem: 0 115<253.429 541.212> 78 29<107.923 150.721 637.243 682.898> 280 25<237.865 341.805>
VStem: 31 31<127.985 346.137> 136 51<159.451 239.046> 190 32<426.312 451.894> 342 30<305.262 368.701> 408 30<304.342 370.4> 569 27<406.194 451.018> 591 30<302.254 380.373> 603 49<160.166 245.375>
LayerCount: 2
Back
Fore
SplineSet
156 53 m 0
 156 67 144 78 131 78 c 4x7f
 118 78 105 66 105 53 c 0
 105 39 118 28 131 28 c 4
 145 28 156 40 156 53 c 0
591 342 m 4x3f40
 591 379 562 401 523 401 c 0
 476 401 438 373 438 327 c 4
 438 320 439 312 441 304 c 5
 462 305 476 306 488 306 c 0
 513 306 528 303 569 295 c 5x3f80
 584 308 591 323 591 342 c 4x3f40
635 53 m 0
 635 37 649 28 661 28 c 4
 676 28 686 39 686 53 c 4
 686 66 673 78 661 78 c 4x7f
 644 78 635 66 635 53 c 0
618 452 m 0
 603 452 596 445 596 428 c 4x3fa0
 596 418 599 407 605 395 c 5
 616 384 621 366 621 340 c 4x3f40
 621 316 612 297 593 284 c 5
 632 256 652 217 652 166 c 0
 652 139 647 117 637 101 c 5
 644 106 652 108 661 108 c 4
 680 108 695 100 704 84 c 5
 720 138 730 193 730 246 c 0
 730 302 719 355 693 398 c 4
 672 434 647 452 618 452 c 0
342 323 m 4
 342 362 325 382 289 382 c 0
 273 382 262 376 255 365 c 4
 239 338 235 323 201 323 c 4
 177 323 159 340 159 363 c 4
 159 377 167 391 182 404 c 5
 187 413 190 423 190 435 c 4
 190 448 186 452 176 452 c 0
 108 452 67 349 63 277 c 4
 62 262 62 249 62 236 c 4
 62 184 72 132 92 80 c 5
 101 98 114 107 130 107 c 4x7f
 137 107 144 106 151 103 c 5
 141 120 136 144 136 173 c 0
 136 242 195 291 259 301 c 4
 276 304 303 305 340 305 c 5
 341 311 342 317 342 323 c 4
256 432 m 0
 332 432 372 393 372 324 c 4
 372 310 370 295 366 280 c 5
 310 280 278 279 270 278 c 4
 232 272 187 245 187 205 c 4
 187 198 188 192 191 185 c 4
 209 138 279 115 401 115 c 4
 517 115 583 140 599 189 c 4
 602 196 603 204 603 211 c 4xbfa0
 603 268 534 282 458 282 c 0
 443 282 429 282 414 281 c 5
 410 295 408 309 408 322 c 4
 408 391 459 431 530 432 c 4
 549 432 563 429 573 422 c 5
 570 429 569 436 569 443 c 4
 569 467 584 479 616 479 c 0
 668 479 704 449 731 390 c 4
 751 345 761 296 761 243 c 4
 761 156 732 2 658 2 c 0
 630 2 608 24 608 52 c 0
 608 55 609 58 609 61 c 5
 564 20 494 0 401 0 c 4
 302 0 230 20 184 61 c 5
 184 58 185 56 185 53 c 0
 185 25 161 2 134 2 c 0
 60 2 31 154 31 240 c 4
 31 348 77 479 175 479 c 0
 206 479 222 467 222 444 c 4
 222 439 221 433 219 426 c 5
 230 430 243 432 256 432 c 0
EndSplineSet
EndChar
StartChar: v_e
Encoding: 3473 3473 113
Width: 595
GlyphClass: 2
Flags: HW
HStem: 0 115<157.67 401.114> 289 26<16 124 149.407 260> 359 36<338.415 436.678> 386 46<161.375 241.04>
VStem: 260 35<315 365.462> 283 30<424.778 550.213>
LayerCount: 2
Back
Fore
SplineSet
46 171 m 0
 46 226 83 275 124 289 c 1
 16 289 l 1
 16 315 l 1
 260 315 l 1xe8
 261 348 236 386 204 386 c 0
 188 386 170 376 150 355 c 0
 141 345 124 339 109 339 c 0
 92 339 77 347 77 369 c 0
 77 411 109 432 173 432 c 0
 174 432 174 432 175 432 c 0
 252 432 294 366 295 288 c 1xd8
 204 288 l 2
 156 288 94 257 94 210 c 0
 94 207 94 204 95 201 c 0
 107 128 184 115 280 115 c 0
 401 115 486 162 503 267 c 0
 504 276 505 286 505 295 c 0
 505 340 493 378 470 411 c 1
 455 378 426 359 382 359 c 0
 322 359 283 414 283 474 c 0
 283 528 297 569 325 597 c 1
 386 566 456 492 493 428 c 0
 527 371 545 307 545 246 c 0
 545 176 520 110 468 63 c 0
 421 21 363 0 290 -0 c 0
 156 0 46 50 46 171 c 0
313 484 m 0xe4
 313 429 337 395 389 395 c 0
 422 395 442 409 451 438 c 1
 438 461 420 483 398 504 c 0
 387 516 365 535 334 560 c 1
 320 544 313 519 313 484 c 0xe4
EndSplineSet
EndChar
StartChar: v_o
Encoding: 3476 3476 116
Width: 636
GlyphClass: 2
Flags: HW
HStem: 0 115<335.704 474.539> 291 30<285.879 352.262> 408 26<287.547 348.552> 555 23<206.324 381.528>
VStem: 170 29<300.404 383.79> 290 26<142.387 201> 363 29<332.908 365> 548 42<202.057 384.807>
LayerCount: 2
Back
Fore
SplineSet
408 115 m 4
 496 115 548 206 548 299 c 0
 548 362 530 417 493 466 c 4
 447 526 385 555 302 555 c 0
 196 555 142 528 92 466 c 5
 62 466 l 5
 93 509 129 539 170 556 c 4
 205 571 250 578 306 578 c 0
 397 578 466 546 520 477 c 4
 567 416 590 342 590 254 c 4
 590 190 578 135 555 88 c 4
 525 29 481 0 422 0 c 4
 371 0 318 20 305 55 c 5
 285 18 248 0 196 -0 c 0
 137 0 99 25 67 80 c 4
 43 122 30 169 30 222 c 0
 30 318 65 432 150 432 c 4
 183 432 199 410 199 367 c 0
 199 362 199 357 199 352 c 0
 199 299 240 254 293 254 c 0
 340 254 372 273 389 311 c 4
 392 318 394 328 394 340 c 0
 394 347 393 356 392 365 c 5
 393 324 359 291 318 291 c 4
 275 291 243 319 243 360 c 0
 243 402 278 434 321 434 c 0
 381 434 422 399 422 340 c 0
 422 274 365 226 299 226 c 0
 230 226 170 275 170 344 c 4
 170 375 170 390 171 390 c 0
 171 390 172 388 172 383 c 5
 170 400 162 406 145 406 c 0
 95 406 69 329 69 275 c 0
 69 193 99 143 159 124 c 4
 178 118 195 115 211 115 c 0
 257 115 290 141 290 175 c 6
 290 201 l 5
 316 201 l 5
 316 174 l 6
 316 147 336 128 377 119 c 4
 388 116 398 115 408 115 c 4
318 408 m 4
 294 408 274 389 274 365 c 4
 274 340 295 321 319 321 c 4
 344 321 363 339 363 365 c 4
 363 389 343 408 318 408 c 4
EndSplineSet
EndChar
StartChar: v_oo
Encoding: 3477 3477 117
Width: 636
GlyphClass: 2
Flags: W
HStem: 0 115<335.704 476.491> 291 30<285.879 352.262> 408 26<287.547 348.552> 442 32<42 81.1819> 491 28<166.851 393>
VStem: 98 41<526.363 567.812> 171 28<301.448 384.995> 290 26<142.387 201> 363 29<332.908 365> 540 50<189.777 376.625>
LayerCount: 2
Back
Fore
SplineSet
165 510 m 1
 204.333333333 519.333333333 253.333333333 522.333333333 312 519 c 0
 373.333333333 515.666666667 420 504.666666667 452 486 c 0
 489.333333333 464.666666667 515.666666667 442.333333333 531 419 c 1
 510.59281138 489.149710883 470.12754983 537.63169695 403 567 c 0
 371 581 340.666666667 588.666666667 312 590 c 0
 238.666666667 594 186.666666667 586 156 566 c 0
 144.666666667 558.666666667 139 551.333333333 139 544 c 0
 139 535.333333333 145 529.666666667 157 527 c 0
 166.333333333 525 169 519.333333333 165 510 c 1
409 115 m 0
 492.371345107 115 541.276553935 197.917778517 540 286 c 0
 538.770652067 363.448919794 498.232975043 431.61639052 444 458 c 0
 401.333333333 478.666666667 351.666666667 489.666666667 295 491 c 0
 181.576807405 494.107484729 130.673354549 478.947231062 42 442 c 1
 42 474 l 1
 56.4978665608 478.676731149 130.75793523 499.312172721 126 512 c 1
 117.568457477 516.818024299 98 529.608753983 98 543 c 0
 98 551.666666667 102.666666667 561.666666667 112 573 c 0
 148.093313648 615.108865923 256.320642124 632.811031748 344 617 c 0
 456.871331803 595.11678261 524.753521469 531.964083447 557 432 c 0
 562.333333333 407.333333333 568 382.666666667 574 358 c 1
 584.666666667 333.333333333 590 297.666666667 590 251 c 0
 590 188.333333333 578 133.666666667 554 87 c 0
 523.333333333 29 479.333333333 0 422 0 c 0
 371.235877345 0 318.000119526 19.8996772804 305 55 c 1
 283 15 242.333333333 -3.33333333333 183 0 c 0
 135 2.66666666667 96.3333333333 29.3333333333 67 80 c 0
 39.6666666667 127.333333333 27.6666666667 181.333333333 31 242 c 0
 35.737123602 329.636786638 69.917643748 432 150 432 c 0
 185.333333333 432 201.666666667 407 199 357 c 0
 196.322235437 300.766944174 238.698856973 252.690671092 295 254 c 0
 341 254.666666667 372.333333333 273.666666667 389 311 c 0
 394.333333333 323 395.333333333 341 392 365 c 1
 393.36304538 324.108638605 359.087760818 291 318 291 c 0
 271.508744604 291 237.264499104 324.851493731 244 372 c 256
 248.514273809 403.599916666 279.186425795 432.417564809 314 434 c 0
 379.627849898 436.853384778 424.515009058 399.13273097 422 335 c 0
 419.749620428 235.983298854 283.503818851 192.362104321 210 255.5 c 0
 184 277.833333333 171 308 171 346 c 0
 171 378.666666667 172 385 172 385 c 2
 171.333333333 396.333333333 165.666666667 403 155 405 c 0
 102.326558957 416.522315228 70.0034817408 339.18453226 69 286 c 0
 66.3333333333 198 96.3333333333 144 159 124 c 0
 191 114 218 112.333333333 240 119 c 0
 273.333333333 129 290 147.666666667 290 175 c 2
 290 201 l 1
 316 201 l 1
 316 174 l 2
 316 146.666666667 336.333333333 128.333333333 377 119 c 0
 387.666666667 116.333333333 398.333333333 115 409 115 c 0
318 408 m 0
 294.20841866 408 274 388.816991848 274 365 c 0
 274 340.34369857 294.691322173 321 319 321 c 0
 343.938618202 321 363 339.264176752 363 365 c 0
 363 389.336601505 342.606803458 408 318 408 c 0
EndSplineSet
EndChar
StartChar: ka
Encoding: 3482 3482 119
Width: 746
GlyphClass: 2
Flags: W
HStem: -1 21G<374 436.64> 285 29<216.802 385.569>
VStem: 21 25<19.48 51.9949> 27 96<303.415 390.519> 279 30<129.974 175> 638 63<92.992 222.641>
LayerCount: 2
Back
Fore
SplineSet
136 433 m 4xdc
 192.581999846 433 229.863316281 399.374200023 226 344 c 5
 244.666666667 365.333333333 276 385.333333333 320 404 c 4
 438.502651792 452.882343864 551.832637877 444.275509925 631.5 364 c 4
 675.166666667 320 698.333333333 266 701 202 c 4
 704.667043241 105.434527976 654.261149759 17.942086062 576 2 c 4
 547.333333333 -4 523.333333333 -0.666666666667 504 12 c 5
 506 38 l 5
 519.55868152 30.0907691136 555.560568537 22.4894931708 574 31 c 4
 616.666666667 49 638 81.6666666667 638 129 c 4
 638 139 637 150 635 162 c 4
 623.666666667 240 575 297.666666667 489 335 c 4
 454.333333333 349.666666667 417.333333333 357 378 357 c 4
 314.666666667 357 260.666666667 339 216 303 c 5
 246.666666667 310.333333333 276 314 304 314 c 4
 422.227140721 314 503.363605547 250.693493837 514 143 c 4
 521.744401608 62.4582232783 476.280951343 -1 397 -1 c 4
 351 -1 317.333333333 20.3333333333 296 63 c 5
 278.666666667 21.6666666667 249 0.333333333333 207 -1 c 4
 178.333333333 -1.66666666667 150.666666667 11 124 37 c 4
 122.666666667 38.3333333333 118 45.6666666667 110 59 c 4
 104 67.6666666667 97.3333333333 72.3333333333 90 73 c 4
 67.3333333333 74.3333333333 52.6666666667 54.3333333333 46 13 c 5
 21 22 l 5xec
 31 93.3333333333 60 163 108 231 c 4
 126 256.333333333 154.333333333 288.333333333 193 327 c 5
 196.333333333 366.333333333 186.333333333 387.666666667 163 391 c 260
 139.666666667 394.333333333 126.333333333 385 123 363 c 4
 117.666666667 331.666666667 110.333333333 311.666666667 101 303 c 4
 94.3333333333 297 84.6666666667 294 72 294 c 4
 42.0634658091 294 27 308.47596037 27 336 c 4
 27 378.067172856 65.7453809228 416.950122878 100 428 c 4
 111.333333333 431.333333333 123.333333333 433 136 433 c 4xdc
178 267 m 5
 158 249.666666667 140.666666667 230 126 208 c 4
 116.666666667 194.666666667 101.333333333 166.333333333 80 123 c 5
 97.3333333333 133 115.666666667 134.666666667 135 128 c 4
 169 116.666666667 193.666666667 111.666666667 209 113 c 4
 257.457456448 115.907447387 281.255257793 132.150101936 279 175 c 5
 309 175 l 5
 309 168.333333333 311 157 315 141 c 5
 325.666666667 120.333333333 353.666666667 112.333333333 399 117 c 4
 441.666666667 121.666666667 463 143 463 181 c 4
 463 239.328632776 397.053425973 275.868321753 340 283 c 4
 329.333333333 284.333333333 316.666666667 285 302 285 c 4
 241.333333333 285 200 279 178 267 c 5
EndSplineSet
EndChar
StartChar: kha
Encoding: 3483 3483 121
Width: 630
GlyphClass: 2
Flags: HW
HStem: -1 30<103.349 166.543> 115 30<99.6013 166.807> 576 25<210.32 369.056>
VStem: 352 60<172.572 300.572> 538 46<199.207 419.502>
LayerCount: 2
Back
Fore
SplineSet
584 290 m 0
 584 162 528 -1 411 -1 c 0
 377 -1 363 15 343 40 c 0
 335 51 327 56 319 55 c 256
 311 54 285 32 240 -13 c 1
 204 -10 l 1
 217 3 245 35 288 85 c 0
 331 135 352 176 352 207 c 0
 352 257 308 285 255 285 c 0
 158 285 68 224 68 133 c 0
 68 125 69 116 70 105 c 1
 81 132 102 145 135 145 c 0
 181 145 204 123 210 79 c 0
 210 77 210 74 210 72 c 0
 210 35 177 -1 141 -1 c 0
 65 -1 33 93 33 185 c 0
 33 195 33 206 34 216 c 0
 43 323 131 396 247 396 c 0
 335 396 412 343 412 258 c 0
 412 206 392 165 364 137 c 1
 368 138 372 138 375 138 c 0
 384 138 393 133 402 124 c 0
 411 115 422 111 436 111 c 0
 501 111 538 236 538 311 c 0
 538 460 441 576 294 576 c 0
 205 576 139 541 98 470 c 1
 64 470 l 1
 110 555 187 601 298 601 c 0
 368 601 429 578 482 533 c 0
 551 474 584 401 584 290 c 0
132 115 m 0
 107 115 90 96 90 74 c 0
 90 50 112 29 136 29 c 0
 158 29 177 49 177 71 c 0
 177 97 159 115 132 115 c 0
EndSplineSet
EndChar
StartChar: ga
Encoding: 3484 3484 123
Width: 636
GlyphClass: 2
Flags: W
HStem: -1 27<338 431.011> 236 24<253.253 292.452> 409 23<172.371 251>
VStem: 34 40<170.067 310.088> 217 26<205 232.409> 311 42<136.887 221.162>
LayerCount: 2
Back
Fore
SplineSet
508 168 m 4
 508 267.618908121 461.53847067 338 365 338 c 4
 308.510191393 338 263.680379384 304.391612381 253 259 c 5
 258.333333333 259.666666667 263.333333333 260 268 260 c 4
 318.617586879 260 350.414424667 206.71150666 353 155 c 4
 358.416344324 56.1517160923 294.414455418 -7.52041918299 194 -1 c 4
 95.7739677976 5.63689406773 34 97.1081432513 34 204 c 4
 34 275.333333333 53.3333333333 331.166666667 92 371.5 c 4
 130.666666667 411.833333333 174.333333333 432 223 432 c 4
 232.333333333 432 241.666666667 431.333333333 251 430 c 5
 251 407 l 5
 243.666666667 408.333333333 236.333333333 409 229 409 c 4
 144.059116596 409 72.6839804476 334.541270904 74 249 c 4
 75.3333333333 160.333333333 120.666666667 114.666666667 210 112 c 4
 261.333333333 110.666666667 293.666666667 126.333333333 307 159 c 4
 309.666666667 165 311 172 311 180 c 4
 311 207.844994469 292.465830113 236 265 236 c 4
 259.666666667 236 254 235 248 233 c 5
 245.333333333 220.333333333 243.666666667 211 243 205 c 5
 217 205 l 5
 223 263.666666667 241.666666667 314.666666667 273 358 c 4
 313 412 364 436.333333333 426 431 c 4
 521.544798564 422.925791671 579.484604519 335.640169505 586 234 c 4
 590 170 572.666666667 115.333333333 534 70 c 4
 492.666666667 22.6666666667 437.666666667 -1 369 -1 c 4
 359 -1 348.666666667 -0.333333333333 338 1 c 5
 338 27 l 5
 346.666666667 26.3333333333 355 26 363 26 c 4
 452.211295945 26 508 80.4300632881 508 168 c 4
EndSplineSet
EndChar
StartChar: gha
Encoding: 3485 3485 125
Width: 677
GlyphClass: 2
Flags: HW
HStem: -1 114<128.485 242.531 419.539 544.578> 171 29<294.205 370.221> 285 23<5 144 164.458 282 382 443.785> 289 28<382.754 524.088>
VStem: 51 51<139.07 232.946> 243 28<115.468 147.245> 540 39<306.597 377.911> 579 50<141.269 245.053>
LayerCount: 2
Back
Fore
SplineSet
353 292 m 0
 353 375 398 432 481 432 c 0
 532 432 564 410 577 365 c 0
 578 360 579 354 579 349 c 0xde
 579 328 566 301 550 297 c 1
 603 271 629 224 629 155 c 0
 629 69 552 0 464 0 c 0
 440 0 413 4 382 12 c 1
 379 17 378 23 378 30 c 0
 378 43 392 88 392 103 c 0
 392 139 370 171 334 171 c 0
 294 171 271 141 271 101 c 0
 271 87 281 47 281 33 c 256
 281 26 280 18 277 11 c 1
 244 3 218 -1 199 -1 c 0
 116 -1 51 70 51 154 c 0
 51 224 87 267 144 285 c 1
 5 285 l 1
 5 308 l 1
 282 308 l 1
 279 357 257 381 215 381 c 0
 214 381 214 381 213 381 c 0
 196 381 182 372 174 353 c 0
 166 336 152 327 130 327 c 0
 103 327 89 340 89 366 c 0
 89 411 134 433 184 433 c 0
 270 433 312 383 312 295 c 0
 312 291 312 286 312 282 c 1
 283 284 260 284 242 284 c 0
 157 284 102 256 102 196 c 0
 102 140 138 113 208 113 c 0
 220 113 232 115 243 120 c 1
 243 122 242 124 242 126 c 0
 242 135 247 147 257 161 c 0
 275 187 299 200 330 200 c 0
 380 200 416 165 421 117 c 1
 428 114 448 113 481 113 c 0
 538 113 579 141 579 197 c 0xed
 579 265 518 290 448 290 c 0
 417 290 386 287 353 280 c 1
 353 284 353 288 353 292 c 0
540 341 m 256xde
 540 376 506 392 469 392 c 0
 416 392 387 365 382 310 c 1
 398 315 419 317 445 317 c 0
 479 317 506 313 525 306 c 1
 535 317 540 328 540 341 c 256xde
EndSplineSet
EndChar
StartChar: knaasi
Encoding: 3486 3486 126
Width: 647
GlyphClass: 2
Flags: HW
HStem: 0 112<119.511 271.572 353.974 497.047> 234 29<118.685 335.229> 407 25<213 274.042> 558 24<225.356 381.409>
VStem: 50 47<131.215 214.827> 70 35<313.435 386.345> 205 36<312.503 387.826> 297 31<142.049 191>
LayerCount: 2
Back
Fore
SplineSet
372 303 m 0
 372 242 341 220 277 220 c 0
 255 220 235 223 217 228 c 4
 203 232 189 234 174 234 c 4
 126 234 97 216 97 173 c 4
 97 133 131 113 198 113 c 4
 239 113 297 135 297 172 c 6
 297 191 l 5
 328 191 l 5
 328 172 l 6xfb
 328 136 388 112 427 112 c 4
 509 112 555 178 555 300 c 0
 555 366 532 425 486 476 c 4
 437 531 377 558 305 558 c 4
 226 558 159 528 105 468 c 5xf7
 73 468 l 5
 132 544 211 582 308 582 c 4
 387 582 454 553 509 495 c 4
 571 432 598 359 598 255 c 0
 598 195 588 142 567 97 c 4
 538 32 492 0 431 0 c 4
 369 0 344 21 313 59 c 5
 282 20 244 0 197 -0 c 0
 117 0 50 66 50 144 c 4xfb
 50 215 102 263 174 263 c 4
 209 263 252 250 286 250 c 0
 318 250 341 262 341 308 c 4
 341 369 278 407 213 407 c 5
 232 394 241 374 241 346 c 4
 241 304 201 272 158 272 c 0
 109 272 70 304 70 350 c 4xf7
 70 363 73 375 80 386 c 4
 98 417 136 432 195 432 c 0
 294 432 372 394 372 303 c 0
156 399 m 4
 129 399 105 378 105 351 c 4
 105 323 127 301 154 301 c 4
 183 301 205 322 205 350 c 260
 205 377 183 399 156 399 c 4
EndSplineSet
EndChar
StartChar: nga
Encoding: 3487 3487 128
Width: 749
GlyphClass: 2
Flags: HW
HStem: -1 27<454 552.837> 218 23<366.256 415.606> 409 21<292.094 367>
VStem: 27 35<118.065 315.216> 333 24<192 212.503>
LayerCount: 2
Back
Fore
SplineSet
324 -1 m 0
 215 -1 150 93 150 204 c 0
 150 292 185 365 244 404 c 1
 238 405 231 405 225 405 c 0
 175 405 132 385 98 346 c 0
 74 319 62 277 62 221 c 0
 62 141 86 78 135 33 c 1
 135 0 l 1
 68 33 27 119 27 221 c 0
 27 339 88 414 180 429 c 0
 199 432 225 434 259 434 c 0
 289 434 325 433 367 430 c 1
 367 407 l 1
 360 408 352 409 345 409 c 0
 264 409 194 340 194 258 c 0
 194 167 241 116 327 116 c 0
 373 116 425 138 425 179 c 0
 425 205 412 218 385 218 c 0
 378 218 370 216 361 213 c 1
 358 202 357 195 357 192 c 1
 333 192 l 1
 343 311 408 432 526 432 c 0
 638 432 703 334 703 219 c 0
 703 161 686 112 650 70 c 0
 609 23 554 -1 485 -1 c 0
 475 -1 465 0 454 1 c 1
 454 27 l 1
 463 26 471 26 480 26 c 0
 574 26 640 81 640 174 c 0
 640 262 584 328 497 328 c 0
 434 328 377 289 366 239 c 1
 373 240 379 241 386 241 c 0
 440 241 470 195 470 138 c 0
 470 53 410 -1 324 -1 c 0
EndSplineSet
EndChar
StartChar: cha
Encoding: 3488 3488 129
Width: 623
GlyphClass: 2
Flags: W
HStem: 0 115<167.285 416.016> 276 26<18 148 182.429 285> 390 43<171.144 254.159> 553 24<218.926 378.363>
VStem: 65 52<158.128 231.131> 78 84<315.788 380.417> 524 51<220.875 397.655>
LayerCount: 2
Back
Fore
SplineSet
78 349 m 4xf6
 78 401.720941772 130.008417394 433 187 433 c 4
 276.814139069 433 316.507065773 379.234005476 315 276 c 5
 252 276 l 6
 220.666666667 276 189 268 157 252 c 4
 130.333333333 238.666666667 117 220.666666667 117 198 c 4
 117 191.333333333 119 184.333333333 123 177 c 4
 153.419289565 123.766243262 218.916774814 115 312 115 c 4
 441.724859197 115 524 193.516256242 524 323 c 4
 524 383.666666667 504.333333333 436.666666667 465 482 c 4
 423 529.333333333 370 553 306 553 c 4
 210.144438827 553 161.593912523 526.684323677 116 470 c 5
 85 470 l 5
 135 540 206.333333333 575.666666667 299 577 c 4
 381 578.333333333 448.333333333 548.333333333 501 487 c 4
 550.333333333 429 575 358.333333333 575 275 c 4
 575 198.333333333 552.666666667 134.333333333 508 83 c 4
 460 27.6666666667 396 0 316 0 c 4
 272.666666667 0 238 2 212 6 c 4
 110 22.6666666667 61 77.6666666667 65 171 c 4xfa
 67 219 94.6666666667 253.333333333 148 274 c 5
 77.3333333333 274 34 272.666666667 18 270 c 5
 18 302 l 5
 285 302 l 5
 283 332.666666667 272 357.333333333 252 376 c 4
 242 385.333333333 229.666666667 390 215 390 c 4
 185.537978992 390 168.294188336 373.225784733 162 347 c 4
 156.041050053 322.171041889 144.585541177 312 119 312 c 4
 91.6666666667 312 78 324.333333333 78 349 c 4xf6
EndSplineSet
EndChar
StartChar: Ja
Encoding: 3489 3489 131
Width: 598
GlyphClass: 2
Flags: HW
HStem: 0 115<153.725 432.387> 161 26<379.311 449.522> 287 22<359 448.076> 388 44<126.625 226.497>
VStem: 33 51<156.899 243.31> 57 91<335.5 384.539> 238 28<309.078 368.956> 286 27<307.266 375.944> 329 28<210.662 286.688 309 359.496> 503 28<280.457 373.908>
LayerCount: 2
Back
Fore
SplineSet
298 0 m 0
 157 0 33 46 33 175 c 0
 33 249 97 297 166 306 c 0
 183 308 200 310 217 310 c 2
 238 309 l 1
 238 313 239 316 239 320 c 0
 239 356 222 388 187 388 c 0
 167 388 154 380 148 365 c 0
 138 341 122 326 95 326 c 0
 70 326 57 339 57 364 c 0
 57 369 58 373 60 378 c 0
 75 414 105 432 150 432 c 0xf7c0
 220 432 266 394 266 323 c 0
 266 311 265 298 262 284 c 1
 247 286 232 287 217 287 c 0
 199 287 181 286 163 283 c 0
 126 277 84 248 84 207 c 0
 84 198 86 188 90 179 c 0
 117 119 198 115 300 115 c 0
 418 115 487 136 507 179 c 0
 511 188 513 196 513 205 c 0
 513 214 511 224 506 233 c 1
 493 203 477 182 457 171 c 0
 445 164 430 161 413 161 c 0
 369 161 348 182 335 221 c 0
 330 237 327 252 327 266 c 0
 327 273 328 280 329 287 c 1
 329 287 320 286 292 284 c 1
 288 296 286 309 286 322 c 0
 286 376 320 423 368 431 c 1
 382 464 406 500 440 539 c 0
 487 592 522 619 544 619 c 0
 560 619 568 612 568 597 c 0
 568 590 565 584 558 580 c 0
 538 569 507 552 471 523 c 0
 431 492 409 459 399 432 c 1
 407 433 418 433 431 433 c 0
 477 432 509 409 526 364 c 0
 529 355 531 344 531 331 c 0
 531 301 526 278 516 262 c 1
 538 233 549 201 549 165 c 0
 549 47 426 0 298 0 c 0
314 307 m 0
 318 307 328 309 331 309 c 0
 336 334 348 386 359 407 c 1
 328 390 313 362 313 323 c 0
 313 318 313 312 314 307 c 0
359 309 m 1
 424 309 464 304 497 280 c 1
 501 299 503 314 503 325 c 0
 503 378 468 408 416 408 c 0
 407 408 398 407 388 405 c 1
 371 378 362 346 359 309 c 1
357 267 m 0
 357 220 375 187 416 187 c 0
 444 187 467 209 484 254 c 1
 463 280 411 287 358 287 c 1
 357 280 357 274 357 267 c 0
EndSplineSet
EndChar
StartChar: ja
Encoding: 3490 3490 132
Width: 598
GlyphClass: 2
Flags: W
HStem: 0 116<153.161 436.466> 385 47<149.609 227.334> 406 27<406.093 471.385> 541 79<500.392 573.815>
VStem: 33 53<163.626 242.229> 236 30<311.147 371.708> 293 30<309.328 379.284> 489 31<320.992 390.992> 495 54<161.136 241.241>
LayerCount: 2
Back
Fore
SplineSet
154 432 m 4xde80
 220.892617187 432 266 393.392270225 266 326 c 4
 266 314 264.666666667 301.333333333 262 288 c 5
 204.516607516 293.865652294 138.948457322 285.254378904 107.5 256 c 4
 93.1666666667 242.666666667 86 227.333333333 86 210 c 4
 86 204 87 197.666666667 89 191 c 4
 107 141 177.333333333 116 300 116 c 4
 414 116 478 141.666666667 492 193 c 4
 494 199 495 205 495 211 c 4xde80
 495 250.333333333 469.333333333 274.666666667 418 284 c 4
 377.333333333 291.333333333 338 291.666666667 300 285 c 5
 295.333333333 301 293 316.333333333 293 331 c 4
 293 384.333333333 321.333333333 418.333333333 378 433 c 5
 390.666666667 468.333333333 411.333333333 503.666666667 440 539 c 4
 476.666666667 584.333333333 508.333333333 610.666666667 535 618 c 4
 541 619.333333333 546.666666667 620 552 620 c 4
 576.666666667 620 589 610.333333333 589 591 c 4
 589 582.333333333 585.833333333 574.5 579.5 567.5 c 4
 573.166666667 560.5 557.333333333 551.666666667 532 541 c 4
 466.449518677 513.924801193 425.867811031 491.434738327 406 433 c 5
 415 433 415 433 430 433 c 4
 476.914622268 434.267962764 518.620087003 403.157215902 520 359 c 4xbf
 520.666666667 325.666666667 505.333333333 302.333333333 474 289 c 5
 517.779641897 270.973088631 551.70616099 218.241702776 549 156 c 4
 544.692660538 45.4449538188 423.685369974 0 298 0 c 4
 160.148102377 0 35.8704600438 44.5702181163 33 168 c 4
 31.6106970484 247.190268243 98.0774925959 301.078318072 172 310 c 4
 190 312 211 312.333333333 235 311 c 5
 235.666666667 316.333333333 236 321.666666667 236 327 c 4
 236 363.666666667 220.333333333 383 189 385 c 4
 171.666666667 385.666666667 158.333333333 378.333333333 149 363 c 4
 135.549616335 340.990281276 132.118735238 333.910290644 107 328 c 4
 101.666666667 326.666666667 97 326 93 326 c 4
 69 326 57 337.666666667 57 361 c 4
 57 367 58 372.666666667 60 378 c 4
 75.3333333333 414 106.666666667 432 154 432 c 4xde80
385 309 m 5
 356.640306384 324.755385342 352.277760901 366.694402254 368 406 c 5xbe
 338 388.666666667 323 364.666666667 323 334 c 4
 323 326.666666667 324 318.333333333 326 309 c 5
 333.333333333 309.666666667 344.333333333 310.333333333 359 311 c 4
 365.666666667 311 374.333333333 310.333333333 385 309 c 5
437 406 m 4
 410.567804326 406 388 385.483658515 388 359 c 4
 388 330.370746498 411.719299868 308 440 308 c 4
 466.432195674 308 489 328.516341485 489 355 c 260xbf
 489 382.97892222 465.917602314 406 437 406 c 4
EndSplineSet
EndChar
StartChar: kdha
Encoding: 3491 3491 134
Width: 1079
GlyphClass: 2
Flags: HW
HStem: 0 113<563.586 705.272 789.457 930.365> 285 28<217.447 385.252> 373 25<629.283 666> 406 28<377.987 585.295> 557 23<657.085 817.688>
VStem: 20 26<19.5769 52.4585> 27 96<303.415 390.519> 194 32<345 384.888> 279 30<129.974 175> 733 31<145.948 218>
LayerCount: 2
Back
Fore
SplineSet
376 116 m 0
 430 116 463 135 463 181 c 0
 463 240 399 274 343 283 c 0
 333 284 321 285 306 285 c 0
 246 285 203 279 178 267 c 1xf9c0
 159 251 143 232 128 211 c 0
 120 199 104 170 81 124 c 1
 90 129 100 132 111 132 c 0
 119 132 127 131 135 128 c 0
 165 118 189 113 204 113 c 0
 253 113 279 131 279 170 c 0
 279 172 279 173 279 175 c 1
 309 175 l 1
 309 168 311 157 315 141 c 1
 324 124 344 116 376 116 c 0
600 388 m 1
 567 399 518 406 479 406 c 0
 370 406 275 360 216 303 c 1
 247 310 276 313 304 313 c 0
 384 313 443 287 481 236 c 1
 495 314 535 365 600 388 c 1
748 59 m 1
 716 19 678 0 630 -0 c 0
 577 0 536 26 507 78 c 1
 495 32 453 -1 397 -1 c 0
 351 -1 317 20 296 63 c 1
 279 22 248 -1 205 -1 c 0
 177 -1 150 12 124 37 c 0
 123 38 118 46 110 59 c 0
 104 68 97 73 88 73 c 0
 67 73 52 53 46 13 c 1
 20 22 l 1xfdc0
 33 95 62 164 107 230 c 0
 123 253 152 286 194 328 c 1
 194 330 194 333 194 335 c 0
 194 374 182 392 154 392 c 0
 136 392 126 382 123 363 c 0
 118 332 110 312 101 303 c 0
 94 297 85 294 72 294 c 0
 42 294 27 308 27 336 c 0xfbc0
 27 378 66 417 100 428 c 0
 111 431 123 433 136 433 c 0
 192 433 226 402 226 345 c 1
 271 390 372 434 469 434 c 0
 544 434 606 420 666 398 c 1
 666 373 l 1
 662 373 659 373 655 373 c 0
 587 373 523 309 523 239 c 0
 523 157 564 113 632 113 c 0
 683 113 733 138 733 185 c 2
 733 218 l 1
 764 218 l 1
 764 185 l 2
 764 137 813 113 862 113 c 0
 945 113 993 181 993 303 c 0
 993 371 970 430 925 478 c 0
 876 531 813 557 738 557 c 0
 658 557 592 527 539 468 c 1
 510 468 l 1
 567 543 645 580 744 580 c 0
 823 580 890 551 945 494 c 0
 1005 433 1033 361 1033 261 c 0
 1033 129 984 0 867 0 c 0
 818 0 778 20 748 59 c 1
EndSplineSet
Ligature2: "Ligature Substitution lookup 11 subtable" ka al uni200D dha
EndChar
StartChar: kna
Encoding: 3492 3492 135
Width: 1024
GlyphClass: 2
Flags: HW
HStem: -1 132<267.501 391.152> -1 117<454.251 570.074> -1 36<758.208 888.495> 294 23<799.416 914> 387 44<793.641 879.34>
VStem: 27 30<122.742 308.501> 145 26<20.0385 51.4062> 151 96<303.395 389.498> 403 30<131.065 175> 820 73<-162.905 -65.5134>
LayerCount: 2
Back
Fore
SplineSet
586 178 m 0
 586 260 495 286 407 286 c 0
 366 286 331 280 302 267 c 5x5cc0
 262 230 230 183 206 124 c 5
 213 129 221 131 232 131 c 4x9cc0
 240 131 253 129 272 124 c 4
 300 117 316 112 331 112 c 0
 341 112 351 114 364 118 c 4
 390 125 403 142 403 175 c 5
 433 175 l 5
 433 159 437 144 445 132 c 4
 452 121 472 116 505 116 c 0
 549 116 586 134 586 178 c 0
748 338 m 0
 729 338 711 354 711 372 c 4
 711 379 716 383 716 389 c 5
 698 400 629 406 601 406 c 4
 569 406 536 402 501 393 c 4
 440 378 387 348 341 303 c 5
 370 310 400 314 429 314 c 4
 518 314 578 286 611 231 c 5
 621 256 641 278 672 296 c 4
 696 310 745 317 819 317 c 6
 914 317 l 5
 907 347 880 388 838 388 c 0
 814 388 804 382 792 363 c 4
 783 349 766 338 748 338 c 0
319 341 m 0
 319 375 307 392 281 392 c 0
 261 392 250 382 247 361 c 4
 242 330 234 311 224 302 c 4
 218 297 209 294 196 294 c 4
 166 294 151 308 151 336 c 4
 151 361 162 384 185 404 c 5
 152 400 122 382 95 349 c 4
 70 319 57 275 57 218 c 4
 57 137 83 74 135 29 c 5
 135 0 l 5
 68 33 27 119 27 221 c 4
 27 307 55 359 102 398 c 4
 130 421 158 433 197 433 c 0
 208 433 219 432 232 430 c 5
 240 432 249 433 258 433 c 4
 315 433 351 403 351 345 c 5
 385 382 461 415 522 427 c 4
 543 431 568 433 594 433 c 0
 645 433 700 425 733 412 c 5
 749 426 773 433 803 433 c 0
 888 433 931 389 951 294 c 5
 852 294 l 6
 774 294 725 234 725 160 c 4
 725 98 762 58 835 39 c 4
 845 36 854 35 863 35 c 4
 891 35 922 54 955 92 c 5
 978 75 l 5
 946 51 923 6 904 -41 c 4
 897 -60 893 -79 893 -98 c 4
 893 -122 898 -142 908 -159 c 4
 918 -176 943 -193 980 -210 c 5
 980 -238 l 5
 966 -241 948 -242 927 -242 c 4
 903 -241 886 -239 877 -234 c 4
 839 -214 820 -183 820 -142 c 4
 820 -134 821 -126 822 -117 c 4
 826 -89 849 -47 890 10 c 5
 855 3 823 -1 795 -1 c 4x3dc0
 719 -1 653 34 629 71 c 5
 610 23 575 -1 522 -1 c 4x5dc0
 476 -1 442 20 420 63 c 5
 404 22 374 -1 329 -1 c 0
 301 -1 274 12 249 37 c 4
 248 38 243 45 234 59 c 4
 228 69 220 73 212 73 c 0
 188 73 172 38 171 12 c 5
 145 23 l 5x9ec0
 159 100 188 169 232 231 c 4
 248 254 277 286 318 327 c 5
 318 332 319 337 319 341 c 0
EndSplineSet
EndChar
StartChar: gna
Encoding: 3493 3493 137
Width: 842
GlyphClass: 2
Flags: HW
HStem: -1 33<610.565 707.887> 218 23<350.257 397.217> 294 23<609.458 732> 409 21<275.49 351>
VStem: 27 30<122.742 307.798> 316 25<192 212.503> 406 136<131.056 215.375> 639 77<-165.21 -67.324>
LayerCount: 2
Back
Fore
SplineSet
563 336 m 0
 544 336 529 352 529 371 c 0
 529 384 533 387 540 399 c 1
 530 402 520 403 510 403 c 0
 425 403 369 316 350 239 c 1
 357 240 363 241 369 241 c 0
 392 241 410 233 425 218 c 1
 434 250 456 276 491 296 c 0
 515 310 564 317 637 317 c 2
 732 317 l 1
 725 353 693 388 649 388 c 0
 626 388 617 382 606 362 c 0
 598 348 580 336 563 336 c 0
510 432 m 0
 532 432 553 428 567 422 c 1
 582 429 601 433 623 433 c 0
 709 433 751 389 769 294 c 1
 661 294 l 2
 584 294 542 237 542 167 c 0
 542 92 600 32 674 32 c 0
 705 32 738 52 773 92 c 1
 797 75 l 1
 767 52 739 -5 726 -42 c 0
 719 -61 716 -81 716 -101 c 0
 716 -126 722 -145 733 -160 c 0
 752 -185 774 -201 799 -210 c 1
 799 -238 l 1
 784 -241 766 -242 745 -242 c 0
 721 -241 705 -239 696 -234 c 0
 658 -214 639 -184 639 -143 c 0
 639 -104 662 -53 709 10 c 1
 674 3 642 -1 614 -1 c 0
 533 -1 467 36 442 80 c 1
 420 26 377 -2 312 -2 c 0
 201 -2 134 90 134 204 c 0
 134 301 171 368 235 406 c 1
 229 407 223 407 217 407 c 0
 169 407 128 388 95 349 c 0
 70 319 57 275 57 218 c 0
 57 137 83 74 135 29 c 1
 135 0 l 1
 68 33 27 119 27 221 c 0
 27 329 85 418 178 429 c 0
 198 432 224 433 256 433 c 0
 283 433 315 432 351 430 c 1
 351 407 l 1
 344 408 337 409 330 409 c 0
 287 409 250 393 219 360 c 0
 190 330 176 295 176 258 c 0
 176 162 227 114 313 114 c 0
 375 114 406 135 406 176 c 0
 406 204 393 218 368 218 c 0
 361 218 353 216 345 213 c 1
 342 202 341 195 341 192 c 1
 316 192 l 1
 324 309 393 432 510 432 c 0
EndSplineSet
EndChar
StartChar: nja
Encoding: 3494 3494 138
Width: 666
GlyphClass: 2
Flags: HW
HStem: 0 116<222.161 505.466> 406 26<138.526 258.28 475.093 540.111> 541 79<569.392 642.815>
VStem: 27 30<122.742 308.735> 102 53<163.626 242.229> 305 30<311.147 371.708> 362 30<309.328 379.284> 558 31<320.992 390.992> 564 54<161.136 241.241>
LayerCount: 2
Back
Fore
SplineSet
305 327 m 0
 305 364 289 385 256 385 c 0
 240 385 227 378 218 363 c 0
 205 341 201 334 176 328 c 0
 171 327 166 326 162 326 c 0
 138 326 126 338 126 361 c 0
 126 367 127 373 129 378 c 0
 144 414 176 432 223 432 c 0xfe80
 290 432 335 393 335 326 c 0
 335 314 334 301 331 288 c 1
 320 289 308 290 297 290 c 0
 249 290 201 280 176 256 c 0
 162 243 155 227 155 210 c 0
 155 204 156 198 158 191 c 0
 176 141 246 116 369 116 c 0
 483 116 547 142 561 193 c 0
 563 199 564 205 564 211 c 0xfe80
 564 250 538 275 487 284 c 0
 466 288 445 290 424 290 c 0
 405 290 387 288 369 285 c 1
 364 301 362 316 362 331 c 0
 362 384 390 418 447 433 c 1
 460 468 480 504 509 539 c 0
 546 584 577 611 604 618 c 0
 610 619 616 620 621 620 c 0
 646 620 658 610 658 591 c 0
 658 582 654 575 648 568 c 0
 642 561 626 552 601 541 c 0
 535 514 495 491 475 433 c 1
 484 433 484 433 499 433 c 0
 500 433 501 433 502 433 c 0
 548 433 589 402 589 357 c 0
 589 325 574 302 543 289 c 1
 585 272 618 222 618 163 c 0
 618 46 495 0 367 0 c 0
 229 0 102 44 102 170 c 0
 102 260 183 312 277 312 c 0
 286 312 294 312 304 311 c 1
 305 316 305 322 305 327 c 0
454 309 m 1
 436 319 428 339 428 362 c 0
 428 376 431 391 437 406 c 1
 407 389 392 365 392 334 c 0
 392 327 393 318 395 309 c 1
 402 310 413 310 428 311 c 0
 435 311 443 310 454 309 c 1
506 406 m 0
 480 406 457 385 457 359 c 0
 457 330 481 308 509 308 c 0
 535 308 558 329 558 355 c 256xff
 558 383 535 406 506 406 c 0
135 0 m 1
 68 33 27 119 27 221 c 0
 27 307 55 359 102 398 c 0
 134 424 160 432 206 432 c 0
 234 432 258 428 279 419 c 1
 270 396 l 1
 247 403 227 406 208 406 c 0
 165 406 127 387 95 349 c 0
 70 320 57 276 57 218 c 0
 57 137 83 74 135 29 c 1
 135 0 l 1
EndSplineSet
EndChar
StartChar: ta
Encoding: 3495 3495 139
Width: 603
GlyphClass: 2
Flags: W
HStem: 0 115<160.636 398.953> 365 25<165.807 308.808> 553 24<189.516 349.469>
LayerCount: 2
Back
Fore
SplineSet
277 553 m 4
 181.892872189 553 134.884524068 525.802381274 90 470 c 5
 57 470 l 5
 105.666666667 540 177 575.666666667 271 577 c 4
 353 578.333333333 421.666666667 548.333333333 477 487 c 4
 530.333333333 428.333333333 557 357.666666667 557 275 c 4
 557 199 534.333333333 135.333333333 489 84 c 4
 441 29.3333333333 377 1.33333333333 297 0 c 4
 146.529142553 -2.5289219739 44.187916085 60.7450069794 33 195 c 4
 29 242.333333333 42.6666666667 285 74 323 c 4
 107.333333333 363.666666667 151.666666667 386 207 390 c 260
 262.333333333 394 300.333333333 389 321 375 c 5
 321 346 l 5
 303.666666667 358.666666667 274 365 232 365 c 4
 155.359472049 365 79 320.212516889 79 248 c 4
 79 237.333333333 80.6666666667 227 84 217 c 4
 106 145.666666667 176 111.666666667 294 115 c 4
 425.333333333 119 496 181.333333333 506 302 c 4
 511.333333333 366 492.333333333 423.333333333 449 474 c 4
 403 526.666666667 345.666666667 553 277 553 c 4
EndSplineSet
EndChar
StartChar: Ta
Encoding: 3496 3496 141
Width: 638
GlyphClass: 2
Flags: HW
HStem: 0 117<122.258 262 343.042 488.612> 363 35<363.353 461.537> 374 24<161.134 221>
VStem: 286 31<142.468 212> 545 42<187.311 364.039>
LayerCount: 2
Back
Fore
SplineSet
303 59 m 1
 272 20 234 0 188 -0 c 0
 138 0 99 23 69 68 c 0
 45 104 34 150 34 194 c 0
 34 239 45 283 68 318 c 0
 100 367 145 398 221 398 c 1
 221 374 l 1
 219 374 218 374 216 374 c 0
 177 374 143 360 116 330 c 0
 92 303 80 268 80 234 c 0
 80 204 90 174 110 150 c 0
 131 127 157 116 190 116 c 0
 254 116 286 136 286 177 c 2
 286 212 l 1
 317 212 l 1
 317 177 l 2xb8
 317 133 368 117 417 117 c 0
 497 117 545 174 545 287 c 0
 545 330 526 402 505 423 c 1
 483 383 452 363 413 363 c 0xd8
 360 363 313 403 309 452 c 0
 309 457 309 462 309 467 c 0
 309 514 322 560 350 603 c 1
 401 582 450 543 496 486 c 0
 547 423 576 357 584 289 c 0
 586 272 587 255 587 238 c 0
 587 116 535 0 422 0 c 0
 373 0 333 20 303 59 c 1
338 479 m 0
 338 431 365 398 412 398 c 0
 446 398 471 415 487 450 c 1
 470 475 454 496 436 512 c 0
 418 528 405 539 398 545 c 0
 385 556 373 564 362 569 c 1
 346 548 338 518 338 479 c 0
EndSplineSet
EndChar
StartChar: Da
Encoding: 3497 3497 142
Width: 647
GlyphClass: 2
Flags: HW
HStem: 0 115<122.85 270.102 350.88 494.172> 288 27<15 125 149.117 261> 392 40<156.86 236.384> 556 26<217.673 384.974>
VStem: 46 52<139.799 237.15> 261 34<315 363.135> 297 27<150.668 212>
LayerCount: 2
Back
Fore
SplineSet
197 -0 m 0
 112 0 46 74 46 158 c 4
 46 203 59 231 84 258 c 4
 99 273 112 283 125 288 c 5
 15 288 l 5
 15 315 l 5
 261 315 l 5
 260 350 232 392 198 392 c 4
 173 392 156 376 146 358 c 4
 139 346 124 340 110 340 c 0
 92 340 75 350 75 371 c 4
 75 376 76 381 79 386 c 4
 93 415 125 432 174 432 c 0
 250 432 294 367 295 288 c 5
 199 288 l 6
 149 288 98 249 98 201 c 4
 98 144 131 115 196 115 c 4
 245 115 297 139 297 187 c 6
 297 212 l 5
 324 212 l 5
 324 187 l 6
 324 141 372 115 422 115 c 4
 507 115 553 181 553 301 c 0
 553 367 531 425 486 475 c 4
 438 529 378 556 306 556 c 4
 221 556 155 527 106 468 c 5
 73 468 l 5
 130 544 209 582 308 582 c 4
 387 582 454 553 509 495 c 4
 571 432 598 359 598 255 c 0
 598 195 588 142 567 97 c 4
 538 32 492 0 431 0 c 4
 369 0 344 21 313 59 c 5
 282 20 244 0 197 -0 c 0
EndSplineSet
EndChar
StartChar: Dha
Encoding: 3498 3498 144
Width: 647
GlyphClass: 2
Flags: W
HStem: 0 115<129.381 267.389 355.649 496.899> 288 27<15 124 148.623 255> 363 30<379.525 463.281> 383 49<155.261 238.18>
VStem: 46 54<143.938 236.776> 255 34<315 360.908> 297 29<150.007 218> 560 38<189.658 351.086>
LayerCount: 2
Back
Fore
SplineSet
372 567 m 1xef
 355.333333333 545 347 514.666666667 347 476 c 0
 347 444.666666667 357 422.333333333 377 409 c 0
 393.666666667 398.333333333 409.333333333 393 424 393 c 0
 452 393 476.666666667 412 498 450 c 1
 486.666666667 467.333333333 469.333333333 487.666666667 446 511 c 0
 419.333333333 538.333333333 394.666666667 557 372 567 c 1xef
431 0 m 0
 369.285699916 0 344.342973794 21.3884314468 313 59 c 1
 282.333333333 20.3333333333 244.666666667 0.666666666667 200 0 c 0
 156 -0.666666666667 119.333333333 14.8333333333 90 46.5 c 0
 60.6666666667 78.1666666667 46 115.333333333 46 158 c 0
 46 203.040462175 59.1886539969 231.12104183 84 258 c 0
 98 273.333333333 111.333333333 283.333333333 124 288 c 1
 15 288 l 1
 15 315 l 1
 255 315 l 1
 255 349.115483076 231.829602333 383 199 383 c 0
 176.585502734 383 156.948883774 366.010078781 147 353 c 0
 129.794758857 330.059678477 71 335.412350798 71 370 c 0
 71 412.519149883 116.787057534 432 170 432 c 0xdf
 249.642435798 433.397235716 290.255654496 369.617542258 289 288 c 1
 195 288 l 2
 149.02573413 288 100 246.682863625 100 202 c 0
 100 146.772415967 140.668603034 115 198 115 c 0
 246.411008317 115 297 142.582255145 297 190 c 2
 297 218 l 1
 326 218 l 1
 326 190 l 2
 326 142.590044177 376.607903095 115 425 115 c 0
 516.372732103 115 561.264629087 189.888189398 560 286 c 0
 558.996286414 326.148543444 534.47842152 400.108508227 514 424 c 1
 492.666666667 383.333333333 462 363 422 363 c 0
 369.465082038 363 321.889772219 402.729551889 318 452 c 0
 314.666666667 502.666666667 328.333333333 553 359 603 c 1
 425.666666667 576.333333333 482.166666667 527.333333333 528.5 456 c 0
 574.833333333 384.666666667 598 312.666666667 598 240 c 0
 598 117.705007376 544.01190236 0 431 0 c 0
EndSplineSet
EndChar
StartChar: Na
Encoding: 3499 3499 145
Width: 963
GlyphClass: 2
Flags: W
HStem: 0 106<258.66 450.721> 159 38<306.471 392.733> 409 24<287.623 427.202> 462 65<722.897 860.231>
VStem: 170 31<287 341.937> 263 29<218.994 292.218> 415 30<218.625 296.951> 538 43<183.055 241.108 250 322.137> 833 82<59.0625 253.812>
LayerCount: 2
Back
Fore
SplineSet
498 389 m 5
 534.037543961 367.602708273 580 313.62607341 580 250 c 5
 597.333333333 276.666666667 620.666666667 288.666666667 650 286 c 4
 676.666666667 283.333333333 697 271.333333333 711 250 c 5
 721.382365956 294.990252476 765.34335463 325.062521371 822 322 c 4
 893.608815172 317.946670839 918.767602807 223.654864564 915 137 c 4
 912.375999745 71.3999936157 872.109073923 5.60330385491 814 -1 c 4
 760.252266837 -6.81056574739 716.368612537 25.4863155235 702 65 c 5
 685.333333333 45 662.666666667 35.3333333333 634 36 c 4
 600.666666667 36.6666666667 575 59 557 103 c 5
 513.44536935 37.045845016 465.678409093 1.45910737816 365 0 c 4
 311 -0.666666666667 268 11 236 35 c 4
 214.666666667 51 188.333333333 82.3333333333 157 129 c 4
 148.333333333 142.333333333 142 150.666666667 138 154 c 4
 125.685143252 167.546342423 95.463414146 181.041078151 70 173 c 4
 56.6666666667 169 44.3333333333 162.666666667 33 154 c 5
 22 178 l 5
 56.9981284241 206.821988114 114.164892731 237.424940406 171 269 c 5
 170.333333333 275 170 280.666666667 170 286 c 4
 170 380.651018249 255.142511354 433 356 433 c 4
 404 433 441 423.666666667 467 405 c 5
 523.666666667 432.333333333 591.666666667 460 671 488 c 4
 743.666666667 514 796 527 828 527 c 4
 851.333333333 527 863 517.333333333 863 498 c 260
 863 478.666666667 851.333333333 466.666666667 828 462 c 4
 798 456.666666667 749 447.666666667 681 435 c 4
 641.666666667 427 580.666666667 411.666666667 498 389 c 5
201 287 m 5
 223.666666667 299 261 317.666666667 313 343 c 4
 355.666666667 362.333333333 396.333333333 379.333333333 435 394 c 5
 413.666666667 404 388 409 358 409 c 4
 272.149674595 409 199.786213598 363.468543299 201 287 c 5
372 341 m 5
 411.418572235 332.638484677 445 300.436125012 445 255 c 4
 445 198.79720396 385.210537685 161.391937774 329 159 c 4
 252.333333333 155.666666667 201.666666667 183.333333333 177 242 c 5
 158.333333333 232 133 218 101 200 c 5
 139.479962146 195.72444865 169.562579731 169.707332002 197 151 c 4
 241 121 288 106 338 106 c 4
 446.092484605 106 518.75468999 150.822511952 534 224 c 4
 536.666666667 236 538 247.666666667 538 259 c 4
 538 313.666666667 513.333333333 353.333333333 464 378 c 5
 435.620981755 369.267994386 409.429496469 355.971798588 372 341 c 5
205 258 m 5
 218.597700799 215.847127523 264.643383651 186.582390582 315 184 c 5
 286.333333333 194 269 212.666666667 263 240 c 4
 259 258.666666667 262.333333333 276.333333333 273 293 c 5
 205 258 l 5
573 150 m 5
 574.305392686 106.922041361 600.784920743 65.0423363197 643 69 c 4
 679 72.3333333333 697.666666667 104 699 164 c 4
 700.333333333 226 681.666666667 257.333333333 643 258 c 4
 615 258.666666667 594.333333333 241.333333333 581 206 c 5
 581 190 578.333333333 171.333333333 573 150 c 5
727 206 m 5
 737.097376708 175.707869877 730.121092399 127.336367775 721 102 c 5
 729.796267922 72.3125957624 758.286999114 43.7144998524 796 50 c 4
 820.666666667 54.6666666667 833 89 833 153 c 4
 833 198.66931339 824.155266497 268.428031891 788 270 c 4
 755.53703047 271.708577344 733.067084119 236.335420593 727 206 c 5
353 318 m 4
 317.521035603 318 292 291.536298649 292 258 c 4
 292 223.739563472 320.727843786 197 354 197 c 4
 385.5681803 197 415 222.964020441 415 257 c 4
 415 291.298603498 388.052047302 318 353 318 c 4
EndSplineSet
EndChar
StartChar: nDa
Encoding: 3500 3500 147
Width: 731
GlyphClass: 2
Flags: HW
HStem: 0 115<213 357.962 441.771 587.323> 288 27<103 213 237.721 349> 385 47<247.25 329.474> 556 26<305.452 472.56>
VStem: 27 30<122.742 306.486> 134 52<142.258 236.573> 349 33<315 357.129> 385 31<147.562 214> 644 41<185.584 383.024>
LayerCount: 2
Back
Fore
SplineSet
285 -0 m 0
 200 0 134 74 134 158 c 0
 134 203 147 231 172 258 c 0
 187 273 200 283 213 288 c 1
 103 288 l 1
 103 315 l 1
 349 315 l 1
 348 349 321 385 288 385 c 0
 266 385 253 372 241 355 c 0
 233 344 218 339 204 339 c 0
 183 339 163 350 163 373 c 0
 163 385 169 392 176 402 c 1
 101 379 57 322 57 218 c 0
 57 137 83 74 135 29 c 1
 135 0 l 1
 68 33 27 119 27 221 c 0
 27 307 55 359 102 398 c 0
 133 423 158 432 198 432 c 0
 209 432 222 431 236 430 c 0
 239 431 247 432 260 432 c 0
 261 432 261 432 262 432 c 0
 338 432 381 367 382 288 c 1
 287 288 l 2
 241 288 186 247 186 202 c 0
 186 144 222 115 286 115 c 0
 335 115 385 139 385 187 c 2
 385 214 l 1
 416 214 l 1
 416 187 l 2
 416 140 462 115 512 115 c 0
 598 115 644 174 644 290 c 0
 644 360 621 421 575 474 c 0
 526 529 465 556 394 556 c 0
 309 556 243 527 194 468 c 1
 161 468 l 1
 218 544 296 582 396 582 c 0
 483 582 553 549 608 483 c 0
 659 421 685 346 685 258 c 0
 685 127 637 0 519 0 c 0
 472 0 432 20 401 59 c 1
 369 20 331 0 285 -0 c 0
EndSplineSet
EndChar
StartChar: tha
Encoding: 3501 3501 148
Width: 704
GlyphClass: 2
Flags: W
HStem: 0 25<468.462 554.313> 296 24<206.465 338.144> 365 70<310.901 452.829> 389 44<123.877 174.894>
VStem: 21 23<20.5217 45.9307> 37 77<298.769 383.301> 392 71<153.911 245.176>
LayerCount: 2
Back
Fore
SplineSet
207 349 m 5xd6
 253.715276118 398.051039924 341.048907741 435 435 435 c 4
 495 435 546.833333333 413.333333333 590.5 370 c 4
 634.166666667 326.666666667 658.333333333 274.333333333 663 213 c 4
 667 161 658.333333333 114.333333333 637 73 c 4
 613.666666667 27.6666666667 581 3.33333333333 539 0 c 4
 502.333333333 -2.66666666667 474.333333333 2.66666666667 455 16 c 5
 460 42 l 5
 478 30.6666666667 496.333333333 25 515 25 c 4
 528.333333333 25 540 28 550 34 c 4
 579.333333333 50.6666666667 594 83 594 131 c 4
 594 147 592.333333333 162.666666667 589 178 c 4
 564.979100946 283.234414902 476.590832477 365 348 365 c 4
 284.666666667 365 234.666666667 345 198 305 c 5
 221.333333333 315 250.333333333 320 285 320 c 4
 392.179319408 320 463 259.801073566 463 162 c 4
 463 67.0123654703 389.323447032 5.36080612903 299 -1 c 4
 235 -5 185.666666667 7.33333333333 151 36 c 4
 134.816586889 52.1834131114 109.130792742 83.4417041171 81 79 c 4
 66.3333333333 76.3333333333 54 52.6666666667 44 8 c 5
 21 26 l 5xea
 33.6666666667 97.3333333333 59.3333333333 163.666666667 98 225 c 4
 128.666666667 273.666666667 154.666666667 307 176 325 c 5
 177.333333333 333.666666667 178 341.666666667 178 349 c 4
 178 376.333333333 169.333333333 389.666666667 152 389 c 4
 135.333333333 388.333333333 125 377.833333333 121 357.5 c 4
 117 337.166666667 114.666666667 326.333333333 114 325 c 4
 108.13361502 306.423114229 95.7411467628 295 73 295 c 4
 47.4973918362 295 37 316.58246164 37 342 c 4
 37 387.575546087 80.6796903463 433 126 433 c 4
 184.549650546 433 203.469130621 406.670866518 207 349 c 5xd6
262 109 m 4
 326.762480651 109 392 148.104036488 392 209 c 4
 392 219 389.666666667 228.666666667 385 238 c 4
 366.333333333 276.666666667 331 296 279 296 c 4
 233 296 193 286 159 266 c 5
 143.298702977 246.111690438 107.197534912 189.99383728 96 162 c 4
 84.6666666667 136 78.3333333333 121.333333333 77 118 c 5
 92.3333333333 128.666666667 112.666666667 134 138 134 c 4
 158.666666667 134 177.5 129.833333333 194.5 121.5 c 4
 211.5 113.166666667 234 109 262 109 c 4
EndSplineSet
EndChar
StartChar: Tha
Encoding: 3502 3502 150
Width: 614
GlyphClass: 2
Flags: HW
HStem: -1 116<183.035 409.961> 363 32<366.02 451.238> 405 25<179.474 245>
VStem: 33 48<190.549 321.519> 524 42<227.648 370.483>
LayerCount: 2
Back
Fore
SplineSet
81 263 m 0
 81 157 184 115 301 115 c 0
 415 115 488 165 518 262 c 0
 522 275 524 289 524 304 c 0
 524 348 514 384 493 412 c 1
 474 379 448 363 413 363 c 0
 360 363 313 403 309 452 c 0
 309 457 309 462 309 467 c 0
 309 514 322 560 350 603 c 1
 401 582 449 539 493 472 c 0
 542 400 566 327 566 254 c 256
 566 181 541 120 490 72 c 0
 439 23 374 -1 295 -1 c 0
 222 -1 161 21 110 65 c 0
 59 110 33 167 33 238 c 0
 33 348 134 426 245 430 c 1
 245 405 l 1
 159 404 81 348 81 263 c 0
339 478 m 0
 339 431 364 395 409 395 c 0
 437 395 460 411 477 444 c 1
 467 463 451 484 430 507 c 0
 401 538 379 557 363 565 c 1
 347 549 339 520 339 478 c 0
EndSplineSet
EndChar
StartChar: da
Encoding: 3503 3503 151
Width: 456
GlyphClass: 2
Flags: HW
HStem: -234 30<372.259 409> -1 21G<213 237.667> 294 23<221.422 343> 383 50<217.091 310.338>
VStem: 249 70<-158.672 -66.9604>
LayerCount: 2
Back
Fore
SplineSet
343 317 m 5
 336 350 313 385 269 385 c 0
 242 385 229 380 214 360 c 4
 202 344 188 336 167 336 c 0
 149 336 140 347 140 368 c 4
 140 373 141 377 142 382 c 4
 155 416 185 433 232 433 c 4
 318 433 361 389 379 294 c 5
 286 294 l 6
 250 294 217 285 186 267 c 4
 155 249 140 213 140 160 c 4
 140 83 188 27 263 27 c 0
 306 27 346 49 384 92 c 5
 407 75 l 5
 388 56 375 42 368 32 c 4
 351 1 339 -23 333 -39 c 4
 324 -58 319 -76 319 -95 c 4
 319 -134 346 -176 375 -191 c 4
 381 -194 392 -199 409 -204 c 5
 409 -238 l 5
 395 -241 377 -242 355 -242 c 4
 331 -241 315 -239 306 -234 c 4
 268 -214 249 -183 249 -142 c 4
 249 -103 272 -53 319 10 c 5
 283 3 251 -1 224 -1 c 4
 202 -1 182 1 165 6 c 4
 78 30 31 83 31 170 c 0
 31 227 54 269 101 296 c 4
 125 310 174 317 248 317 c 6
 343 317 l 5
EndSplineSet
EndChar
StartChar: dha
Encoding: 3504 3504 153
Width: 638
GlyphClass: 2
Flags: W
HStem: 0 113<120.078 262.159 344.457 487.95> 373 25<158.376 221> 557 23<214.314 373.242>
VStem: 289 30<145.948 218>
LayerCount: 2
Back
Fore
SplineSet
319 185 m 2
 319 137.127049688 367.829957552 113 417 113 c 0
 497.666666667 113 541.333333333 170 548 284 c 0
 552.666666667 360 530.333333333 424.5 481 477.5 c 0
 431.666666667 530.5 369.333333333 557 294 557 c 0
 213.333333333 557 146.666666667 527.333333333 94 468 c 1
 65 468 l 1
 121.666666667 542.666666667 199.666666667 580 299 580 c 0
 378.333333333 580 445.666666667 551.333333333 501 494 c 0
 554.333333333 439.333333333 583.333333333 371.333333333 588 290 c 0
 592.666666667 214.666666667 582.666666667 150.333333333 558 97 c 0
 528.666666667 32.3333333333 483.333333333 0 422 0 c 0
 372.666666667 0 333 19.6666666667 303 59 c 1
 272.333333333 20.3333333333 234.666666667 0.666666666667 190 0 c 0
 139.333333333 -0.666666666667 99 22 69 68 c 0
 21.2025635607 140.83418886 22.5787230514 247.518708183 68 318 c 0
 99.793500476 366.683797604 145.304537763 398 221 398 c 1
 221 373 l 1
 182.333333333 376.333333333 148 362.666666667 118 332 c 0
 88 301.333333333 75.3333333333 264.666666667 80 222 c 0
 88 149.333333333 124 113 188 113 c 0
 238.911494873 113 289 138.004231683 289 185 c 2
 289 218 l 1
 319 218 l 1
 319 185 l 2
EndSplineSet
EndChar
StartChar: na
Encoding: 3505 3505 155
Width: 806
GlyphClass: 2
Flags: HW
HStem: 0 122<67 288> 0 28<557.299 662.207> 281 28<261.229 389.788>
VStem: 55 85<300.312 378.053> 444 54<152.092 236.701> 692 68<82.1557 207.93>
LayerCount: 2
Back
Fore
SplineSet
607 27 m 0
 664 27 692 56 692 115 c 4
 692 136 688 158 680 183 c 4
 663 238 630 282 579 315 c 4
 543 339 496 351 437 351 c 4
 373 351 316 332 266 295 c 5
 290 304 314 309 339 309 c 4x7c
 423 309 498 248 498 166 c 0
 498 52 399 0 278 -0 c 0
 158 0 57 46 26 131 c 5
 41 125 55 122 67 122 c 4xbc
 76 122 84 124 90 127 c 4
 116 141 135 181 151 207 c 4
 157 215 178 241 214 286 c 5
 219 298 221 311 221 324 c 4
 221 354 209 383 181 383 c 0
 157 383 143 368 140 345 c 4
 135 310 119 293 94 293 c 4
 68 293 55 309 55 340 c 4
 55 392 103 431 154 431 c 4
 210 431 253 383 253 327 c 0
 253 324 253 320 253 317 c 5
 307 375 407 432 512 432 c 0
 650 432 760 322 760 183 c 4
 760 84 706 -1 610 -1 c 0
 583 -1 560 6 542 21 c 5
 555 43 l 5
 568 32 586 27 607 27 c 0
444 200 m 4
 444 253 379 281 320 281 c 4
 218 281 185 210 145 144 c 4
 134 127 122 116 111 112 c 5
 145 106 186 103 228 103 c 0
 321 103 416 120 437 168 c 4
 442 179 444 190 444 200 c 4
EndSplineSet
EndChar
StartChar: nda
Encoding: 3507 3507 157
Width: 526
GlyphClass: 2
Flags: W
HStem: -1 44<281.703 389.443> 294 23<286.144 414> 389 42<292.547 379.216>
VStem: 32 28<167.382 321.285> 320 77<-162.322 -65.1969>
LayerCount: 2
Back
Fore
SplineSet
211 371 m 0
 211 383.292714746 214.818869611 386.66792762 221 398 c 1
 211.666666667 402.666666667 201 405 189 405 c 0
 154.333333333 405 121 385.666666667 89 347 c 0
 69.6666666667 323.666666667 60 290.333333333 60 247 c 0
 60 187 76.6666666667 141.333333333 110 110 c 1
 87.0915936003 190.179422399 110.288091531 259.795680365 172 296 c 0
 196 310 245 317 319 317 c 2
 414 317 l 1
 402.724485033 343.309534924 397.140348449 358.716376292 380 373 c 0
 363.333333333 387.666666667 342.666666667 393 318 389 c 0
 307.333333333 387 297.833333333 378.666666667 289.5 364 c 0
 277.538730262 342.948165261 246.773075381 327.381539695 223.5 346 c 0
 215.166666667 352.666666667 211 361 211 371 c 0
397 -87 m 0
 397 -154.25037099 434.324139017 -189.566062192 480 -210 c 1
 480 -238 l 1
 466 -240.666666667 448.333333333 -242 427 -242 c 0
 403 -241.333333333 386.333333333 -238.666666667 377 -234 c 0
 339 -214 320 -183.333333333 320 -142 c 0
 320 -134 320.666666667 -125.666666667 322 -117 c 0
 326 -88.3333333333 349 -46 391 10 c 1
 355 2.66666666667 323.333333333 -1 296 -1 c 0
 218.303360934 -1 157.220896067 33.1066328029 126 73 c 1
 70.4585652546 98.3558723838 32 167.271377902 32 248 c 0
 32 318.661349602 60.2460444311 365.170424681 101 398 c 0
 138.300049619 428.047262193 194.2017857 446.313265314 242 419 c 1
 263.333333333 431.666666667 293.666666667 435.666666667 333 431 c 0
 395.666666667 423.666666667 435 378 451 294 c 1
 346 294 l 2
 312.666666667 294 286.666666667 287 268 273 c 0
 234 247 218.666666667 211.333333333 222 166 c 0
 226.666666667 98.6666666667 265 58.3333333333 337 45 c 0
 345.666666667 43.6666666667 354 43 362 43 c 0
 395.333333333 43 426.333333333 59.3333333333 455 92 c 1
 478 75 l 1
 453.65218082 55.5217446557 418.308822525 -0.935296930691 404 -41 c 0
 399.333333333 -54.3333333333 397 -69.6666666667 397 -87 c 0
EndSplineSet
EndChar
StartChar: pa
Encoding: 3508 3508 158
Width: 616
GlyphClass: 2
Flags: W
HStem: 0 117<159.043 444.475> 388 44<129.333 238.607> 404 29<383.79 485.2>
VStem: 245 30<321.179 376.934> 321 33<325 377.861> 506 34<315.531 387.125> 522 52<163.756 267.654>
LayerCount: 2
Back
Fore
SplineSet
150 432 m 4xda
 229.603115937 432 275 404.358400451 275 335 c 4
 275 323.666666667 273.666666667 311 271 297 c 5
 226.333333333 301.666666667 186.333333333 299.333333333 151 290 c 4
 110.333333333 278.666666667 90 256 90 222 c 4
 90 213.333333333 91.6666666667 204.333333333 95 195 c 4
 111.666666667 143 184.333333333 117 313 117 c 4
 435.666666667 117 504 142.333333333 518 193 c 4
 520.666666667 203.666666667 522 213.666666667 522 223 c 4xda
 522 265 497.333333333 289.666666667 448 297 c 4
 412.666666667 302.333333333 371.333333333 302.333333333 324 297 c 5
 322 308.333333333 321 319 321 329 c 4
 321 399.651741027 371.03527937 435.457859693 446 433 c 4
 494.352306154 431.791192346 540 402.480176824 540 355 c 4xbc
 540 331 531.333333333 313.666666667 514 303 c 5
 554 279.666666667 574 241.333333333 574 188 c 4
 574 55.9371456961 448.198054734 0 307 0 c 4
 163.233510335 0 42.0168670382 43.9356335304 32 167 c 4
 26 243 61.3333333333 291.666666667 138 313 c 4
 176.666666667 323.666666667 212 326.333333333 244 321 c 5
 244.666666667 326.333333333 245 331.666666667 245 337 c 4
 245 371 228 388 194 388 c 4
 176 388 162.333333333 381.333333333 153 368 c 4
 139.666666667 348 123.333333333 335 104 329 c 4
 100.666666667 328.333333333 97.3333333333 328 94 328 c 4
 74.4817684709 328 60 345.944435511 60 366 c 4
 60 373.333333333 61.6666666667 380 65 386 c 4
 80.3333333333 416.666666667 108.666666667 432 150 432 c 4xda
489 315 m 5
 500.333333333 323.666666667 506 335 506 349 c 260
 506 378.773073595 480.682879393 402.763213359 451 404 c 4xbc
 393.633672845 407.512224112 346.50619039 380.454191115 354 325 c 5
 388 327 409 327.666666667 417 327 c 4
 446.333333333 325.666666667 470.333333333 321.666666667 489 315 c 5
EndSplineSet
EndChar
StartChar: pha
Encoding: 3509 3509 160
Width: 583
GlyphClass: 2
Flags: W
HStem: 0 115<148.154 385.789> 288 27<128.603 248> 359 43<327.376 430.644> 382 50<147.17 229.369>
VStem: 248 34<315 359.921> 272 32<432.29 557.898>
LayerCount: 2
Back
Fore
SplineSet
278 115 m 0xd8
 398.476144267 115 493 178.184431773 493 297 c 0
 493 337.666666667 481.666666667 375.666666667 459 411 c 1
 444.333333333 378.333333333 416 361 374 359 c 0
 312.655069787 356.273558657 270.721533211 415.63359413 272 477 c 0xe4
 272.666666667 530.333333333 287 570.333333333 315 597 c 1
 376.862207151 564.440943605 444.944714374 490.277311535 481 428 c 0
 520.333333333 360.666666667 537.666666667 291.333333333 533 220 c 0
 525.05207525 94.1578581261 422.469938069 1.32469938069 290 0 c 0
 145.609843651 -1.15512125079 23.9760745715 50.6490937152 33 183 c 0
 38.1804934685 271.068388964 102.934684329 315 206 315 c 2
 248 315 l 1
 246.820819513 348.017053629 223.482056348 382 191 382 c 0
 169.526872107 382 152.582961786 367.877992307 143 355.5 c 0
 131.520362112 340.672134394 95.1216440932 323.878355907 75.5 343.5 c 0
 67.8333333333 351.166666667 64 360.333333333 64 371 c 0
 64 384.333333333 71.6666666667 397.666666667 87 411 c 0
 102.333333333 424.333333333 127.666666667 431.333333333 163 432 c 0
 240.540910414 433.384659115 279.479340079 367.400787501 282 288 c 1
 188 288 l 2
 133.876503933 288 80 258.744292735 80 209 c 0
 80 135.726305184 188.036472593 115 278 115 c 0xd8
304 496 m 0
 304 438.662277766 328.988444968 402 382 402 c 0
 409.333333333 402 429.333333333 414.333333333 442 439 c 1
 428.666666667 460.333333333 410.666666667 482 388 504 c 0
 376 516.666666667 354 535.666666667 322 561 c 1
 310 549 304 527.333333333 304 496 c 0
EndSplineSet
EndChar
StartChar: ba
Encoding: 3510 3510 161
Width: 619
GlyphClass: 2
Flags: W
HStem: -2 92<310.147 417.586> 122 29<114.398 182.956> 296 100<145.744 343.024> 558 27<199.851 379.397>
VStem: 33 33<88.7988 215.403> 80 20<88 103.347> 273 37<63.188 137.687> 524 51<230.058 417.164>
LayerCount: 2
Back
Fore
SplineSet
381 -2 m 4
 321.201842249 -2 273 34.5565970056 273 94 c 4
 273 120 283 140 303 154 c 5
 321 162.666666667 338.666666667 171.833333333 356 181.5 c 4
 373.333333333 191.166666667 380.666666667 206.333333333 378 227 c 4
 372.666666667 271.666666667 326.333333333 294.666666667 239 296 c 4
 141.406241547 297.841391669 66 243.118013456 66 148 c 260
 66 128 70.6666666667 108 80 88 c 5
 80 132.093067329 112.437531724 151 153 151 c 4
 197 151 222.333333333 127 229 79 c 4
 234.768405778 34.2948552184 196.854572952 2.60481526045 156 -1 c 4
 110 -5 76 19 54 71 c 4
 40 104.333333333 33 143 33 187 c 4
 33 313.687620491 120.106831661 396 247 396 c 4
 338.787219745 396 423 344.764432331 423 257 c 4
 423 213.752313709 409.099144266 183.98119583 383 165 c 5
 366.333333333 157 350 149 334 141 c 4
 318 133 310 123.666666667 310 113 c 4
 310 97.6666666667 321.666666667 90 345 90 c 4
 359.666666667 90 377 93.6666666667 397 101 c 4
 428.333333333 113 456.833333333 141.333333333 482.5 186 c 4
 508.166666667 230.666666667 522 275 524 319 c 4
 530.602028904 457.642606981 437.625388251 556.667075364 303 558 c 4
 203 559.333333333 133.666666667 530 95 470 c 5
 64 470 l 5
 98.6666666667 542 172.666666667 580.333333333 286 585 c 4
 361.333333333 588.333333333 425.333333333 568 478 524 c 4
 544.415133245 468.513939314 575 394.436007395 575 284 c 4
 575 156.402875925 522.958644582 21.1097408759 423 2 c 4
 407.666666667 -0.666666666667 393.666666667 -2 381 -2 c 4
149 122 m 260
 122.567804326 122 100 101.483658515 100 75 c 4
 100 47.1823663279 121.183008152 26 149 26 c 4
 175.432195674 26 198 47.5424855071 198 74 c 260
 198 100.458248006 175.431370471 122 149 122 c 260
EndSplineSet
EndChar
StartChar: bha
Encoding: 3511 3511 163
Width: 670
GlyphClass: 2
Flags: HW
HStem: 2 27<368 431.062> 276 27<6 139> 326 106<373.99 480.097>
VStem: 51 54<142.352 220.8>
LayerCount: 2
Back
Fore
SplineSet
51 144 m 0
 51 206 80 248 139 276 c 1
 6 276 l 1
 6 303 l 1
 224 303 l 1
 219 337 203 371 170 371 c 0
 150 371 138 363 128 350 c 0
 118 336 106 330 87 330 c 0
 64 330 52 342 52 366 c 0
 52 405 97 432 138 432 c 0
 214 432 254 361 255 281 c 1
 251 281 247 281 243 281 c 0
 180 281 105 249 105 193 c 0
 105 141 145 115 226 115 c 0
 273 115 306 129 323 158 c 0
 328 165 330 173 330 181 c 0
 330 201 320 208 309 208 c 0
 298 208 286 201 278 192 c 1
 255 192 l 1
 258 238 273 283 298 327 c 0
 338 397 388 432 449 432 c 0
 559 432 621 327 621 211 c 0
 621 92 529 -1 409 -1 c 0
 396 -1 382 0 368 2 c 1
 368 29 l 1
 382 26 396 25 409 25 c 0
 492 25 545 78 545 162 c 0
 545 199 534 237 517 265 c 0
 493 306 462 326 408 326 c 0
 340 326 301 294 291 231 c 1
 298 235 306 237 314 237 c 0
 321 237 328 235 336 232 c 0
 365 220 381 190 381 144 c 0
 381 54 299 0 215 0 c 0
 176 0 136 12 104 37 c 0
 69 65 51 101 51 144 c 0
EndSplineSet
EndChar
StartChar: ma
Encoding: 3512 3512 164
Width: 635
GlyphClass: 2
Flags: HW
HStem: 0 115<181.687 415.368> 405 27<118.615 172.826 278.275 346.986> 560 26<221.492 385.694>
VStem: 33 43<213.029 346.007> 173 32<254.579 404.341> 233 30<321.94 391.984> 360 28<323.321 376.695> 401 30<259.979 373.926> 538 47<231.235 404.982>
LayerCount: 2
Back
Fore
SplineSet
306 277 m 0
 263 277 233 314 233 356 c 4
 233 403 273 437 320 437 c 4
 386 437 431 377 431 309 c 4
 431 234 367 184 298 184 c 0
 271 184 243 192 219 209 c 4
 189 230 174 257 173 292 c 4
 173 304 178 356 178 368 c 4
 178 393 169 405 151 405 c 4
 106 405 76 337 76 287 c 4
 76 274 78 261 81 248 c 4
 104 159 181 115 311 115 c 4
 450 115 538 195 538 334 c 4
 538 396 516 449 472 493 c 4
 427 538 373 560 304 560 c 0
 222 560 157 530 110 469 c 5
 78 469 l 5
 134 546 209 586 307 586 c 0
 382 586 446 558 499 504 c 4
 556 445 585 376 585 289 c 0
 585 215 562 150 515 94 c 4
 462 31 394 0 302 -0 c 0
 145 0 33 90 33 245 c 0
 33 327 81 432 155 432 c 4
 199 432 207 403 207 365 c 0
 207 344 205 321 205 299 c 4
 207 249 251 218 305 218 c 0
 366 218 402 254 402 323 c 0
 402 345 396 364 384 377 c 5
 387 370 388 362 388 354 c 4
 388 310 352 277 306 277 c 0
313 407 m 4
 285 407 263 384 263 356 c 4
 263 330 284 308 310 308 c 4
 339 308 360 331 360 359 c 4
 360 386 340 407 313 407 c 4
EndSplineSet
EndChar
StartChar: mba
Encoding: 3513 3513 166
Width: 636
GlyphClass: 2
Flags: HW
HStem: 0 117<408.75 484.661> 177 27<282.994 358.13> 291 28<286.995 351.826> 405 27<109.665 170.186 284.665 353.812> 554 24<207.168 384.272>
VStem: 169 29<303.389 382.221> 365 27<332.908 365> 377 32<116.874 160.143>
LayerCount: 2
Back
Fore
SplineSet
144 405 m 0
 92 405 67 330 67 273 c 0
 67 195 102 138 161 120 c 0
 170 117 180 116 190 116 c 0
 201 116 213 117 226 121 c 1
 229 171 268 204 323 204 c 0
 367 204 409 172 409 128 c 0
 409 124 409 120 408 117 c 1xfd
 412 117 415 117 419 117 c 0
 507 117 547 209 547 304 c 0
 547 364 528 418 492 465 c 0
 446 526 384 554 301 554 c 0
 205 554 136 525 93 466 c 1
 62 466 l 1
 93 509 129 539 170 556 c 0
 205 571 250 578 306 578 c 0
 397 578 466 546 520 477 c 0
 567 416 590 342 590 254 c 0
 590 125 540 0 420 0 c 0
 389 0 364 6 344 19 c 1
 366 47 377 77 377 108 c 0
 377 153 359 177 320 177 c 0
 281 177 255 142 255 103 c 0
 255 70 265 42 285 21 c 1
 252 5 243 -1 209 -1 c 0
 141 -1 102 20 67 80 c 0
 43 122 30 169 30 222 c 0
 30 318 65 432 150 432 c 0
 182 432 198 411 198 368 c 0
 198 363 198 358 198 353 c 0
 198 300 240 257 293 257 c 0
 341 257 373 275 389 311 c 0
 392 318 394 328 394 340 c 0
 394 347 393 356 392 365 c 1xfe
 393 324 359 291 318 291 c 0
 275 291 243 319 243 360 c 0
 243 402 278 434 321 434 c 0
 381 434 422 399 422 340 c 0
 422 275 364 230 298 230 c 0
 266 230 237 239 211 258 c 0
 183 279 169 307 169 342 c 0
 169 377 169 394 170 394 c 0
 170 394 171 390 171 381 c 1
 170 398 162 405 144 405 c 0
320 409 m 0
 295 409 273 388 273 364 c 0
 273 339 295 319 320 319 c 0
 344 319 365 339 365 364 c 256xfe
 365 389 344 409 320 409 c 0
EndSplineSet
EndChar
StartChar: ya
Encoding: 3514 3514 167
Width: 636
GlyphClass: 2
Flags: W
HStem: -1 116<113.75 265.038> 300 25<350.391 484.093> 362 27<160.96 251>
VStem: 294 29<142.744 197> 321 29<319 361.938>
LayerCount: 2
Back
Fore
SplineSet
323 171 m 6xf0
 323 132.108095461 391.498068874 111.472816395 435 115 c 4
 495.097763445 119.807821076 526.97250281 131.917508431 542 177 c 4
 544.666666667 185.666666667 546 194.666666667 546 204 c 4
 546 274.621352424 480.204301731 300 407 300 c 4
 377 300 348.666666667 296.333333333 322 289 c 5
 321.333333333 296.333333333 321 303.333333333 321 310 c 4xe8
 321 388.666666667 363 429.666666667 447 433 c 4
 510.333333333 435.666666667 547 413.333333333 557 366 c 4
 562.172776954 340.136115229 542.325618825 305.665702353 521 303 c 5
 564.333333333 277 588 233.666666667 592 173 c 4
 595.333333333 127 581.666666667 86.1666666667 551 50.5 c 4
 520.333333333 14.8333333333 482 -2.33333333333 436 -1 c 4
 370 1 327 25 307 71 c 5
 284.333333333 23 244 -1 186 -1 c 4
 132 -1 89.6666666667 22.6666666667 59 70 c 4
 37 104.666666667 27.6666666667 148.666666667 31 202 c 4
 36.3333333333 280.666666667 69.3333333333 335.666666667 130 367 c 4
 159.333333333 381.666666667 190.333333333 389 223 389 c 4
 233 389 242.333333333 388.333333333 251 387 c 5
 251 359 l 5
 241.666666667 361 232 362 222 362 c 4
 150.765312039 362 83.2855049697 309.068812121 78 243 c 4
 71.3711320882 167.430905805 107.273237882 117.66893442 178 115 c 4
 221.937359616 112.956401878 294 128.445100762 294 168 c 6
 294 197 l 5
 323 197 l 5
 323 171 l 6xf0
350 319 m 5
 364.666666667 323 384.666666667 325 410 325 c 4
 446 325 475 321.333333333 497 314 c 5
 511.666666667 322 519 334 519 350 c 4
 519 359.333333333 516 367.666666667 510 375 c 4
 487.295435017 405.27275331 416.337260061 401.071402797 384 381 c 4
 362.666666667 367 351.333333333 346.333333333 350 319 c 5
EndSplineSet
EndChar
StartChar: ra
Encoding: 3515 3515 169
Width: 528
GlyphClass: 2
Flags: W
HStem: 0 117<150.231 330.272>
VStem: 29 43<181.736 306.42> 412 70<200.034 319.796>
LayerCount: 2
Back
Fore
SplineSet
269 412 m 0
 181.548737595 412 72 350.580344239 72 255 c 256
 72 216.333333333 87 182 117 152 c 0
 140.333333333 128.666666667 176.666666667 117 226 117 c 0
 290 117 337 133.666666667 367 167 c 0
 397 200.333333333 412 236 412 274 c 0
 412 306 399.833333333 337 375.5 367 c 0
 351.166666667 397 315.666666667 412 269 412 c 0
248 0 m 0
 124.005691754 0 29 92.2578904439 29 216 c 0
 29 322.249120963 101.649606122 388.357652487 182 421 c 0
 216 433.666666667 249.666666667 446.333333333 283 459 c 0
 325.666666667 476.333333333 365.333333333 496.666666667 402 520 c 0
 422.666666667 533.333333333 440.333333333 548.333333333 455 565 c 0
 472.333333333 583.666666667 483.833333333 595.166666667 489.5 599.5 c 0
 495.166666667 603.833333333 501.333333333 606 508 606 c 0
 520.666666667 606 527.333333333 601 528 591 c 0
 530 563 506.666666667 535 458 507 c 0
 401.333333333 475 346.333333333 451 293 435 c 1
 399.217396223 424.762178677 483.368863726 336.984552958 482 222 c 0
 481.333333333 154 451.666666667 95.6666666667 393 47 c 0
 355 15.6666666667 306.666666667 0 248 0 c 0
EndSplineSet
EndChar
StartChar: la
Encoding: 3517 3517 170
Width: 670
GlyphClass: 2
Flags: W
HStem: -154 52<298.221 475.777> 282 26<265 368 396 518> 402 30<305.278 482.685>
VStem: 31 117<46.9614 248.536> 368 28<255.13 282> 575 36<248.939 341.021> 590 34<-8.87843 84>
LayerCount: 2
Back
Fore
SplineSet
364 432 m 4xfa
 487.723247276 432 611 392.629560315 611 280 c 4
 611 244.666666667 597.166666667 216.666666667 569.5 196 c 4
 517.695367353 157.302563565 439.225693863 162.774306137 397.5 204.5 c 4
 377.833333333 224.166666667 368 250 368 282 c 5
 265 282 l 5
 265 308 l 5
 518 308 l 5
 518 282 l 5
 396 282 l 5
 397.480307149 250.91354987 448.13697334 225.133207816 481 224 c 4
 530.972950652 222.810167842 575 245.997956388 575 293 c 4xfc
 575 299 574.333333333 305 573 311 c 4
 556.631362247 372.382391572 483.382651241 402 401 402 c 4
 255.37979174 402 148 311.410141172 148 168 c 4
 148 155.333333333 148.666666667 142.333333333 150 129 c 4
 164.666666667 -0.333333333333 233.666666667 -75.6666666667 357 -97 c 4
 375.666666667 -100.333333333 394 -102 412 -102 c 4
 508.56015168 -102 565.060272167 -48.8559539826 588 26 c 4
 595.333333333 50.6666666667 596 70 590 84 c 5
 624 84 l 5
 625.333333333 58.6666666667 621.666666667 32 613 4 c 4
 585.363570818 -89.0911298766 484.910299111 -150.346553153 368 -154 c 4
 276 -156.666666667 198.333333333 -134 135 -86 c 4
 64.3333333333 -32.6666666667 29.6666666667 41 31 135 c 4
 32.3333333333 232.333333333 66.3333333333 307.666666667 133 361 c 4
 193 408.333333333 270 432 364 432 c 4xfa
EndSplineSet
EndChar
StartChar: va
Encoding: 3520 3520 172
Width: 597
GlyphClass: 2
Flags: HW
HStem: 0 115<138.506 393.544> 280 24<134.058 257> 389 43<148.81 236.613> 552 25<194.062 353.724>
VStem: 257 35<304 365.682>
LayerCount: 2
Back
Fore
SplineSet
57 470 m 5
 106 541 179 577 276 577 c 0
 356 577 421 547 473 486 c 4
 523 427 548 357 548 274 c 4
 548 198 525 134 480 83 c 4
 430 26 366 0 282 -0 c 0
 140 0 33 40 33 169 c 0
 33 249 101 304 184 304 c 6
 257 304 l 5
 257 306 257 309 257 311 c 0
 257 352 232 389 195 389 c 4
 167 389 148 372 136 352 c 4
 126 336 114 323 92 323 c 4
 72 323 58 338 58 358 c 0
 58 361 58 364 59 367 c 4
 68 410 101 432 160 432 c 4
 249 432 292 384 292 290 c 0
 292 287 292 283 292 280 c 5
 194 280 l 6
 144 280 87 257 87 211 c 0
 87 126 186 115 288 115 c 4
 431 115 506 182 506 317 c 0
 506 377 486 430 446 476 c 4
 402 526 345 552 276 552 c 4
 197 552 135 525 90 470 c 5
 57 470 l 5
EndSplineSet
EndChar
StartChar: sha
Encoding: 3521 3521 174
Width: 631
GlyphClass: 2
Flags: HW
HStem: 155 28<429.337 531.281> 218 24<242.193 288.691> 408 22<223.438 251>
VStem: 34 39<177.541 311.446> 208 25<192 213.81> 367 31<34.8741 127.01> 507 75<12 239.643>
LayerCount: 2
Back
Fore
SplineSet
208 192 m 1
 218 311 282 432 401 432 c 0
 466 432 510 403 543 347 c 0
 569 303 582 253 582 196 c 0
 582 128 558 37 529 1 c 1
 502 1 l 1
 505 6 507 10 507 14 c 0
 507 21 503 24 496 24 c 0
 493 24 490 23 487 22 c 0
 473 14 473 14 459 6 c 0
 448 0 439 -3 429 -3 c 0
 394 -3 367 33 367 72 c 0
 367 136 410 183 483 183 c 0
 500 183 517 180 532 175 c 1
 512 278 461 330 380 330 c 0
 311 330 258 294 242 240 c 1
 249 241 255 242 262 242 c 0
 314 242 344 204 344 137 c 0
 344 59 279 -1 201 -1 c 0
 92 -1 34 91 34 204 c 0
 34 275 53 332 92 372 c 0
 131 412 174 432 223 432 c 0
 232 432 242 431 251 430 c 1
 251 408 l 1
 246 408 242 408 238 408 c 0
 151 408 73 335 73 251 c 0
 73 165 129 113 217 113 c 0
 260 113 303 131 303 171 c 0
 303 196 285 218 260 218 c 0
 253 218 246 217 239 214 c 1
 238 210 236 203 233 192 c 1
 208 192 l 1
432 28 m 0
 456 28 480 55 502 55 c 0
 510 55 516 52 519 42 c 1
 525 63 529 82 530 97 c 0
 531 112 531 112 533 142 c 1
 525 151 501 156 480 156 c 0
 426 156 398 123 398 77 c 0
 398 47 411 28 432 28 c 0
EndSplineSet
EndChar
StartChar: Sha
Encoding: 3522 3522 175
Width: 598
GlyphClass: 2
Flags: W
HStem: 0 108<153.564 429.825> 159 27<214.32 385.25> 240 23<219.744 381.168> 295 21<139.156 237.952 336.114 446.121> 389 44<149.219 224.897> 407 25<368.164 464.579>
VStem: 55 92<336.91 386.834> 238 26<316 367.086> 307 28<318 379.595>
LayerCount: 2
Back
Fore
SplineSet
238 329 m 0xf780
 238 364.321156634 212.987237639 389 178 389 c 0
 162.666666667 389 152.333333333 381 147 365 c 0
 139 341 120.666666667 329 92 329 c 0
 67.3333333333 329 55 340.666666667 55 364 c 0
 55 368.666666667 56 373.333333333 58 378 c 0
 74.6666666667 417.333333333 112 435.666666667 170 433 c 0xfb80
 232.666666667 429.666666667 264 394.666666667 264 328 c 0
 264 317.333333333 263 306.333333333 261 295 c 1
 209.666666667 295 175 293.333333333 157 290 c 0
 118.802684488 283.055033543 76 251.865756484 76 209 c 0
 76 199.666666667 77.6666666667 190.666666667 81 182 c 0
 101 132.666666667 172.333333333 108 295 108 c 0
 422.333333333 108 493.333333333 136 508 192 c 0
 509.333333333 198 510 204.333333333 510 211 c 0
 510 235.666666667 498 255.333333333 474 270 c 1
 453.734366528 259.867183264 426.558734861 255.085413062 401 249 c 1
 420.333333333 240.333333333 430 227.333333333 430 210 c 0
 430 203.333333333 428.333333333 197 425 191 c 0
 414.333333333 171.666666667 372 161 298 159 c 0
 238.070509529 157.776949174 164.611153659 166.153171345 170 216 c 0
 172 236 185.666666667 249.333333333 211 256 c 0
 225.666666667 260 253.666666667 262.333333333 295 263 c 0
 314.333333333 263 345 264.666666667 387 268 c 0
 404.516151232 272.379037808 430.881076004 275.899203295 451 283 c 1
 419.823044981 298.588477509 363.379707411 297.747984041 313 295 c 1
 309 309.666666667 307 323.333333333 307 336 c 0
 307 402.108788634 357.031194749 434.455045798 427 432 c 0
 474.992386089 430.702908484 512.939025696 399.670717341 517 355 c 0
 519.666666667 325 510.666666667 302.666666667 490 288 c 1
 534.666666667 256 554.333333333 212 549 156 c 0
 539.013965306 49.0067711409 423.353710474 0 298 0 c 0
 157.174655628 0 40.9098823192 47.665714695 31 168 c 0
 23.7529623713 246.26800639 86.8775268074 301.243820022 155 312 c 0
 172.333333333 314.666666667 199.666666667 316 237 316 c 1
 237.666666667 320.666666667 238 325 238 329 c 0xf780
338 318 m 1
 395.823712954 321.125606106 432.672234908 318.233685209 468 300 c 1
 482 313.333333333 489 329 489 347 c 0
 489 380.302998922 463.941755909 405.733009388 431 407 c 0xf780
 376.768123856 409.30773941 335 388.167503049 335 339 c 0
 335 332.333333333 336 325.333333333 338 318 c 1
296 240 m 0
 236 240 206 230 206 210 c 0
 206 194 238.333333333 186 303 186 c 0
 365.666666667 186 396 195.666666667 394 215 c 0
 392.666666667 231.666666667 360 240 296 240 c 0
EndSplineSet
EndChar
StartChar: sa
Encoding: 3523 3523 176
Width: 670
GlyphClass: 2
Flags: HW
HStem: -1 117<131.032 283.605 382.712 547.017> 284 24<5 142 172.998 280> 323 109<113.168 174.316>
VStem: 317 33<144.37 198> 541 38<306.596 376.203>
LayerCount: 2
Back
Fore
SplineSet
550 297 m 5
 600 273 628 227 628 160 c 0
 628 120 614 85 586 54 c 4
 554 18 514 0 464 0 c 4
 399 0 356 27 333 82 c 5
 312 27 267 -1 199 -1 c 4
 116 -1 51 70 51 154 c 4
 51 222 81 265 142 284 c 5
 5 284 l 5
 5 308 l 5
 280 308 l 5
 276 355 268 379 223 379 c 0
 222 379 220 379 219 379 c 4
 200 379 186 369 177 350 c 4
 169 332 152 323 128 323 c 0
 102 323 89 334 89 362 c 0
 89 407 136 433 186 433 c 0
 270 433 312 383 312 298 c 0
 312 292 311 286 311 279 c 5
 282 281 258 281 240 281 c 0
 171 281 104 257 104 195 c 0
 104 140 144 116 220 116 c 4
 261 116 317 134 317 171 c 6
 317 198 l 5
 350 198 l 5
 350 171 l 6
 350 134 427 116 470 116 c 4
 530 116 579 142 579 199 c 4
 579 267 512 289 441 289 c 0
 411 289 380 285 353 279 c 5
 353 283 353 287 353 291 c 0
 353 375 398 432 481 432 c 0
 532 432 564 410 577 365 c 4
 578 360 579 354 579 349 c 4
 579 328 566 301 550 297 c 5
541 340 m 4
 541 375 506 392 471 392 c 4
 418 392 389 365 386 310 c 5
 403 314 427 316 456 316 c 4
 487 315 510 312 526 306 c 5
 536 317 541 328 541 340 c 4
EndSplineSet
EndChar
StartChar: ha
Encoding: 3524 3524 178
Width: 653
GlyphClass: 2
Flags: W
HStem: 2 27<352 415.031> 278 26<127.725 205.687> 336 96<355.691 484.338>
VStem: 33 52<148.86 233.386> 239 22<188.818 201.082> 547 58<120.277 266.859>
LayerCount: 2
Back
Fore
SplineSet
85 201 m 4
 85 140.660259632 146.024888792 114.680497776 212 116 c 4
 265.99095974 117.316852677 321 136.853653567 321 185 c 4
 321 203.666666667 311 212.333333333 291 211 c 4
 277 210.333333333 267 200.666666667 261 182 c 5
 239 192 l 5
 242.333333333 240.666666667 256 285.666666667 280 327 c 4
 320.666666667 397.666666667 371.333333333 432.666666667 432 432 c 4
 541.893172821 430.659839356 603.684286953 329.782748123 605 214 c 4
 606.380702513 99.4016913965 521.17800308 11.4048437074 416 0 c 4
 395.333333333 -2 374 -1.33333333333 352 2 c 5
 352 29 l 5
 429.368274352 19.1231990189 482.952456179 39.5815139168 518 86.5 c 4
 538.666666667 114.166666667 548.333333333 146 547 182 c 4
 544.001856069 270.445245953 499.874787251 336 411 336 c 4
 337.719510202 336 290.022909324 287.257659804 271 229 c 5
 285.666666667 238.333333333 301.666666667 239.333333333 319 232 c 4
 346.333333333 220.666666667 361.666666667 194.333333333 365 153 c 4
 372.093940193 64.3257475859 301.740224044 6.0157523963 210 0 c 4
 162.666666667 -3.33333333333 121.333333333 9.16666666667 86 37.5 c 4
 50.6666666667 65.8333333333 33 103.666666667 33 151 c 4
 33 197 48 234 78 262 c 4
 108 290 144 304 186 304 c 4
 192.666666667 304 199.333333333 303.666666667 206 303 c 5
 202.666666667 329.666666667 196.666666667 348.333333333 188 359 c 4
 162.576368724 390.476876819 123.803440095 392.839017794 105.5 355.5 c 4
 97.1666666667 338.5 87.3333333333 329.333333333 76 328 c 4
 51.3333333333 324 37.6666666667 334.333333333 35 359 c 4
 30.5894996937 403.105003063 76.0501315779 433.182891274 121 432 c 4
 197.787039137 430.52332617 237.815126326 359.756283513 239 278 c 5
 201.666666667 281.333333333 173.666666667 280.333333333 155 275 c 4
 108.333333333 263 85 238.333333333 85 201 c 4
EndSplineSet
EndChar
StartChar: La
Encoding: 3525 3525 180
Width: 636
GlyphClass: 2
Flags: W
HStem: -153 95<279.644 455.128> 271 24<163.482 541> 402 30<212.24 303.594 402.109 496.085>
VStem: 31 90<89.125 207.859> 127 36<295 355.965> 333 31<330 366.961> 541 35<296 356.634> 591 27<21.002 74>
LayerCount: 2
Back
Fore
SplineSet
31 114 m 4
 31 192.455527344 73.6800086991 259.720004451 127 287 c 5
 126.333333333 324.333333333 138.666666667 357.833333333 164 387.5 c 4
 189.333333333 417.166666667 221.333333333 432 260 432 c 4
 304 432 334 413 350 375 c 5
 368 413.666666667 401.666666667 432.666666667 451 432 c 4
 533.262847369 430.605714451 574.737447608 358.116115078 576 271 c 5
 249 271 l 6
 201.666666667 271 173 269 163 265 c 5
 168.64422557 190.214011198 266.572428641 136 352 136 c 4
 426.666666667 136 475.666666667 153.333333333 499 188 c 5
 530 188 l 5
 508.666666667 97.3333333333 446 49 342 43 c 4
 286.666666667 39.6666666667 238 59.6666666667 196 103 c 4
 156 143.666666667 134.333333333 191.666666667 131 247 c 5
 124.333333333 226.333333333 121 205.333333333 121 184 c 4
 121 138 136 92 166 46 c 4
 206.315689238 -15.1237869091 298.349172108 -59.3375108933 400 -58 c 4
 501.347319896 -55.7478373356 589.452186538 -18.8688077164 591 74 c 5
 618 74 l 5
 618 8 589.333333333 -46.6666666667 532 -90 c 4
 480 -129.333333333 416.666666667 -150.333333333 342 -153 c 4
 256 -156.333333333 182.5 -132 121.5 -80 c 4
 60.5 -28 30.3333333333 36.6666666667 31 114 c 4
451 401 m 4
 405.118539483 401 369.352310708 370.142330307 364 330 c 5
 333 330 l 5
 330.317651786 367.55287499 300.892726837 404.618295427 259 402 c 4
 203.722543036 399.303538685 163 353.579313802 163 295 c 5
 176.333333333 299 302.333333333 299.333333333 541 296 c 5
 539.707262018 350.294995246 506.438044388 401 451 401 c 4
EndSplineSet
EndChar
StartChar: fa
Encoding: 3526 3526 182
Width: 616
GlyphClass: 2
Flags: W
HStem: -1 27<143.507 219.438 388 457.542> 319 112<120.833 255.191>
VStem: 33 39<102.706 263.797> 280 32<212 292.766> 523 45<100.831 261.825>
LayerCount: 2
Back
Fore
SplineSet
280 254 m 2
 280 295.415253905 241.894851582 319 198 319 c 0
 113.406658082 319 72.7222448805 266.113875422 72 178 c 0
 70.7686290806 109.043228512 120.927914915 26 188 26 c 0
 198.666666667 26 209.333333333 28 220 32 c 1
 220 6 l 1
 206.666666667 1.33333333333 194 -1 182 -1 c 0
 160.666666667 -1 138.333333333 6.33333333333 115 21 c 0
 63 54.3333333333 35.6666666667 117.333333333 33 210 c 0
 31.6666666667 264 43 312.666666667 67 356 c 0
 94.3333333333 406 131.333333333 431 178 431 c 0
 234 431 273.333333333 407 296 359 c 1
 314.666666667 404.333333333 355.333333333 428.333333333 418 431 c 0
 516.287741196 435.4676246 569.158454843 317.419390744 568 212 c 0
 566.666666667 139.333333333 546 81.3333333333 506 38 c 0
 482.666666667 12.6666666667 454 0 420 0 c 0
 409.333333333 0 398.666666667 1.33333333333 388 4 c 1
 388 29 l 1
 396 27 404 26 412 26 c 0
 446.666666667 26 474.666666667 44.3333333333 496 81 c 0
 514.666666667 111 523.666666667 142 523 174 c 0
 521.666666667 262 484.666666667 309.666666667 412 317 c 0
 362.296215117 322.097824091 312 299.965090571 312 254 c 2
 312 212 l 1
 280 212 l 1
 280 254 l 2
EndSplineSet
EndChar
StartChar: al
Encoding: 3530 3530 183
Width: 8
GlyphClass: 2
Flags: W
HStem: 468 29<-112.453 -40.8262>
VStem: -140 27<377 478 498.5 638>
LayerCount: 2
Back
Fore
SplineSet
-140 377 m 5
 -140 681 l 5
 -128.666666667 671.666666667 -108.333333333 660.333333333 -79 647 c 4
 -27.4562841721 623.57103826 8.52657904999 604.410258951 10 544 c 4
 11.3784235545 501.268869811 -24.8083679498 468 -68 468 c 4
 -82.6666666667 468 -97.6666666667 471.333333333 -113 478 c 5
 -113 331 l 5
 -140 377 l 5
-113 638 m 5
 -113 503 l 5
 -105 499 -95.3333333333 497 -84 497 c 4
 -45.3333333333 497 -27.3333333333 514.333333333 -30 549 c 4
 -32.6666666667 578.333333333 -60.3333333333 608 -113 638 c 5
EndSplineSet
EndChar
StartChar: aa
Encoding: 3535 3535 185
Width: 312
GlyphClass: 2
Flags: HW
HStem: -1 21G<100.294 177.667> 354 47<75.8455 160.454>
VStem: 23 26<109.344 131 256 315.142> 182 88<77.5273 330.224>
LayerCount: 2
Back
Fore
SplineSet
123 47 m 0
 164 47 182 106 182 206 c 0
 182 304 165 354 131 354 c 0
 81 354 50 318 50 268 c 0
 50 264 51 260 51 256 c 1
 23 256 l 1
 23 260 23 263 23 267 c 0
 23 342 71 401 145 401 c 0
 237 401 270 313 270 210 c 0
 270 72 224 -1 134 -1 c 0
 67 -1 22 41 22 109 c 0
 22 116 22 124 23 131 c 1
 49 131 l 1
 48 126 48 122 48 118 c 0
 48 75 79 47 123 47 c 0
EndSplineSet
EndChar
StartChar: ae
Encoding: 3536 3536 186
Width: 334
GlyphClass: 2
Flags: W
HStem: -147 63<214.147 278.501> 313 26<3 211>
VStem: 84 77<-27.1776 131.027>
LayerCount: 2
Back
Fore
SplineSet
161 73 m 0
 161 -28.2364738932 198.522577352 -84 300 -84 c 1
 297.457053447 -87.8144198294 307.807244697 -98.1927553032 305 -101 c 0
 275 -135 240 -150.333333333 200 -147 c 0
 120.440609626 -140.141431864 81.4330889237 -72.5584321317 84 16 c 0
 86 72 100.333333333 127.666666667 127 183 c 0
 155.666666667 242.333333333 183.666666667 285.666666667 211 313 c 1
 3 313 l 1
 3 339 l 1
 249 339 l 1
 248.333333333 337 247.333333333 331.666666667 246 323 c 1
 189.333333333 240.333333333 161 157 161 73 c 0
EndSplineSet
EndChar
StartChar: aee
Encoding: 3537 3537 187
Width: 336
GlyphClass: 2
Flags: W
HStem: -145 48<238.062 301> 199 22<111 232> 315 24<4 205>
VStem: 4 301
LayerCount: 2
Back
Fore
SplineSet
227 -145 m 0
 137.532900525 -145 92 -93.2736189484 92 -8 c 0
 92 0 92.3333333333 8 93 16 c 0
 97 54.6666666667 118 95 156 137 c 0
 183.333333333 167.666666667 208.666666667 188.333333333 232 199 c 1
 64 199 l 1
 64 218 l 1
 205 315 l 1
 4 315 l 1
 4 339 l 1
 249 339 l 1
 249 317 l 1
 111 221 l 1
 269 221 l 1
 269 201 l 1
 255.666666667 193.666666667 237.333333333 173 214 139 c 0
 192.666666667 107.666666667 183.333333333 67.6666666667 186 19 c 0
 188 -15 202.666666667 -44.3333333333 230 -69 c 0
 246 -83.6666666667 269.666666667 -93 301 -97 c 1
 305 -124 l 1
 283 -138 257 -145 227 -145 c 0
EndSplineSet
EndChar
StartChar: i
Encoding: 3538 3538 188
Width: 8
GlyphClass: 2
Flags: HW
HStem: 396 21<-465.191 -430 -203 -162.599> 575 96<-440.449 -186.849>
VStem: -542 40<441.451 532.451> -124 39<447.116 533.779>
LayerCount: 2
Back
Fore
SplineSet
-203 417 m 1
 -161 418 -124 446 -124 489 c 0
 -124 495 -125 500 -126 505 c 0
 -146 566 -218 575 -310 575 c 0
 -417 575 -480 553 -498 510 c 0
 -501 503 -502 495 -502 487 c 0
 -502 447 -478 424 -430 417 c 1
 -430 396 l 1
 -505 402 -542 443 -542 518 c 0
 -542 626 -429 671 -310 671 c 0
 -196 671 -85 624 -85 519 c 0
 -85 445 -131 397 -203 396 c 1
 -203 417 l 1
EndSplineSet
EndChar
StartChar: ii
Encoding: 3539 3539 190
Width: 8
GlyphClass: 2
Flags: W
HStem: 574 97<-446.198 -249.359>
VStem: -131 46<471.076 552.666>
LayerCount: 2
Back
Fore
SplineSet
-85 524 m 0
 -85 443.784374322 -188.357557956 401.631744047 -252 450 c 0
 -281.79383427 472.602219101 -291.393409457 507.61286725 -272.5 544.5 c 0
 -265.5 558.166666667 -257.666666667 567 -249 571 c 1
 -259 573 -281.333333333 574 -316 574 c 0
 -446.666666667 574 -512 542.666666667 -512 480 c 0
 -512 450 -501 428.333333333 -479 415 c 1
 -479 388 l 1
 -528.219540347 402.062725813 -558.101750324 456.406184022 -552 522 c 0
 -540.808648298 628.317841173 -439.646242918 671 -313 671 c 0
 -197.960195868 671 -85 628.145149684 -85 524 c 0
-185 565 m 256
 -213.530282186 565 -239 541.26534368 -239 513 c 0
 -239 483.927189992 -214.071893116 459 -185 459 c 256
 -155.927189992 459 -131 482.901962862 -131 512 c 256
 -131 541.09886234 -155.928106884 565 -185 565 c 256
EndSplineSet
EndChar
StartChar: u
Encoding: 3540 3540 192
Width: 8
GlyphClass: 2
Flags: HW
HStem: -235 33<-547.743 -109>
VStem: -605 37<-184.719 -100.82> -109 33<-202 149>
LayerCount: 2
Back
Fore
SplineSet
-605 -147 m 0
 -605 -90 -557 -51 -498 -51 c 0
 -457 -51 -428 -71 -410 -110 c 1
 -440 -122 l 1
 -450 -95 -469 -81 -498 -81 c 0
 -536 -81 -568 -103 -568 -141 c 0
 -568 -181 -541 -202 -487 -202 c 2
 -109 -202 l 1
 -109 149 l 1
 -76 206 l 1
 -76 -235 l 1
 -499 -235 l 2
 -560 -235 -605 -206 -605 -147 c 0
EndSplineSet
Substitution2: "Single Substitution lookup 15 subtable" ae
Substitution2: "Single Substitution lookup 14 subtable" u2
EndChar
StartChar: uu
Encoding: 3542 3542 194
Width: 8
GlyphClass: 2
Flags: HW
HStem: -236 51<-530.398 -400.273> -68 28<-524.896 -432.16>
VStem: -106 30<-171 149>
LayerCount: 2
Back
Fore
SplineSet
-585 -138 m 0
 -585 -78 -537 -40 -477 -40 c 0
 -438 -40 -407 -57 -386 -91 c 1
 -414 -101 l 1
 -427 -79 -449 -68 -479 -68 c 0
 -515 -68 -549 -90 -549 -127 c 0
 -549 -165 -508 -185 -467 -185 c 0
 -442 -185 -405 -173 -355 -150 c 0
 -309 -128 -271 -118 -241 -118 c 0
 -238 -118 -234 -118 -231 -118 c 0
 -182 -123 -140 -140 -106 -171 c 1
 -106 149 l 1
 -76 206 l 1
 -76 -232 l 1
 -98 -232 l 1
 -107 -208 -126 -188 -156 -171 c 0
 -186 -154 -214 -146 -241 -146 c 0
 -270 -146 -308 -160 -357 -190 c 0
 -407 -220 -445 -236 -476 -236 c 0
 -537 -236 -585 -197 -585 -138 c 0
EndSplineSet
Substitution2: "Single Substitution lookup 15 subtable" aee
Substitution2: "Single Substitution lookup 14 subtable" uu2
EndChar
StartChar: gp
Encoding: 3544 3544 196
Width: 312
GlyphClass: 2
Flags: HW
HStem: 14 30<78.0097 192.333> 193 27<107.922 178> 354 39<87.6244 158.639>
VStem: 33 31<57.1567 158.104> 33 24<242 308.212> 175 88<42.9727 193 220 316.914>
LayerCount: 2
Back
Fore
SplineSet
132 354 m 0
 84 354 57 305 57 253 c 0
 57 249 57 246 57 242 c 5
 33 242 l 5
 33 245 33 247 33 250 c 0
 33 327 68 393 143 393 c 4xec
 228 393 263 292 263 196 c 0
 263 169 261 141 255 100 c 4
 250 62 247 37 247 24 c 4
 247 16 247 9 248 3 c 5
 207 3 l 5
 202 10 196 14 189 14 c 4
 186 14 178 11 164 6 c 4
 152 2 141 0 130 -0 c 0
 72 0 33 47 33 107 c 4xf4
 33 153 55 186 99 205 c 4
 122 215 149 220 180 220 c 5
 175 273 172 302 171 307 c 4
 164 338 151 354 132 354 c 0
64 107 m 4
 64 70 86 33 122 33 c 0
 133 33 143 35 152 39 c 4
 160 42 167 44 171 44 c 4
 174 44 177 43 181 42 c 5
 177 63 175 89 175 120 c 4
 175 131 176 155 178 193 c 5
 169 193 150 190 123 185 c 4
 84 174 64 151 64 107 c 4
EndSplineSet
EndChar
StartChar: e
Encoding: 3545 3545 197
Width: 603
GlyphClass: 2
Flags: HW
HStem: 0 113<162.874 395.297> 166 32<249.666 333.723> 403 29<210.457 388.774>
VStem: 33 57<177.6 303.081> 203 33<212.268 279.433> 345 34<209.48 278.815> 555 29<206 259.887>
LayerCount: 2
Back
Fore
SplineSet
269 -0 m 0
 136 0 33 82 33 212 c 4
 33 280 61 335 118 376 c 4
 169 413 230 432 301 432 c 4
 449 432 572 340 584 206 c 5
 555 206 l 5
 550 259 522 305 473 344 c 4
 424 383 366 403 301 403 c 4
 196 403 90 350 90 252 c 4
 90 245 91 237 92 230 c 4
 104 152 165 113 274 113 c 0
 368 113 424 136 437 179 c 4
 440 188 441 196 441 204 c 4
 441 250 402 279 360 287 c 5
 373 273 379 258 379 242 c 4
 379 198 334 166 289 166 c 4
 245 166 203 200 203 244 c 0
 203 296 257 322 311 322 c 0
 400 322 492 260 492 174 c 0
 492 170 491 166 491 162 c 4
 481 54 407 0 269 -0 c 0
289 292 m 4
 261 292 236 274 236 246 c 4
 236 216 262 198 293 198 c 4
 323 198 345 216 345 244 c 4
 345 272 321 292 289 292 c 4
EndSplineSet
EndChar
StartChar: gk
Encoding: 3551 3551 205
Width: 441
GlyphClass: 2
Flags: W
HStem: -2 43<183.567 267.415> 212 37<83.5455 170.585> 392 40<196.822 274.906>
VStem: 33 29<276.264 395.725> 134 27<76.1509 157> 183 46<258.307 333.741> 297 96<106.133 345.345>
LayerCount: 2
Back
Fore
SplineSet
229 288 m 4
 229 237.91743758 182.468412881 210.371986681 132 212 c 4
 73.6374774053 213.326420968 33 261.449684925 33 321 c 4
 33 369.666666667 45.3333333333 405.333333333 70 428 c 5
 105 428 l 5
 76.3333333333 410 62 374.666666667 62 322 c 4
 62 279.247665965 89.8425152258 249 132 249 c 4
 159.765529007 249 183 271.209152174 183 299 c 4
 183 312.333333333 177.333333333 325 166 337 c 5
 162.666666667 367.666666667 172 393 194 413 c 4
 208 425.666666667 233.333333333 432 270 432 c 4
 355.549605304 432 394.178789029 315.481911373 393 220 c 4
 391.755397526 110.474982298 340.828119251 -2 239 -2 c 4
 174.191647156 -2 134 53.985434109 134 120 c 4
 134 132 135.333333333 144.333333333 138 157 c 5
 164 157 l 5
 162 147.666666667 161 138.666666667 161 130 c 4
 161 84.2066246638 185.862765677 41 229 41 c 4
 261.222495688 41 274.70251783 62.0569058421 286 108 c 4
 294 142.666666667 297.666666667 185.333333333 297 236 c 4
 295 340 279.666666667 392 251 392 c 4
 208.761350131 392 190.609917412 383.63140399 193 343 c 5
 217 330.333333333 229 312 229 288 c 4
EndSplineSet
EndChar
StartChar: dgk
Encoding: 3571 3571 207
Width: 442
GlyphClass: 2
Flags: W
HStem: -2 43<183.655 267.415> 212 37<83.5455 170.585> 392 40<196.822 274.906>
VStem: 33 29<276.264 395.725> 183 46<258.307 333.741> 297 96<106.133 345.345>
LayerCount: 2
Back
Fore
SplineSet
229 288 m 0
 229 237.91743758 182.468412881 210.371986681 132 212 c 0
 73.6374774053 213.326420968 33 261.449684925 33 321 c 0
 33 369.666666667 45.3333333333 405.333333333 70 428 c 1
 105 428 l 1
 76.3333333333 410 62 374.666666667 62 322 c 0
 62 279.247665965 89.8425152258 249 132 249 c 0
 159.765529007 249 183 271.209152174 183 299 c 0
 183 312.333333333 177.333333333 325 166 337 c 1
 162.666666667 367.666666667 172 393 194 413 c 0
 208 425.666666667 233.333333333 432 270 432 c 0
 355.549605304 432 394.178789029 315.481911373 393 220 c 0
 391.755397526 110.474982298 340.828119251 -2 239 -2 c 0
 174.191647156 -2 134 53.985434109 134 120 c 0
 134 132 145.666666667 150.333333333 169 175 c 1
 219 187 l 1
 253 155.666666667 255 123.333333333 225 90 c 1
 182.333333333 90.6666666667 167.5 82.6666666667 180.5 66 c 0
 193.5 49.3333333333 209.666666667 41 229 41 c 0
 261.222495688 41 274.70251783 62.0569058421 286 108 c 0
 294 142.666666667 297.666666667 185.333333333 297 236 c 0
 295 340 279.666666667 392 251 392 c 0
 208.761350131 392 190.609917412 383.63140399 193 343 c 1
 217 330.333333333 229 312 229 288 c 0
EndSplineSet
EndChar
StartChar: uni0DF4
Encoding: 3572 3572 4
Width: 1208
GlyphClass: 2
Flags: W
HStem: 0 45<223.131 274.941> 23 48<1144.94 1198.85> 30 127<1199.42 1257.07>
VStem: 142 80<43.179 78.5947> 382 29<234.365 271> 532 27<366.102 393> 968 61<152 213.285> 1199 80<71.3173 130.213>
LayerCount: 2
Back
Fore
SplineSet
516 269 m 1x5f
 487.793185602 202.008815805 458.95855103 121.930918384 423 62 c 1
 395 62 l 1
 392.548470992 87.7410545879 380.530171034 133.919543908 373 154 c 1
 357 118 342.166666667 89.6666666667 328.5 69 c 0
 314.833333333 48.3333333333 302 32.8333333333 290 22.5 c 0
 270.612725565 5.80540256968 254.561161727 0 225 0 c 0
 184.929058598 0 157.923453323 22.5990213603 147 51 c 0
 143.666666667 59.6666666667 142 67 142 73 c 0
 142 101.802017452 158.259169997 127 188 127 c 0
 213.682002082 127 232 104.901519683 232 79 c 0
 232 70.3333333333 230.333333333 63 227 57 c 0
 223.666666667 50.3333333333 222 45.6666666667 222 43 c 1
 223.333333333 44.3333333333 226.666666667 45 232 45 c 0x9f
 245.333333333 45 261 53.3333333333 279 70 c 1
 279 69 l 1
 301.265024559 91.265024559 321.533962386 133.017371752 337.5 165.5 c 0
 353.40742994 197.863391948 370.228892833 239.049851976 382 271 c 1
 411 271 l 1
 411 245.850571253 419.069387657 217.239796286 425 195 c 0
 427.666666667 185 430.333333333 176.666666667 433 170 c 1
 446.667095336 198.700900206 457.992724807 229.083267056 471 259 c 0
 488.894986882 298.62461381 512.486451692 355.273806604 532 393 c 1
 559 393 l 1
 559 355.073978271 571.84988201 315.027723233 580.5 282 c 0
 585.121145907 264.355624719 588.914796219 249.255611342 594 234 c 1
 629.574617615 305.149235229 671.92782742 386.57043656 718 448 c 1
 750 448 l 1
 745.419571733 434.258715198 744 432.765129767 744 424 c 2
 744 413 l 2
 744 370.117034522 748.035655811 320.134527937 752 279.5 c 0
 753.333333333 265.833333333 754.666666667 255.333333333 756 248 c 1
 797.457479259 297.748975111 840.30617014 357.316375811 885 403.5 c 0
 895 413.833333333 902.666666667 420 908 422 c 1
 932 422 l 1
 921.709946643 360.259679857 913.708385119 281.750932146 910 215 c 1
 916 221 l 1
 916 220 l 1
 946.212788438 251.421299975 988.918902734 295.408513326 1025 319 c 1
 1057 319 l 1
 1041.52721623 272.581648681 1031.38219008 211.554752022 1029 152 c 1
 1050.33333333 169.333333333 1069.5 182 1086.5 190 c 0
 1103.5 198 1115.66666667 202 1123 202 c 1
 1131.37439503 160.128024872 1128.72169678 105.295697169 1153 79.5 c 0
 1158.33333333 73.8333333333 1165.33333333 71 1174 71 c 0x5f
 1186.02875204 71 1199 71.7004633931 1199 79 c 0
 1199 87.7971012324 1190 105.417294782 1190 111 c 0
 1190 136.386574826 1205.1250001 157 1230 157 c 256
 1260.92291595 157 1279 135.553734755 1279 100 c 0
 1279 61.6988107446 1249.19769683 40.5691938897 1219 30 c 0x3f
 1205.66666667 25.3333333333 1190 23 1172 23 c 0
 1103.2554787 23 1080.26276938 68.846767443 1075 132 c 1
 1051.08799187 117.65279512 1028.70346707 90.7513416738 1011.5 69.5 c 0
 1005.83333333 62.5 1002 57 1000 53 c 1
 971 53 l 1
 969.609861251 65.5112487423 968 101.320415766 968 116 c 0
 968 149.309685772 969.271794093 184.98973502 972 215 c 1
 943.912368713 186.912368713 913.58128084 153.378606675 887 123 c 0
 877.666666667 112.333333333 870 102.666666667 864 94 c 1
 837 94 l 1
 851 303 l 1
 808.854984906 255.58685802 761.989564725 189.484347087 727 137 c 1
 702 137 l 1
 683 319 l 1
 653.322084952 269.536808254 620.754922356 201.109596938 597.5 145.5 c 0
 589.833333333 127.166666667 585 113.666666667 583 105 c 1
 556 105 l 1
 552.733188506 113.167028734 547.894278173 139.581470047 546 150 c 0
 538.626236932 183.181933805 526.319986428 239.330039019 516 269 c 1x5f
EndSplineSet
EndChar
StartChar: uni200C
Encoding: 8204 8204 1
Width: 22
GlyphClass: 2
Flags: W
VStem: -9 40<-226 639>
LayerCount: 2
Back
Fore
SplineSet
31 -226 m 1
 -9 -226 l 1
 -9 639 l 1
 31 639 l 1
 31 -226 l 1
EndSplineSet
EndChar
StartChar: uni200D
Encoding: 8205 8205 2
Width: 21
GlyphClass: 2
Flags: W
VStem: -9 39<-226 509>
LayerCount: 2
Back
Fore
SplineSet
-21 560 m 1
 -35.9887590526 574.988759053 -56.262380541 596.262380541 -71 611 c 1
 -40 642 l 1
 11 592 l 1
 60 641 l 1
 93 612 l 1
 42 560 l 1
 93 510 l 1
 61 478 l 1
 30 509 l 1
 30 -226 l 1
 -9 -226 l 1
 -9 509 l 1
 -20.5224837279 498.757792242 -29.7117362868 487.877230749 -41 478 c 1
 -69 512 l 1
 -21 560 l 1
EndSplineSet
EndChar
StartChar: short_dash2
Encoding: 8208 8208 217
Width: 297
GlyphClass: 2
Flags: HW
HStem: 187 39<43 245>
VStem: 43 202<187 226>
LayerCount: 2
Back
Fore
SplineSet
43 226 m 1
 245 226 l 1
 245 187 l 1
 43 187 l 1
 43 226 l 1
EndSplineSet
EndChar
StartChar: finedash
Encoding: 8211 8211 237
Width: 254
GlyphClass: 2
Flags: W
HStem: -2 24<37 200>
VStem: 37 163<-2 22>
LayerCount: 2
Back
Fore
SplineSet
37 22 m 1
 200 22 l 1
 200 -2 l 1
 37 -2 l 1
 37 22 l 1
EndSplineSet
EndChar
StartChar: quoteleft
Encoding: 8216 8216 232
Width: 238
GlyphClass: 2
Flags: W
HStem: 569 86<101.326 155.297>
VStem: 49 50<502.518 602.082>
LayerCount: 2
Back
Fore
SplineSet
111 655 m 0
 139.00052375 655 165 633.648396034 165 605 c 0
 165 584.112487001 150.025228719 572.095496131 133 569 c 0
 108.8190075 564.603455909 99 555.987348628 99 534 c 0
 99 516 112.666666667 493.333333333 140 466 c 1
 107 466 l 1
 70.1841771483 492.998270091 49 525.500305694 49 578 c 0
 49 626.163021454 67.8344839069 655 111 655 c 0
EndSplineSet
EndChar
StartChar: quoteright
Encoding: 8217 8217 229
Width: 238
GlyphClass: 2
Flags: W
HStem: 568.5 86.5<67.514 121.142>
VStem: 123 50<501.811 600.396>
LayerCount: 2
Back
Fore
SplineSet
173 579 m 0
 173 525.631218938 150.925246163 491.310968888 115 466 c 1
 83 466 l 1
 109.666666667 494 123 516.333333333 123 533 c 0
 123 556.186514234 113.850401378 563.416963355 89 568.5 c 0
 72.0188648204 571.973414014 57 584.055920452 57 605 c 0
 57 632.601639441 82.9393804074 655 112 655 c 0
 152.58097126 655 173 621.792209675 173 579 c 0
EndSplineSet
EndChar
StartChar: dblquote_left
Encoding: 8220 8220 258
Width: 377
GlyphClass: 2
Flags: W
HStem: 463 191<98.0379 154.862 242.038 298.862>
VStem: 60 55<505.161 601.253> 204 55<505.051 601.253>
LayerCount: 2
Back
Fore
SplineSet
60 578 m 0
 60 624.505726816 79.9658256734 654 123 654 c 0
 154.861764642 654 174.975878645 628.132322042 171 595 c 0
 169.666666667 583 162.666666667 574 150 568 c 0
 133.333333333 559.333333333 123.333333333 553 120 549 c 0
 116.666666667 545 115 540 115 534 c 0
 115 513.333333333 128.333333333 489.666666667 155 463 c 1
 119 463 l 1
 91 486.333333333 72.6666666667 514 64 546 c 0
 61.3333333333 556.666666667 60 567.333333333 60 578 c 0
204 578 m 0
 204 624.505726816 223.965825673 654 267 654 c 0
 298.861764642 654 318.975878645 628.132322042 315 595 c 0
 313.666666667 583 306.666666667 574 294 568 c 0
 277.333333333 559.333333333 267.333333333 553 264 549 c 0
 260.666666667 545 259 539.666666667 259 533 c 0
 259 511.666666667 272.333333333 488.333333333 299 463 c 1
 263 463 l 1
 235 486.333333333 216.666666667 514 208 546 c 0
 205.333333333 556.666666667 204 567.333333333 204 578 c 0
EndSplineSet
EndChar
StartChar: dblquote_right
Encoding: 8221 8221 257
Width: 377
GlyphClass: 2
Flags: HW
HStem: 463 191<79 136.824 222.139 280.494>
VStem: 118 56<504.74 601.196> 262 55<503.625 601.243>
LayerCount: 2
Back
Fore
SplineSet
254 654 m 0
 297 654 317 624 317 578 c 0
 317 533 297 495 258 463 c 1
 222 463 l 1
 249 488 262 512 262 533 c 0
 262 540 260 545 257 549 c 0
 254 553 244 559 227 568 c 0
 212 575 206 585 206 603 c 0
 206 632 225 654 254 654 c 0
110 654 m 0
 153 654 174 624 174 578 c 0
 174 533 154 495 114 463 c 1
 79 463 l 1
 105 489 118 512 118 533 c 0
 118 540 116 545 112 550 c 0
 109 553 100 558 83 567 c 0
 68 575 62 585 62 603 c 0
 62 632 81 654 110 654 c 0
EndSplineSet
EndChar
StartChar: black_star
Encoding: 8902 8902 262
Width: 541
GlyphClass: 2
Flags: HW
HStem: 0 21G<132.75 154.081 375.919 397.125>
LayerCount: 2
Back
Fore
SplineSet
211 260 m 1
 265 421 l 1
 316 260 l 1
 488 260 l 1
 349 160 l 1
 404 0 l 1
 265 99 l 1
 126 0 l 1
 180 160 l 1
 42 260 l 1
 211 260 l 1
EndSplineSet
EndChar
StartChar: black_square
Encoding: 9632 9632 260
Width: 416
GlyphClass: 2
Flags: W
HStem: 0 342<33 372>
VStem: 33 339<0 342>
LayerCount: 2
Back
Fore
SplineSet
372 342 m 1
 372 0 l 1
 33 0 l 1
 33 342 l 1
 372 342 l 1
EndSplineSet
EndChar
StartChar: white_square
Encoding: 9633 9633 259
Width: 466
GlyphClass: 2
Flags: HW
HStem: -3 67<107 369> 48 16<369 405> 361 19<107 405>
VStem: 36 71<64 328> 90 17<328 361> 405 15<64 361>
LayerCount: 2
Back
Fore
SplineSet
369 -3 m 1xac
 36 -3 l 1
 36 328 l 1xb4
 90 328 l 1
 90 380 l 1
 420 380 l 1
 420 48 l 1
 369 48 l 1x6c
 369 -3 l 1xac
107 361 m 1x6c
 107 64 l 1xb4
 405 64 l 1
 405 361 l 1
 107 361 l 1x6c
EndSplineSet
EndChar
StartChar: black_triangle
Encoding: 9650 9650 252
Width: 445
GlyphClass: 2
Flags: HW
HStem: -1 21G<25 397>
LayerCount: 2
Back
Fore
SplineSet
397 -1 m 1
 25 -1 l 1
 210 371 l 1
 397 -1 l 1
EndSplineSet
EndChar
StartChar: uni25CC
Encoding: 9676 9676 3
Width: 479
GlyphClass: 2
Flags: HW
HStem: 0 64<211.949 264.051> 12 65<150.949 202.086 273.949 326.051> 47 64<110.234 151.051 326.798 365.439> 100 65<90 102.568 374.432 387> 162 64<49.9141 75> 223 65<90 103.843 371.251 387> 277 63<109.127 151.173 325.827 367.873> 312 64<150.949 202.086 273.949 326.051> 324 64<211.949 264.051>
VStem: 49 55<165.192 222.809> 62 54<108.283 161.777 226.161 279.717> 97 55<47.5 101.748 284.252 339.5> 150 53<12.3948 76.6052 312.371 375.605> 211 54<0.394775 63.6292 324.395 387.629> 273 54<12.3828 76.6052 312.371 375.605> 326 54<47.3828 102.717 283.283 339.629> 361 55<108.266 161.777 226.192 280.656> 373 55<165.192 222.809>
LayerCount: 2
Back
Fore
SplineSet
203 45 m 0x400c
 203 23 194 12 177 12 c 0
 159 12 150 23 150 44 c 0
 150 66 159 77 177 77 c 0
 194 77 203 66 203 45 c 0x400c
327 44 m 0x4006
 327 23 318 12 300 12 c 256
 282 12 273 23 273 44 c 0
 273 66 282 77 300 77 c 256
 318 77 327 66 327 44 c 0x4006
265 33 m 0
 265 11 256 0 238 0 c 256
 220 0 211 11 211 33 c 0
 211 54 220 64 238 64 c 256x8004
 256 64 265 54 265 33 c 0
265 357 m 0
 265 335 256 324 238 324 c 256
 220 324 211 335 211 357 c 0
 211 378 220 388 238 388 c 256x0084
 256 388 265 378 265 357 c 0
203 343 m 0x010c
 203 322 194 312 177 312 c 0
 159 312 150 322 150 343 c 0
 150 365 159 376 177 376 c 0
 194 376 203 365 203 343 c 0x010c
327 343 m 0x0106
 327 322 318 312 300 312 c 256
 282 312 273 322 273 343 c 0
 273 365 282 376 300 376 c 256
 318 376 327 365 327 343 c 0x0106
152 309 m 0x0214
 152 288 143 277 124 277 c 0
 117 277 112 278 109 280 c 1
 114 274 116 266 116 256 c 0x0224
 116 234 107 223 90 223 c 1
 99 219 104 210 104 195 c 0x0444
 104 179 99 169 90 165 c 1
 107 164 116 153 116 132 c 0x1424
 116 122 114 114 110 108 c 1
 114 110 119 111 124 111 c 0
 143 111 152 100 152 79 c 256
 152 58 143 47 125 47 c 0
 106 47 97 58 97 79 c 0x2014
 97 89 99 97 103 102 c 1
 100 101 96 100 89 100 c 0
 71 100 62 111 62 132 c 0x1024
 62 147 66 157 75 162 c 1
 58 162 49 173 49 195 c 0x0844
 49 215 58 225 75 226 c 1
 66 229 62 239 62 256 c 0x0824
 62 277 71 288 89 288 c 0
 96 288 101 287 104 284 c 1x0444
 99 289 97 297 97 308 c 0
 97 329 106 340 124 340 c 0
 143 340 152 330 152 309 c 0x0214
366 108 m 1
 362 114 361 122 361 132 c 0x200480
 361 153 370 164 387 165 c 1
 378 169 373 179 373 195 c 0x100440
 373 210 378 219 387 223 c 1
 370 223 361 234 361 256 c 0x140480
 361 265 363 274 368 281 c 1
 365 278 360 277 353 277 c 0
 334 277 325 288 325 309 c 0
 325 330 334 340 353 340 c 0
 371 340 380 330 380 309 c 0x0205
 380 298 377 289 371 283 c 1
 376 286 383 288 390 288 c 0
 407 288 416 277 416 256 c 0x040480
 416 240 412 230 403 226 c 1
 420 225 428 214 428 195 c 0
 428 174 420 163 403 162 c 1x080440
 412 157 416 147 416 132 c 0
 416 111 407 100 389 100 c 0x100480
 383 100 378 101 374 103 c 1
 378 97 380 89 380 79 c 0
 380 58 371 47 353 47 c 256
 335 47 326 58 326 79 c 256
 326 100 335 111 353 111 c 0x2005
 358 111 363 110 366 108 c 1
EndSplineSet
EndChar
StartChar: black_circle
Encoding: 9679 9679 242
Width: 425
GlyphClass: 2
Flags: W
HStem: -8 358<125.955 295.646>
VStem: 31 358<85.4067 256.045>
LayerCount: 2
Back
Fore
SplineSet
78 292 m 0
 113.333333333 330.666666667 157.333333333 350 210 350 c 0
 256 350 296 334.666666667 330 304 c 0
 369.333333333 268.666666667 389 224 389 170 c 0
 389 124 373.666666667 84 343 50 c 0
 307.666666667 11.3333333333 263.666666667 -8 211 -8 c 0
 165 -8 124.666666667 7.66666666667 90 39 c 0
 50.6666666667 74.3333333333 31 118.333333333 31 171 c 0
 31 217 46.6666666667 257.333333333 78 292 c 0
EndSplineSet
EndChar
StartChar: Da.al
Encoding: 65580 -1 48
Width: 647
GlyphClass: 2
Flags: W
HStem: 0 115<354.078 495.551> 288 27<15 125 149.194 261> 377 55<157.079 241.783> 442 32<42 81.7221> 491 28<166.883 400>
VStem: 46 56<140.326 237.369> 98 41<526.363 567.812> 261 34<315 356.322> 301 29<146.713 214> 557 25<305.363 343.937>
LayerCount: 2
Back
Fore
SplineSet
330 185 m 2xfdc0
 330 139.108668787 377.269352744 112.500992448 426 115 c 0
 514.921697781 118.981568557 559.687611787 187.245975652 557 284 c 0
 554.652846338 354.414609873 503.953195953 432.765590537 452 458 c 0
 409.333333333 478.666666667 358.333333333 489.666666667 299 491 c 0
 182.767277508 494.058755855 132.026085554 479.510868981 42 442 c 1
 42 474 l 1
 56.4978665608 478.676731149 130.75793523 499.312172721 126 512 c 1
 117.568457477 516.818024299 98 529.608753983 98 543 c 0xfbc0
 98 551.666666667 102.666666667 561.666666667 112 573 c 0
 149.086720253 616.267840295 263.37714869 633.616784621 352 617 c 0
 416.666666667 605 466.666666667 580.333333333 502 543 c 0
 553.333333333 489 580 427.333333333 582 358 c 1
 585.333333333 351.333333333 590.333333333 328.666666667 597 290 c 1
 601.666666667 214.666666667 591.666666667 150.333333333 567 97 c 0
 537.666666667 32.3333333333 492.333333333 0 431 0 c 0
 369.285699916 0 344.342973794 21.3884314468 313 59 c 1
 282.333333333 20.3333333333 244.666666667 0.666666666667 200 0 c 0
 156 -0.666666666667 119.333333333 14.8333333333 90 46.5 c 0
 60.6666666667 78.1666666667 46 115.333333333 46 158 c 0
 46 203.040462175 59.1886539969 231.12104183 84 258 c 0
 98.6666666667 273.333333333 112.333333333 283.333333333 125 288 c 1
 15 288 l 1
 15 315 l 1
 261 315 l 1
 259.718426701 348.320905787 234.107155222 377 200 377 c 0
 194.666666667 377 189.666666667 376.333333333 185 375 c 0
 177 373 165.333333333 364.333333333 150 349 c 0
 140.666666667 339.666666667 128 335.666666667 112 337 c 0
 88.6666666667 338.333333333 77 350.333333333 77 373 c 0
 77 379 78.3333333333 385 81 391 c 0
 94.3333333333 417 124.666666667 430.666666667 172 432 c 0
 249.930808289 433.367207163 293.711903656 367.861973324 295 288 c 1
 199 288 l 2
 150.242136065 288 103.394750294 251.026759712 102 205 c 0
 99.3333333333 149 131.333333333 118.333333333 198 113 c 0
 246.888543366 109.239342818 301 137.990871596 301 185 c 2
 301 214 l 1
 330 214 l 1
 330 185 l 2xfdc0
165 510 m 1
 205 519.333333333 255.333333333 522.333333333 316 519 c 0
 380 515 428 504 460 486 c 0
 497.333333333 464.666666667 523.666666667 442.333333333 539 419 c 1
 535 450.333333333 517 483.333333333 485 518 c 0
 452.107815577 553.241626167 382.559799085 587.090241903 320 590 c 0
 242 594 187.333333333 586 156 566 c 0
 144.666666667 558.666666667 139 551.333333333 139 544 c 0
 139 535.333333333 145 529.666666667 157 527 c 0
 166.333333333 525 169 519.333333333 165 510 c 1
EndSplineSet
Ligature2: "'abvs' Above Base Substitutions in Sinhala lookup 8 subtable" Da al
EndChar
StartChar: Da.i
Encoding: 65582 -1 50
Width: 647
GlyphClass: 2
Flags: W
HStem: 0 115<354.078 493.87> 288 27<15 125 149.194 261> 377 55<157.079 241.783> 475 29<153.88 436.5> 603 67<145.079 470.73>
VStem: 46 56<140.326 237.369> 77 44<521.5 580.249> 261 34<315 356.322> 301 29<146.713 214> 514 50<507.581 571.191> 555 43<182.974 370.032>
LayerCount: 2
Back
Fore
SplineSet
438 492 m 1xfbc0
 472.933158326 494.832418243 514 508.577032573 514 541 c 0
 514 548.333333333 511.666666667 554.666666667 507 560 c 0
 480.333333333 588.666666667 409.333333333 603 294 603 c 0
 230.666666667 603 184.333333333 597.333333333 155 586 c 0
 132.333333333 577.333333333 121 565.333333333 121 550 c 0
 121 533.333333333 131 523 151 519 c 0
 181 512.333333333 234 507.333333333 310 504 c 0
 370 501.333333333 412.666666667 497.333333333 438 492 c 1xfbc0
598 254 m 0xf9a0
 598 125.854723954 547.285263351 0 431 0 c 0
 369.285699916 0 344.342973794 21.3884314468 313 59 c 1
 282.333333333 20.3333333333 244.666666667 0.666666666667 200 0 c 0
 156 -0.666666666667 119.333333333 14.8333333333 90 46.5 c 0
 60.6666666667 78.1666666667 46 115.333333333 46 158 c 0xfda0
 46 203.040462175 59.1886539969 231.12104183 84 258 c 0
 98.6666666667 273.333333333 112.333333333 283.333333333 125 288 c 1
 15 288 l 1
 15 315 l 1
 261 315 l 1
 259.718426701 348.320905787 234.107155222 377 200 377 c 0
 194.666666667 377 189.666666667 376.333333333 185 375 c 0
 177 373 165.333333333 364.333333333 150 349 c 0
 140.666666667 339.666666667 128 335.666666667 112 337 c 0
 88.6666666667 338.333333333 77 350.333333333 77 373 c 0xfb80
 77 379 78.3333333333 385 81 391 c 0
 94.3333333333 417 124.666666667 430.666666667 172 432 c 0
 249.930808289 433.367207163 293.711903656 367.861973324 295 288 c 1
 199 288 l 2
 150.242136065 288 103.394750294 251.026759712 102 205 c 0
 99.3333333333 149 131.333333333 118.333333333 198 113 c 0
 246.888543366 109.239342818 301 137.990871596 301 185 c 2
 301 214 l 1
 330 214 l 1
 330 185 l 2
 330 139.108668787 377.269352744 112.500992448 426 115 c 0
 515.525531131 119.008605872 557.625596913 188.852914217 555 286 c 0xfda0
 552.791330077 372.138127007 510.833709323 438.649887203 443 459 c 0
 416.333333333 467 376 472.333333333 322 475 c 0
 255.333333333 478.333333333 200 483 156 489 c 0
 109.069540054 495.704351421 77 517.63288139 77 564 c 0
 77 580.666666667 83 596.666666667 95 612 c 0
 115 638 148.666666667 655.333333333 196 664 c 0
 212.666666667 666.666666667 244.333333333 668.666666667 291 670 c 0
 407.666666667 673.333333333 485.666666667 658.666666667 525 626 c 0
 551 604.666666667 564 580 564 552 c 0xfbc0
 564 524.130201466 555.814632608 513.470242826 533 497.5 c 0
 516.333333333 485.833333333 499.333333333 478.666666667 482 476 c 1
 541.686609059 446.156695471 591.179936152 373.420915153 597 290 c 0
 597.666666667 278 598 266 598 254 c 0xf9a0
EndSplineSet
Ligature2: "'abvs' Above Base Substitutions in Sinhala lookup 8 subtable" Da i
EndChar
StartChar: Da.ii
Encoding: 65581 -1 49
Width: 647
GlyphClass: 2
Flags: HW
HStem: 0 115<354.078 493.87> 288 27<15 125 149.194 261> 377 55<157.079 241.783> 475 25<193.461 405.494> 602 68<143.391 395.744 427.629 485.415>
VStem: 46 56<140.326 237.369> 77 44<521.5 580.249> 261 34<315 356.322> 301 29<146.713 214> 379 39<511.471 590.385> 522 42<509.724 591.703> 555 43<182.974 369.214>
LayerCount: 2
Back
Fore
SplineSet
470 602 m 256xf9e0
 441 602 418 579 418 551 c 256
 418 522 442 500 471 500 c 256
 500 500 522 522 522 551 c 256
 522 579 499 602 470 602 c 256xf9e0
294 603 m 1
 231 603 184 597 155 586 c 0
 132 577 121 565 121 550 c 0xfbc0
 121 533 131 523 151 519 c 0
 181 512 234 507 310 504 c 0
 352 502 384 499 407 496 c 1
 388 510 379 529 379 554 c 0
 379 573 385 588 397 600 c 1
 370 603 336 604 294 604 c 1
 294 603 l 1
420 115 m 0
 512 115 555 184 555 278 c 0
 555 369 513 438 443 459 c 0
 416 467 376 472 322 475 c 0
 255 478 200 483 156 489 c 0
 109 496 77 518 77 564 c 0
 77 581 83 597 95 612 c 0
 115 638 149 655 196 664 c 0
 212 667 280 670 322 670 c 0
 421 670 489 656 525 626 c 0
 551 605 564 580 564 552 c 0xfbe0
 564 507 529 479 488 473 c 1
 545 441 591 372 597 290 c 0
 598 278 598 266 598 254 c 0xf9d0
 598 126 547 0 431 0 c 0
 369 0 344 21 313 59 c 1
 282 20 244 0 197 -0 c 0
 112 0 46 74 46 158 c 0xfdd0
 46 203 59 231 84 258 c 0
 99 273 112 283 125 288 c 1
 15 288 l 1
 15 315 l 1
 261 315 l 1
 260 348 234 377 200 377 c 0
 195 377 190 376 185 375 c 0
 177 373 165 364 150 349 c 0
 142 341 131 337 118 337 c 0
 91 337 77 348 77 373 c 0xfbc0
 77 379 78 385 81 391 c 0
 94 417 126 432 174 432 c 0
 250 432 294 367 295 288 c 1
 199 288 l 2
 147 288 102 250 102 199 c 0
 102 146 138 113 207 113 c 0
 253 113 301 141 301 185 c 2
 301 214 l 1
 330 214 l 1
 330 185 l 2
 330 141 374 115 420 115 c 0
EndSplineSet
Ligature2: "'abvs' Above Base Substitutions in Sinhala lookup 8 subtable" Da ii
EndChar
StartChar: Dha.i
Encoding: 65563 -1 31
Width: 647
GlyphClass: 2
Flags: W
HStem: 0 115<129.381 267.389 355.649 496.899> 288 27<15 124 148.623 255> 363 30<379.525 463.281> 383 49<155.261 238.18> 499 29<171.472 319 495 517.937> 624 79<213.021 473.583>
VStem: 46 54<143.938 236.776> 122 45<527.209 594.175> 255 34<315 360.908> 297 29<150.007 218> 318 29<425.491 499> 524 42<530.743 593.86> 560 38<189.658 352.614>
LayerCount: 2
Back
Fore
SplineSet
372 567 m 1xefa0
 355.333333333 545 347 514.666666667 347 476 c 0
 347 444.666666667 357 422.333333333 377 409 c 0
 393.666666667 398.333333333 409.333333333 393 424 393 c 0
 452 393 476.666666667 412 498 450 c 1
 486.666666667 467.333333333 469.333333333 487.666666667 446 511 c 0
 419.333333333 538.333333333 394.666666667 557 372 567 c 1xefa0
524 561 m 0xcfd0
 524 612.997945715 413.862999899 624 346 624 c 0
 226.666666667 624 167 601.666666667 167 557 c 0
 167 537 184 524.333333333 218 519 c 0
 257.333333333 513 293.333333333 516 326 528 c 1
 329.333333333 548 340.333333333 573 359 603 c 1
 396.333333333 588.333333333 434.333333333 562 473 524 c 1
 498.755220301 522.829308168 524 537.079268484 524 561 c 0xcfd0
346 703 m 0
 448.166836377 703 566 664.089947717 566 573 c 0xefb0
 566 536.070488811 530.530341022 501.315938556 495 500 c 1
 563.666666667 417.333333333 598 330.666666667 598 240 c 0
 598 117.705007376 544.01190236 0 431 0 c 0
 369.285699916 0 344.342973794 21.3884314468 313 59 c 1
 282.333333333 20.3333333333 244.666666667 0.666666666667 200 0 c 0
 156 -0.666666666667 119.333333333 14.8333333333 90 46.5 c 0
 60.6666666667 78.1666666667 46 115.333333333 46 158 c 0
 46 203.040462175 59.1886539969 231.12104183 84 258 c 0
 98 273.333333333 111.333333333 283.333333333 124 288 c 1
 15 288 l 1
 15 315 l 1
 255 315 l 1
 255 349.115483076 231.829602333 383 199 383 c 0
 176.585502734 383 156.948883774 366.010078781 147 353 c 0
 129.794758857 330.059678477 71 335.412350798 71 370 c 0
 71 412.519149883 116.787057534 432 170 432 c 0
 249.642435798 433.397235716 290.255654496 369.617542258 289 288 c 1
 195 288 l 2
 149.02573413 288 100 246.682863625 100 202 c 0
 100 146.772415967 140.668603034 115 198 115 c 0
 246.411008317 115 297 142.582255145 297 190 c 2
 297 218 l 1
 326 218 l 1
 326 190 l 2xdfc8
 326 142.590044177 376.607903095 115 425 115 c 0
 516.372732103 115 561.264629087 189.888189398 560 286 c 0
 558.996286414 326.148543444 534.47842152 400.108508227 514 424 c 1
 492.666666667 383.333333333 462 363 422 363 c 0
 369.465082038 363 321.889772219 402.729551889 318 452 c 0xefa8
 316.666666667 467.333333333 317 483 319 499 c 1
 255.138836378 481.260787883 174.431113898 484.754779337 141 524 c 0
 128.333333333 538 122 554 122 572 c 0
 122 667.040815329 237.859259 703 346 703 c 0
EndSplineSet
Ligature2: "'abvs' Above Base Substitutions in Sinhala lookup 8 subtable" Dha i
EndChar
StartChar: Dha.ii
Encoding: 65564 -1 32
Width: 647
GlyphClass: 2
Flags: W
HStem: 0 115<129.381 267.389 355.649 496.899> 288 27<15 124 148.623 255> 363 30<379.525 463.281> 383 49<155.261 238.18> 628 75<207.292 430.406>
VStem: 46 54<143.938 236.776> 255 34<315 360.908> 297 29<150.007 218> 318 29<425.491 500.373> 419 31<569 613.214> 553 32<541.949 614.16> 560 38<189.658 353.6>
LayerCount: 2
Back
Fore
SplineSet
372 567 m 1xeec0
 355.333333333 545 347 514.666666667 347 476 c 0
 347 444.666666667 357 422.333333333 377 409 c 0
 393.666666667 398.333333333 409.333333333 393 424 393 c 0
 452 393 476.666666667 412 498 450 c 1
 486.666666667 467.333333333 469.333333333 487.666666667 446 511 c 0
 419.333333333 538.333333333 394.666666667 557 372 567 c 1xeec0
115 572 m 0
 115 667.040815329 230.859259 703 339 703 c 0
 506.333333333 703 588.333333333 660 585 574 c 0xeee0
 583.695982291 525.751344773 543.085529056 497.939011158 493 502 c 1
 563 420 598 332.666666667 598 240 c 0
 598 117.705007376 544.01190236 0 431 0 c 0
 369.285699916 0 344.342973794 21.3884314468 313 59 c 1
 282.333333333 20.3333333333 244.666666667 0.666666666667 200 0 c 0
 156 -0.666666666667 119.333333333 14.8333333333 90 46.5 c 0
 60.6666666667 78.1666666667 46 115.333333333 46 158 c 0
 46 203.040462175 59.1886539969 231.12104183 84 258 c 0
 98 273.333333333 111.333333333 283.333333333 124 288 c 1
 15 288 l 1
 15 315 l 1
 255 315 l 1
 255 349.115483076 231.829602333 383 199 383 c 0
 176.585502734 383 156.948883774 366.010078781 147 353 c 0
 129.794758857 330.059678477 71 335.412350798 71 370 c 0
 71 412.519149883 116.787057534 432 170 432 c 0
 249.642435798 433.397235716 290.255654496 369.617542258 289 288 c 1
 195 288 l 2
 149.02573413 288 100 246.682863625 100 202 c 0
 100 146.772415967 140.668603034 115 198 115 c 0
 246.411008317 115 297 142.582255145 297 190 c 2
 297 218 l 1
 326 218 l 1
 326 190 l 2
 326 142.590044177 376.607903095 115 425 115 c 0
 516.372732103 115 561.264629087 189.888189398 560 286 c 0xdf50
 558.996286414 326.148543444 534.47842152 400.108508227 514 424 c 1
 492.666666667 383.333333333 462 363 422 363 c 0
 369.465082038 363 321.889772219 402.729551889 318 452 c 0
 316.666666667 471.333333333 317.333333333 487.666666667 320 501 c 1
 251.0947834 481.796906849 169.948542278 482.432889937 133 524 c 0
 121 538 115 554 115 572 c 0
359 603 m 1
 379 595 399 583.666666667 419 569 c 1
 416.333333333 592.333333333 420.666666667 610 432 622 c 1
 410 627.333333333 378 629 336 627 c 0
 228 622.333333333 170.333333333 603 163 569 c 0
 157 541 172.333333333 524 209 518 c 0
 251 511.333333333 290 515.333333333 326 530 c 1xcf40
 332 553.333333333 343 577.666666667 359 603 c 1
502 628 m 0
 474.601775063 628 450 607.470654185 450 578 c 0
 450 551.427034529 471.128204032 528 501 528 c 0
 528.398224937 528 553 548.529345815 553 578 c 0xce60
 553 605.523174148 531.871795968 628 502 628 c 0
EndSplineSet
Ligature2: "'abvs' Above Base Substitutions in Sinhala lookup 8 subtable" Dha ii
EndChar
StartChar: Ja.al
Encoding: 65607 -1 75
Width: 598
GlyphClass: 2
Flags: W
HStem: 0 115<152.957 432.318> 161 26<379.311 449.522> 287 22<359 448.076> 323 109<85.5938 136.662> 546 73<500.335 568.038> 547 28<326.61 398.391>
VStem: 33 44<162.319 243.409> 238 28<309.078 366.678> 287 26<307.336 375.484> 299 27<412 561 578.677 709> 329 28<210.662 286.688 309 359.496> 503 28<280.457 373.908>
LayerCount: 2
Back
Fore
SplineSet
360 575 m 0xf770
 388.270429502 575 414.359313522 593.454416035 413 622 c 0
 412.333333333 642 402.333333333 659.666666667 383 675 c 0
 373.666666667 683 354.666666667 694.333333333 326 709 c 1
 326 586 l 1
 336 578.666666667 347.333333333 575 360 575 c 0xf770
152 432 m 0
 221.072810008 432 266 392.202613225 266 323 c 0
 266 311 264.666666667 298 262 284 c 1
 204.061176593 292.449411747 139.216080225 284.662060169 105 259 c 0
 86.3333333333 244.333333333 77 226.666666667 77 206 c 0
 77 200 78 193.666666667 80 187 c 0
 93.3333333333 139 166.666666667 115 300 115 c 0
 409.333333333 115 478 137 506 181 c 0
 510.666666667 188.333333333 513 196.666666667 513 206 c 0
 513 216.666666667 510.666666667 225.666666667 506 233 c 1
 493.333333333 203 477 182.333333333 457 171 c 0
 445 164.333333333 430.333333333 161 413 161 c 0
 368.726610517 161 347.563036071 182.413532067 335 221 c 0
 327 245 325 267 329 287 c 1
 329 287 320 286 292 284 c 1
 288.666666667 295.333333333 287 308 287 322 c 0xfbb0
 287 344.666666667 291 364.666666667 299 382 c 1
 299 756 l 1
 318.295055252 740.992734804 400.388363109 702.304385492 420 685 c 0
 453.621893012 654.856233851 464.185403015 606.671724885 430 571 c 0
 414.666666667 555 396 547 374 547 c 0xf770
 358 547 342 551.666666667 326 561 c 1
 326 412 l 1
 338.666666667 422.666666667 352.666666667 429 368 431 c 1
 382 464.333333333 406 500.333333333 440 539 c 0
 487.333333333 592.333333333 522.666666667 619 546 619 c 0
 564.256204108 619 580 605.369977088 580 588 c 0
 580 580.666666667 577.333333333 574.833333333 572 570.5 c 0
 566.666666667 566.166666667 551.333333333 558 526 546 c 0xfb70
 500.666666667 534 483 524.333333333 473 517 c 0
 434.333333333 488.333333333 409.666666667 460 399 432 c 1
 407 432.666666667 417.666666667 433 431 433 c 0
 477 432.333333333 508.666666667 409.333333333 526 364 c 0
 529.333333333 355.333333333 531 344.333333333 531 331 c 0
 531 301 526 278 516 262 c 1
 540 230.666666667 551 195.333333333 549 156 c 0
 541.872756883 46.2404560031 424.516856074 0 298 0 c 0
 157.394862768 0 38.6925847661 45.6094275295 33 168 c 0
 28.8477915034 245.507891936 94.4599849622 297.214384118 166 306 c 0
 190 309.333333333 214 310.333333333 238 309 c 1
 242 354.333333333 227 378 193 380 c 0
 158.520066374 382.462852402 148.428799878 361.841599824 134 341 c 0
 126.143474085 329.651684789 113.648279839 323 97 323 c 0
 69.6666666667 323 56 336 56 362 c 0
 56 368 57.3333333333 373.333333333 60 378 c 0
 78 414 108.666666667 432 152 432 c 0
314 307 m 0
 317.811794144 307 327.744613686 309 331 309 c 0
 336.047460779 334.237303897 347.950167469 385.904865169 359 407 c 1
 328.333333333 389.666666667 313 361.666666667 313 323 c 0
 313 317.666666667 313.333333333 312.333333333 314 307 c 0
359 309 m 1
 423.99487185 309 463.800155435 303.714174689 497 280 c 1
 501 299.333333333 503 314.333333333 503 325 c 0
 503 387.287630076 454.75712074 417.137658316 388 405 c 1
 371.333333333 378.333333333 361.666666667 346.333333333 359 309 c 1
357 267 m 0
 357 219.859501644 375.019134181 187 416 187 c 0
 444 187 466.666666667 209.333333333 484 254 c 1
 463.11885549 280.449449713 411.420205111 287 358 287 c 1
 357.333333333 280.333333333 357 273.666666667 357 267 c 0
EndSplineSet
Ligature2: "'abvs' Above Base Substitutions in Sinhala lookup 8 subtable" Ja al
EndChar
StartChar: Ja.i
Encoding: 65606 -1 74
Width: 598
GlyphClass: 2
Flags: W
HStem: 0 115<153.725 432.387> 161 26<379.311 449.522> 287 22<140.222 237.812 359 448.076> 388 44<126.625 226.497> 612 45<350.564 436.395>
VStem: 33 51<156.899 243.31> 57 91<335.5 384.539> 234 51<437.094 539.083> 238 28<309.078 368.956> 286 27<307.266 375.928> 329 28<210.662 287 309 359.496> 445 26<572 597.014> 503 28<280.457 373.908>
LayerCount: 2
Back
Fore
SplineSet
314 307 m 0xf878
 317.811794144 307 327.744613686 309 331 309 c 0
 336.047460779 334.237303897 347.950167469 385.904865169 359 407 c 1
 328.333333333 389.666666667 313 361.666666667 313 323 c 0
 313 317.666666667 313.333333333 312.333333333 314 307 c 0xf878
359 309 m 1
 423.99487185 309 463.800155435 303.714174689 497 280 c 1
 501 299.333333333 503 314.333333333 503 325 c 0
 503 387.287630076 454.75712074 417.137658316 388 405 c 1
 371.333333333 378.333333333 361.666666667 346.333333333 359 309 c 1
357 267 m 0
 357 219.859501644 375.019134181 187 416 187 c 0
 444 187 466.666666667 209.333333333 484 254 c 1
 463.11885549 280.449449713 411.420205111 287 358 287 c 1
 357.333333333 280.333333333 357 273.666666667 357 267 c 0
150 432 m 0
 220.406143341 432 266 393.588234601 266 323 c 0xfaf8
 266 311 264.666666667 298 262 284 c 1
 230 288.666666667 197 288.333333333 163 283 c 0
 125.984058399 277.029686839 84 248.469266196 84 207 c 0
 84 197.666666667 86 188.333333333 90 179 c 0
 116.951066594 119.108740903 197.764755715 115 300 115 c 0
 418 115 487 136.333333333 507 179 c 0
 511 187.666666667 513 196.333333333 513 205 c 0
 513 214.333333333 510.666666667 223.666666667 506 233 c 1
 493.333333333 203 477 182.333333333 457 171 c 0
 445 164.333333333 430.333333333 161 413 161 c 0
 368.726610517 161 347.563036071 182.413532067 335 221 c 0
 327 245 325 267 329 287 c 1
 329 287 320 286 292 284 c 1
 288 296 286 308.666666667 286 322 c 0
 286 357.333333333 297.333333333 385.666666667 320 407 c 1
 267.702320551 408.687021918 235.115100368 433.475182316 234 487 c 0
 232.666666667 529.666666667 245 566.666666667 271 598 c 0
 303.666666667 637.333333333 341.333333333 657 384 657 c 0
 427.333333333 657 455 641 467 609 c 0
 471.666666667 596.333333333 473 584 471 572 c 1
 495 596 516.333333333 611.333333333 535 618 c 0
 541.666666667 620.666666667 548 622 554 622 c 0
 572.666666667 622 582 614 582 598 c 0
 582 590.666666667 579 585 573 581 c 0
 549 569 516 549 474 521 c 1
 443.015038265 493.590226157 410.865979565 466.114691249 399 432 c 1
 407 432.666666667 417.666666667 433 431 433 c 0
 477 432.333333333 508.666666667 409.333333333 526 364 c 0
 529.333333333 355.333333333 531 344.333333333 531 331 c 0
 531 301 526 278 516 262 c 1
 540 230.666666667 551 195.333333333 549 156 c 0
 541.872756883 46.2404560031 424.516856074 0 298 0 c 0
 157.394862768 0 38.6925847661 45.6094275295 33 168 c 0xfd78
 28.8477915034 245.507891936 94.4599849622 297.214384118 166 306 c 0
 190 309.333333333 214 310.333333333 238 309 c 1
 241.6837877 349.521664704 225.225455632 388 187 388 c 0
 167 388 154 380.333333333 148 365 c 0
 138.335922741 341.211502132 122.211153051 326 95 326 c 0
 69.6666666667 326 57 338.666666667 57 364 c 0xfaf8
 57 368.666666667 58 373.333333333 60 378 c 0
 74.6666666667 414 104.666666667 432 150 432 c 0
445 558 m 0
 445 585.089707951 429.051164338 612 402 612 c 0
 374 612 345.333333333 592.333333333 316 553 c 0
 295.333333333 525.666666667 285 500.333333333 285 477 c 0xf978
 285 434.294166602 323.437358816 422.304850501 368 431 c 1
 378.666666667 457.666666667 403.333333333 494.666666667 442 542 c 0
 444 546 445 551.333333333 445 558 c 0
EndSplineSet
Ligature2: "'abvs' Above Base Substitutions in Sinhala lookup 8 subtable" Ja i
EndChar
StartChar: Ja.ii
Encoding: 65554 -1 22
Width: 598
GlyphClass: 2
Flags: W
HStem: 0 115<153.725 432.387> 161 26<379.311 449.522> 287 22<140.222 237.812 359 448.076> 388 44<126.625 226.497> 622 35<356.71 430.713>
VStem: 33 51<156.899 243.31> 57 91<335.5 384.539> 234 52<437.094 539.746> 238 28<309.078 368.956> 286 27<307.266 375.928> 329 28<210.662 287 309 359.496> 441 30<572.094 608.996> 503 28<280.457 373.908>
LayerCount: 2
Back
Fore
SplineSet
315 552 m 1xf938
 315 552 313.666666667 550.333333333 311 545 c 0
 294.333333333 520.333333333 286 497.666666667 286 477 c 0
 286 433.843099903 323.311998443 422.28038994 368 431 c 1
 374 446.333333333 388.666666667 470.666666667 412 504 c 1
 395.333333333 496 374.333333333 498.333333333 349 511 c 0
 333 519 321.666666667 532.666666667 315 552 c 1xf938
314 307 m 0
 317.811794144 307 327.744613686 309 331 309 c 0
 336.047460779 334.237303897 347.950167469 385.904865169 359 407 c 1
 328.333333333 389.666666667 313 361.666666667 313 323 c 0xf878
 313 317.666666667 313.333333333 312.333333333 314 307 c 0
359 309 m 1
 423.99487185 309 463.800155435 303.714174689 497 280 c 1
 501 299.333333333 503 314.333333333 503 325 c 0
 503 387.287630076 454.75712074 417.137658316 388 405 c 1
 371.333333333 378.333333333 361.666666667 346.333333333 359 309 c 1
357 267 m 0
 357 219.859501644 375.019134181 187 416 187 c 0
 444 187 466.666666667 209.333333333 484 254 c 1
 463.11885549 280.449449713 411.420205111 287 358 287 c 1
 357.333333333 280.333333333 357 273.666666667 357 267 c 0
150 432 m 0
 220.406143341 432 266 393.588234601 266 323 c 0
 266 311 264.666666667 298 262 284 c 1
 230 288.666666667 197 288.333333333 163 283 c 0
 125.984058399 277.029686839 84 248.469266196 84 207 c 0
 84 197.666666667 86 188.333333333 90 179 c 0
 116.951066594 119.108740903 197.764755715 115 300 115 c 0
 418 115 487 136.333333333 507 179 c 0
 511 187.666666667 513 196.333333333 513 205 c 0
 513 214.333333333 510.666666667 223.666666667 506 233 c 1
 493.333333333 203 477 182.333333333 457 171 c 0
 445 164.333333333 430.333333333 161 413 161 c 0
 368.726610517 161 347.563036071 182.413532067 335 221 c 0
 327 245 325 267 329 287 c 1
 329 287 320 286 292 284 c 1
 288 296 286 308.666666667 286 322 c 0xfcf8
 286 357.333333333 297.333333333 385.666666667 320 407 c 1
 267.702320551 408.687021918 235.115100368 433.475182316 234 487 c 0
 232.666666667 529.666666667 245 566.666666667 271 598 c 0
 303.666666667 637.333333333 341.333333333 657 384 657 c 0
 427.333333333 657 455 641 467 609 c 0
 471.666666667 596.333333333 473 584 471 572 c 1
 495 596 516.333333333 611.333333333 535 618 c 0
 541.666666667 620.666666667 548 622 554 622 c 0
 572.666666667 622 582 614 582 598 c 0
 582 590.666666667 579 585 573 581 c 0
 549 569 516 549 474 521 c 1
 443.015038265 493.590226157 410.865979565 466.114691249 399 432 c 1
 407 432.666666667 417.666666667 433 431 433 c 0
 477 432.333333333 508.666666667 409.333333333 526 364 c 0
 529.333333333 355.333333333 531 344.333333333 531 331 c 0
 531 301 526 278 516 262 c 1
 540 230.666666667 551 195.333333333 549 156 c 0
 541.872756883 46.2404560031 424.516856074 0 298 0 c 0
 157.394862768 0 38.6925847661 45.6094275295 33 168 c 0xfd38
 28.8477915034 245.507891936 94.4599849622 297.214384118 166 306 c 0
 190 309.333333333 214 310.333333333 238 309 c 1
 241.6837877 349.521664704 225.225455632 388 187 388 c 0
 167 388 154 380.333333333 148 365 c 0
 138.335922741 341.211502132 122.211153051 326 95 326 c 0
 69.6666666667 326 57 338.666666667 57 364 c 0xfab8
 57 368.666666667 58 373.333333333 60 378 c 0
 74.6666666667 414 104.666666667 432 150 432 c 0
393 622 m 0
 366.946990895 622 346 602.090002444 346 574 c 0
 346 549.349853953 366.127339356 528 393 528 c 0
 419.458248006 528 441 550.568629529 441 577 c 0
 441 601.381433844 420.108405199 622 393 622 c 0
EndSplineSet
Ligature2: "'abvs' Above Base Substitutions in Sinhala lookup 8 subtable" Ja ii
EndChar
StartChar: La.u
Encoding: 65551 -1 19
Width: 645
GlyphClass: 2
Flags: W
HStem: 0 116<208.494 452.095> 288 27<193.318 317> 359 43<387.472 495.987> 387 44<213.629 295.852>
VStem: 32 28<168.639 320.605> 95 50<156.875 248.797> 317 32<315 357.313> 334 32<431.796 556.131>
LayerCount: 2
Back
Fore
SplineSet
366 491 m 0xed
 366 435.031665541 390.635964585 402 444 402 c 0
 475.333333333 402 496 414.333333333 506 439 c 1
 484.499828884 479.470910336 423.567636637 537.78094025 387 563 c 1
 373 549 366 525 366 491 c 0xed
126 382 m 1
 86.2874388721 362.143719436 60 310.372472138 60 249 c 0
 60 195 74.3333333333 151.333333333 103 118 c 1
 96.3333333333 135.333333333 93.6666666667 157 95 183 c 0
 100.050374664 268.856369296 171.890127842 315 267 315 c 2
 317 315 l 1
 315.805816142 348.437148026 288.190629934 387 255 387 c 0xde
 250.333333333 387 245.666666667 386 241 384 c 0
 225.666666667 378 213.333333333 367.666666667 204 353 c 0
 191.763990159 334.645985239 159.850858483 324.111856138 138 340.5 c 0
 128.666666667 347.5 124 355.666666667 124 365 c 0
 124 372.333333333 124.666666667 378 126 382 c 1
250 288 m 2
 196.616039771 288 145 255.904632124 145 206 c 0
 145 200.666666667 145.666666667 195.333333333 147 190 c 0
 159.666666667 139.333333333 225.333333333 114.666666667 344 116 c 0
 453.429195674 117.367864946 545.531203376 167.674291314 552 266 c 0
 556 325.333333333 546.333333333 373.333333333 523 410 c 1
 507 378 478.333333333 361 437 359 c 0
 373.901831554 356.314971556 332.69686299 414.449423514 334 477 c 0xed
 334.666666667 530.333333333 349 570.333333333 377 597 c 1
 439.917551118 564.73458917 507.737586473 490.63507791 544 428 c 0
 616.724784708 301.943706507 619.402754492 152.517821584 520.5 63 c 0
 474.833333333 21.6666666667 418.666666667 0.666666666667 352 0 c 0
 245.963818634 -0.855130494891 177.391228013 22.6087719869 127 73 c 1
 69.7616105409 97.3567614719 32 166.371019809 32 248 c 0
 32 322.838903681 63.3666440008 370.404745715 109 403 c 0
 140.333333333 425.666666667 173.333333333 435 208 431 c 0
 211 431 211 431 216 431 c 0
 220 431.666666667 222.666666667 432 224 432 c 0
 303.68674249 433.373909353 349 368.424687848 349 288 c 1
 250 288 l 2
EndSplineSet
Ligature2: "'abvs' Above Base Substitutions in Sinhala lookup 8 subtable" La u
EndChar
StartChar: Na.i
Encoding: 65612 -1 80
Width: 963
GlyphClass: 2
Flags: W
HStem: 0 106<258.66 450.721> 159 38<306.471 392.733> 409 24<286.678 427.844> 462 65<722.897 860.231> 559 81<315.702 570.885>
VStem: 170 31<287 343.854> 263 29<218.994 292.218> 415 30<218.625 296.951> 538 43<183.055 241.108 250 322.82> 833 82<59.0625 253.812>
LayerCount: 2
Back
Fore
SplineSet
467 405 m 1
 492.333333333 417 520.666666667 429.333333333 552 442 c 0
 586.666666667 456 602.666666667 479.333333333 600 512 c 0
 597.333333333 543.333333333 554.333333333 559 471 559 c 0
 415.724708409 559 358.683436919 551.657069264 318 539 c 0
 277.333333333 526.333333333 255 510 251 490 c 0
 247.666666667 474.666666667 251 462 261 452 c 0
 274.333333333 437.333333333 299.333333333 431 336 433 c 0
 394 435.666666667 437.666666667 426.333333333 467 405 c 1
201 287 m 1
 223.666666667 299 261 317.666666667 313 343 c 0
 355.666666667 362.333333333 396.333333333 379.333333333 435 394 c 1
 413.666666667 404 388 409 358 409 c 0
 272.149674595 409 199.786213598 363.468543299 201 287 c 1
205 258 m 1
 218.597700799 215.847127523 264.643383651 186.582390582 315 184 c 1
 286.333333333 194 269 212.666666667 263 240 c 0
 259 258.666666667 262.333333333 276.333333333 273 293 c 1
 205 258 l 1
353 318 m 0
 317.521035603 318 292 291.536298649 292 258 c 0
 292 223.739563472 320.727843786 197 354 197 c 0
 385.5681803 197 415 222.964020441 415 257 c 0
 415 291.298603498 388.052047302 318 353 318 c 0
22 178 m 1
 58.4382160347 204.991271137 130.198283374 249.182023353 171 269 c 1
 170.333333333 275 170 280.666666667 170 286 c 0
 170 342.666666667 200.333333333 386.333333333 261 417 c 1
 265 418 l 1
 227.666666667 430 207.333333333 454.333333333 204 491 c 0
 195.302148361 589.575651914 314.011236171 628.934332104 416 638 c 0
 428 639.333333333 440 640 452 640 c 0
 545.62752846 640 636.982035126 607.601206588 644 529 c 0
 646 507 639.333333333 487.666666667 624 471 c 1
 636.666666667 475.666666667 652.333333333 481.333333333 671 488 c 0
 744.333333333 514 796.666666667 527 828 527 c 0
 851.333333333 527 863 517.333333333 863 498 c 256
 863 478.666666667 851.333333333 466.666666667 828 462 c 0
 798 456.666666667 749 447.666666667 681 435 c 0
 641.666666667 427.666666667 580.333333333 412.666666667 497 390 c 1
 518.333333333 377.333333333 539 355.666666667 559 325 c 0
 573 303.666666667 580 278.666666667 580 250 c 1
 597.333333333 276.666666667 620.666666667 288.666666667 650 286 c 0
 676.666666667 283.333333333 697 271.333333333 711 250 c 1
 721.382365956 294.990252476 765.34335463 325.062521371 822 322 c 0
 893.608815172 317.946670839 918.767602807 223.654864564 915 137 c 0
 912.375999745 71.3999936157 872.109073923 5.60330385491 814 -1 c 0
 760.252266837 -6.81056574739 716.368612537 25.4863155235 702 65 c 1
 685.333333333 45 662.666666667 35.3333333333 634 36 c 0
 600.666666667 36.6666666667 575 59 557 103 c 1
 513.44536935 37.045845016 465.678409093 1.45910737816 365 0 c 0
 311 -0.666666666667 268 11 236 35 c 0
 214.666666667 51 188.333333333 82.3333333333 157 129 c 0
 148.333333333 142.333333333 142 150.666666667 138 154 c 0
 125.685143252 167.546342423 95.463414146 181.041078151 70 173 c 0
 56.6666666667 169 44.3333333333 162.666666667 33 154 c 1
 22 178 l 1
372 341 m 1
 411.418572235 332.638484677 445 300.436125012 445 255 c 0
 445 198.79720396 385.210537685 161.391937774 329 159 c 0
 252.333333333 155.666666667 201.666666667 183.333333333 177 242 c 1
 146.333333333 226.666666667 121 212.666666667 101 200 c 1
 139.479962146 195.72444865 169.562579731 169.707332002 197 151 c 0
 241 121 288 106 338 106 c 0
 446.092484605 106 518.75468999 150.822511952 534 224 c 0
 536.666666667 236 538 247.666666667 538 259 c 0
 538 314.333333333 513 354.333333333 463 379 c 1
 431.329118009 367.123419253 411.22786612 356.691146448 372 341 c 1
573 150 m 1
 574.305392686 106.922041361 600.784920743 65.0423363197 643 69 c 0
 679 72.3333333333 697.666666667 104 699 164 c 0
 700.333333333 226 681.666666667 257.333333333 643 258 c 0
 615 258.666666667 594.333333333 241.333333333 581 206 c 1
 581 190 578.333333333 171.333333333 573 150 c 1
727 206 m 1
 737.097376708 175.707869877 730.121092399 127.336367775 721 102 c 1
 729.796267922 72.3125957624 758.286999114 43.7144998524 796 50 c 0
 820.666666667 54.6666666667 833 89 833 153 c 0
 833 198.66931339 824.155266497 268.428031891 788 270 c 0
 755.53703047 271.708577344 733.067084119 236.335420593 727 206 c 1
EndSplineSet
Ligature2: "'abvs' Above Base Substitutions in Sinhala lookup 8 subtable" Na i
EndChar
StartChar: Na.ii
Encoding: 65609 -1 77
Width: 963
GlyphClass: 2
Flags: HW
LayerCount: 2
Back
Fore
SplineSet
511 507 m 0
 513 485.666666667 529 474.333333333 559 473 c 0
 596.333333333 471.666666667 616.333333333 483 619 507 c 0
 621 523 616.333333333 535 605 543 c 128
 593.666666667 551 579.333333333 554.333333333 562 553 c 0
 526 551 509 535.666666667 511 507 c 0
564 447 m 1
 542 443.666666667 522.5 447.5 505.5 458.5 c 128
 488.5 469.5 479 485.333333333 477 506 c 0
 475.666666667 519.333333333 479.333333333 532 488 544 c 128
 496.666666667 556 505.666666667 563.666666667 515 567 c 1
 493 571.666666667 468 574 440 574 c 0
 400.666666667 574 365 570 333 562 c 0
 283.666666667 549.333333333 259 529 259 501 c 0
 259 481.666666667 270 464.833333333 292 450.5 c 128
 314 436.166666667 337.666666667 430.333333333 363 433 c 1
 383 432.333333333 398.666666667 430.666666667 410 428 c 0
 432.666666667 424 451.666666667 416.333333333 467 405 c 1
 510.333333333 425.666666667 542.666666667 439.666666667 564 447 c 1
201 287 m 1
 223.666666667 299 261 317.666666667 313 343 c 0
 355.666666667 362.333333333 396.333333333 379.333333333 435 394 c 1
 413.666666667 404 388 409 358 409 c 0
 318.666666667 409 285.666666667 401 259 385 c 0
 219.666666667 361.666666667 200.333333333 329 201 287 c 1
205 258 m 1
 211.666666667 237.333333333 224.333333333 220.666666667 243 208 c 0
 265 193.333333333 289 185.333333333 315 184 c 1
 286.333333333 194 269 212.666666667 263 240 c 0
 259 258.666666667 262.333333333 276.333333333 273 293 c 1
 205 258 l 1
292 258 m 0
 292 240 298.333333333 225.333333333 311 214 c 128
 323.666666667 202.666666667 338 197 354 197 c 0
 372 197 387.333333333 204 400 218 c 0
 410 228.666666667 415 241.666666667 415 257 c 0
 415 276.333333333 408 291.666666667 394 303 c 0
 382.666666667 313 369 318 353 318 c 0
 333.666666667 318 318.666666667 311.833333333 308 299.5 c 128
 297.333333333 287.166666667 292 273.333333333 292 258 c 0
580 250 m 1
 597.333333333 276.666666667 620.666666667 288.666666667 650 286 c 0
 676.666666667 283.333333333 697 271.333333333 711 250 c 1
 717 276 732 295.333333333 756 308 c 0
 775.333333333 318.666666667 797.333333333 323.333333333 822 322 c 0
 857.333333333 320 883 297.666666667 899 255 c 0
 911.666666667 222.333333333 917 183 915 137 c 0
 913.666666667 103.666666667 904.333333333 74 887 48 c 0
 867.666666667 18.6666666667 843.333333333 2.33333333333 814 -1 c 0
 789.333333333 -3.66666666667 766.5 1.16666666667 745.5 13.5 c 128
 724.5 25.8333333333 710 43 702 65 c 1
 685.333333333 45 662.666666667 35.3333333333 634 36 c 0
 600.666666667 36.6666666667 575 59 557 103 c 1
 533.666666667 67.6666666667 508 42 480 26 c 0
 449.333333333 9.33333333333 411 0.666666666667 365 0 c 0
 311 -0.666666666667 268 11 236 35 c 0
 214.666666667 51 188.333333333 82.3333333333 157 129 c 0
 148.333333333 142.333333333 142 150.666666667 138 154 c 0
 131.333333333 161.333333333 122.333333333 167 111 171 c 0
 96.3333333333 176.333333333 82.6666666667 177 70 173 c 0
 56.6666666667 169 44.3333333333 162.666666667 33 154 c 1
 22 178 l 1
 36.6666666667 190.666666667 59 205.666666667 89 223 c 0
 107.666666667 234.333333333 135 249.666666667 171 269 c 1
 170.333333333 275 170 280.666666667 170 286 c 0
 170 344 198.333333333 386.666666667 255 414 c 0
 261.666666667 418 272 421.333333333 286 424 c 1
 236 439.333333333 212 472 214 522 c 0
 216 567.333333333 241.333333333 601 290 623 c 0
 329.333333333 640.333333333 378.666666667 649 438 649 c 0
 496 649 545.333333333 639 586 619 c 0
 633.333333333 595.666666667 657 563 657 521 c 0
 657 503 651.333333333 488.333333333 640 477 c 1
 640.666666667 477.666666667 651 481.333333333 671 488 c 0
 744.333333333 514 796.666666667 527 828 527 c 0
 851.333333333 527 863 517.333333333 863 498 c 256
 863 478.666666667 851.333333333 466.666666667 828 462 c 0
 798 456.666666667 749 447.666666667 681 435 c 0
 641.666666667 427.666666667 580.333333333 412.666666667 497 390 c 1
 517.666666667 378 538.333333333 356.333333333 559 325 c 0
 573 304.333333333 580 279.333333333 580 250 c 1
463 379 m 1
 452.333333333 375 439 369.666666667 423 363 c 0
 412.333333333 357.666666667 395.333333333 350.333333333 372 341 c 1
 394 336.333333333 411.666666667 326 425 310 c 128
 438.333333333 294 445 275.666666667 445 255 c 0
 445 229 433.5 206.833333333 410.5 188.5 c 128
 387.5 170.166666667 360.333333333 160.333333333 329 159 c 0
 252.333333333 155.666666667 201.666666667 183.333333333 177 242 c 1
 140.333333333 222.666666667 115 208.666666667 101 200 c 1
 119 198 136.666666667 191.666666667 154 181 c 0
 168 171 182.333333333 161 197 151 c 0
 241 121 288 106 338 106 c 0
 352 106 366.666666667 107 382 109 c 0
 470 121.666666667 520.666666667 160 534 224 c 0
 536.666666667 236 538 247.333333333 538 258 c 0
 538 312.666666667 513 353 463 379 c 1
581 206 m 1
 581 190 578.333333333 171.333333333 573 150 c 1
 573.666666667 128 579.666666667 109.333333333 591 94 c 0
 604.333333333 75.3333333333 621.666666667 67 643 69 c 0
 679 72.3333333333 697.666666667 104 699 164 c 0
 700.333333333 226 681.666666667 257.333333333 643 258 c 0
 615 258.666666667 594.333333333 241.333333333 581 206 c 1
727 206 m 1
 731 194 732.666666667 179.666666667 732 163 c 0
 730.666666667 139 727 118.666666667 721 102 c 1
 726.333333333 84 736.166666667 70.1666666667 750.5 60.5 c 128
 764.833333333 50.8333333333 780 47.3333333333 796 50 c 0
 820.666666667 54.6666666667 833 89 833 153 c 0
 833 183 829.666666667 209 823 231 c 0
 815 256.333333333 803.333333333 269.333333333 788 270 c 0
 775.333333333 270.666666667 763 265.166666667 751 253.5 c 128
 739 241.833333333 731 226 727 206 c 1
EndSplineSet
LCarets2: 1 0 
Ligature2: "'abvs' Above Base Substitutions in Sinhala lookup 8 subtable" Na ii
EndChar
StartChar: Ta.i
Encoding: 65552 -1 20
Width: 638
GlyphClass: 2
Flags: W
HStem: 0 117<122.258 262 343.042 488.612> 363 35<363.353 461.537> 374 24<161.134 221> 499 25<169.747 310 485 504.693> 624 79<207.021 467.583>
VStem: 116 45<527.128 594.175> 286 31<142.468 212> 309 29<427.594 498> 518 42<530.971 593.86> 545 42<187.311 359.017>
LayerCount: 2
Back
Fore
SplineSet
518 561 m 0x9c80
 518 612.997945715 407.862999899 624 340 624 c 0
 220.666666667 624 161 601.666666667 161 557 c 0
 161 506.998600321 269.458177713 512.57447434 316 526 c 1
 320.666666667 549.333333333 332 575 350 603 c 1
 384.666666667 589 422.333333333 562.666666667 463 524 c 1
 490.104665633 522.870638932 518 536.278588936 518 561 c 0x9c80
340 703 m 0
 442.166836377 703 560 664.089947717 560 573 c 0xdd80
 560 532.812162051 524.047715957 500.301590532 485 499 c 1
 553 417 587 330 587 238 c 0
 587 116.379764163 535.062097625 0 422 0 c 0
 372.666666667 0 333 19.6666666667 303 59 c 1
 272.333333333 20.3333333333 234.666666667 0.666666666667 190 0 c 0
 139.333333333 -0.666666666667 99 22 69 68 c 0
 21.2025635607 140.83418886 22.5787230514 247.518708183 68 318 c 0
 99.793500476 366.683797604 145.304537763 398 221 398 c 1
 221 374 l 1
 179.666666667 375.333333333 144.833333333 360.5 116.5 329.5 c 0
 70.3434952744 278.999353653 66.9017482307 199.993972052 110 150 c 0
 130.666666667 127.333333333 157.333333333 116 190 116 c 0
 254 116 286 136.333333333 286 177 c 2
 286 212 l 1
 317 212 l 1
 317 177 l 2xbe40
 317 133.361262449 368.055563918 117 417 117 c 0
 498.333333333 117 541 172.666666667 545 284 c 0
 546.038030978 326.559270093 526.130883733 401.869116267 505 423 c 1
 483 383 452.333333333 363 413 363 c 0
 360.465082038 363 312.889772219 402.729551889 309 452 c 0xdd40
 307.666666667 467.333333333 308 482.666666667 310 498 c 1
 243.442441648 481.360610412 168.2490312 484.968528592 135 524 c 0
 122.333333333 538 116 554 116 572 c 0
 116 667.040815329 231.859259 703 340 703 c 0
338 479 m 0
 338 430.535816741 365.162614876 398 412 398 c 0
 446 398 471 415.333333333 487 450 c 1
 470.333333333 474.666666667 453.166666667 495.166666667 435.5 511.5 c 0
 417.833333333 527.833333333 405.333333333 539 398 545 c 0
 385.333333333 555.666666667 373.333333333 563.666666667 362 569 c 1
 346 547.666666667 338 517.666666667 338 479 c 0
EndSplineSet
Ligature2: "'abvs' Above Base Substitutions in Sinhala lookup 8 subtable" Ta i
EndChar
StartChar: Ta.ii
Encoding: 65553 -1 21
Width: 638
GlyphClass: 2
Flags: W
HStem: 0 117<122.258 262 343.042 488.612> 363 35<363.353 461.537> 374 24<161.134 221> 628 75<197.292 420.406>
VStem: 286 31<142.468 212> 309 29<427.594 501.342> 409 31<569 613.214> 543 32<543.313 614.16> 545 42<187.311 363.52>
LayerCount: 2
Back
Fore
SplineSet
350 603 m 1x9a
 372 594.333333333 391.666666667 583 409 569 c 1
 407 592.333333333 411.333333333 610 422 622 c 1
 400 627.333333333 368 629 326 627 c 0
 218 622.333333333 160.333333333 603 153 569 c 0
 147 541 162.333333333 524 199 518 c 0
 243 511.333333333 282.333333333 515.333333333 317 530 c 1
 323 553.333333333 334 577.666666667 350 603 c 1x9a
105 572 m 0
 105 667.040815329 220.859259 703 329 703 c 0
 496.333333333 703 578.333333333 660 575 574 c 0xd7
 573.688658111 525.480350101 532.049634694 496.626354243 481 502 c 1
 540.333333333 438 574.666666667 367 584 289 c 0
 586 272.333333333 587 255.333333333 587 238 c 0
 587 116.379764163 535.062097625 0 422 0 c 0
 372.666666667 0 333 19.6666666667 303 59 c 1
 272.333333333 20.3333333333 234.666666667 0.666666666667 190 0 c 0
 139.333333333 -0.666666666667 99 22 69 68 c 0
 21.2025635607 140.83418886 22.5787230514 247.518708183 68 318 c 0
 99.793500476 366.683797604 145.304537763 398 221 398 c 1
 221 374 l 1
 179.666666667 375.333333333 144.833333333 360.5 116.5 329.5 c 0
 70.3434952744 278.999353653 66.9017482307 199.993972052 110 150 c 0
 130.666666667 127.333333333 157.333333333 116 190 116 c 0
 254 116 286 136.333333333 286 177 c 2
 286 212 l 1
 317 212 l 1
 317 177 l 2xba80
 317 133.361262449 368.055563918 117 417 117 c 0
 498.333333333 117 541 172.666666667 545 284 c 0
 546.038030978 326.559270093 526.130883733 401.869116267 505 423 c 1
 483 383 452.333333333 363 413 363 c 0
 360.465082038 363 312.889772219 402.729551889 309 452 c 0xd680
 307.666666667 471.333333333 308.333333333 488 311 502 c 1
 248.537272033 480.807288726 159.254123334 482.614724782 124 524 c 0
 111.333333333 538 105 554 105 572 c 0
338 479 m 0
 338 430.535816741 365.162614876 398 412 398 c 0
 446 398 471 415.333333333 487 450 c 1
 470.333333333 474.666666667 453.166666667 495.166666667 435.5 511.5 c 0
 417.833333333 527.833333333 405.333333333 539 398 545 c 0
 385.333333333 555.666666667 373.333333333 563.666666667 362 569 c 1
 346 547.666666667 338 517.666666667 338 479 c 0
492 628 m 0
 464.601775063 628 440 607.470654185 440 578 c 0
 440 551.427034529 461.128204032 528 491 528 c 0
 518.398224937 528 543 548.529345815 543 578 c 0
 543 605.523174148 521.871795968 628 492 628 c 0
EndSplineSet
Ligature2: "'abvs' Above Base Substitutions in Sinhala lookup 8 subtable" Ta ii
EndChar
StartChar: Tha.i
Encoding: 65567 -1 35
Width: 614
GlyphClass: 2
Flags: W
HStem: -1 116<183.035 409.961> 363 32<366.02 451.238> 405 25<179.474 245> 624 79<199.021 459.583>
VStem: 33 48<190.549 321.519> 108 45<527.672 594.175> 309 30<423.41 501> 510 42<528.444 593.86> 524 42<227.648 371.798>
LayerCount: 2
Back
Fore
SplineSet
510 561 m 0xff
 510 612.997945715 399.862999899 624 332 624 c 0
 212.666666667 624 153 601.666666667 153 557 c 0
 153 537 170 524.333333333 204 519 c 0
 245.333333333 512.333333333 283 516 317 530 c 1
 322.333333333 553.333333333 333.333333333 577.666666667 350 603 c 1
 384.666666667 589 419 562.666666667 453 524 c 1
 491 521.333333333 510 533.666666667 510 561 c 0xff
332 703 m 0
 434.166836377 703 552 664.089947717 552 573 c 0xff
 552 533.183408547 513.405144457 497.185346825 474 500 c 1
 535.333333333 420.666666667 566 338.666666667 566 254 c 0
 566 180.666666667 540.666666667 120 490 72 c 0
 439.333333333 24 375.333333333 -0.333333333333 298 -1 c 0
 224 -1.66666666667 161.333333333 20.3333333333 110 65 c 0
 58.6666666667 109.666666667 33 167.333333333 33 238 c 0
 33 347.828707544 134.295744591 426.182611882 245 430 c 1
 245 405 l 1
 158.515985599 403.76451408 81 347.820896056 81 263 c 0
 81 155.098661535 187.629811266 113.67366457 307 115 c 0
 417.666666667 117 488 166 518 262 c 0
 522 274.666666667 524 288.666666667 524 304 c 0xfe80
 524 348 513.666666667 384 493 412 c 1
 474.333333333 379.333333333 447.666666667 363 413 363 c 0
 360.465082038 363 312.889772219 402.729551889 309 452 c 0
 307.666666667 470 308.333333333 486.333333333 311 501 c 1
 230.900538725 475.25374459 108 485.122602256 108 572 c 0
 108 667.040815329 223.859259 703 332 703 c 0
339 478 m 0
 339 431.077133621 363.857496578 395 409 395 c 0
 437 395 459.666666667 411.333333333 477 444 c 1
 467 463.333333333 451.333333333 484.333333333 430 507 c 0
 401.333333333 537.666666667 379 557 363 565 c 1
 347 549 339 520 339 478 c 0
EndSplineSet
Ligature2: "'abvs' Above Base Substitutions in Sinhala lookup 8 subtable" Tha i
EndChar
StartChar: Tha.ii
Encoding: 65566 -1 34
Width: 614
GlyphClass: 2
Flags: W
HStem: -1 116<183.035 409.961> 363 32<366.02 451.238> 405 25<179.474 245> 502 26<158.117 310 471.597 525.44> 628 75<197.292 420.406>
VStem: 33 48<190.549 321.519> 309 30<423.41 501> 409 31<567.033 613.214> 524 42<227.648 371.171> 543 32<542.163 614.16>
LayerCount: 2
Back
Fore
SplineSet
350 603 m 1xff
 368.666666667 595.666666667 388.333333333 583.666666667 409 567 c 1
 406.333333333 591.666666667 410.666666667 610 422 622 c 1
 400 627.333333333 368 629 326 627 c 0
 218 622.333333333 160.333333333 603 153 569 c 0
 147 541 162.333333333 524 199 518 c 0
 241.666666667 511.333333333 281 515.333333333 317 530 c 1
 322.333333333 552.666666667 333.333333333 577 350 603 c 1xff
105 572 m 0
 105 667.040815329 220.859259 703 329 703 c 0
 496.333333333 703 578.333333333 660 575 574 c 0xff40
 573.753481776 526.632307479 533.488766606 497.70926945 482 502 c 0
 479.333333333 502 475.666666667 502.666666667 471 504 c 1
 534.333333333 421.333333333 566 338 566 254 c 0
 566 180.666666667 540.666666667 120 490 72 c 0
 439.333333333 24 375.333333333 -0.333333333333 298 -1 c 0
 224 -1.66666666667 161.333333333 20.3333333333 110 65 c 0
 58.6666666667 109.666666667 33 167.333333333 33 238 c 0
 33 347.828707544 134.295744591 426.182611882 245 430 c 1
 245 405 l 1
 158.515985599 403.76451408 81 347.820896056 81 263 c 0
 81 155.098661535 187.629811266 113.67366457 307 115 c 0
 417.666666667 117 488 166 518 262 c 0
 522 274.666666667 524 288.666666667 524 304 c 0xff80
 524 348 513.666666667 384 493 412 c 1
 474.333333333 379.333333333 447.666666667 363 413 363 c 0
 360.465082038 363 312.889772219 402.729551889 309 452 c 0
 307.666666667 467.333333333 308 483.666666667 310 501 c 1
 241.0947834 481.796906849 159.948542278 482.432889937 123 524 c 0
 111 538 105 554 105 572 c 0
339 478 m 0
 339 431.077133621 363.857496578 395 409 395 c 0
 437 395 459.666666667 411.333333333 477 444 c 1
 467 463.333333333 451.333333333 484.333333333 430 507 c 0
 401.333333333 537.666666667 379 557 363 565 c 1
 347 549 339 520 339 478 c 0
492 628 m 0
 464.601775063 628 440 607.470654185 440 578 c 0
 440 551.427034529 461.128204032 528 491 528 c 0
 518.398224937 528 543 548.529345815 543 578 c 0
 543 605.523174148 521.871795968 628 492 628 c 0
EndSplineSet
Ligature2: "'abvs' Above Base Substitutions in Sinhala lookup 8 subtable" Tha ii
EndChar
